%TF.GenerationSoftware,KiCad,Pcbnew,(6.0.5)*%
%TF.CreationDate,2022-05-28T10:37:04-07:00*%
%TF.ProjectId,stm32,73746d33-322e-46b6-9963-61645f706362,rev?*%
%TF.SameCoordinates,Original*%
%TF.FileFunction,Legend,Top*%
%TF.FilePolarity,Positive*%
%FSLAX46Y46*%
G04 Gerber Fmt 4.6, Leading zero omitted, Abs format (unit mm)*
G04 Created by KiCad (PCBNEW (6.0.5)) date 2022-05-28 10:37:04*
%MOMM*%
%LPD*%
G01*
G04 APERTURE LIST*
G04 Aperture macros list*
%AMRoundRect*
0 Rectangle with rounded corners*
0 $1 Rounding radius*
0 $2 $3 $4 $5 $6 $7 $8 $9 X,Y pos of 4 corners*
0 Add a 4 corners polygon primitive as box body*
4,1,4,$2,$3,$4,$5,$6,$7,$8,$9,$2,$3,0*
0 Add four circle primitives for the rounded corners*
1,1,$1+$1,$2,$3*
1,1,$1+$1,$4,$5*
1,1,$1+$1,$6,$7*
1,1,$1+$1,$8,$9*
0 Add four rect primitives between the rounded corners*
20,1,$1+$1,$2,$3,$4,$5,0*
20,1,$1+$1,$4,$5,$6,$7,0*
20,1,$1+$1,$6,$7,$8,$9,0*
20,1,$1+$1,$8,$9,$2,$3,0*%
G04 Aperture macros list end*
%ADD10C,0.200000*%
%ADD11C,0.150000*%
%ADD12C,0.120000*%
%ADD13RoundRect,0.218750X-0.218750X-0.256250X0.218750X-0.256250X0.218750X0.256250X-0.218750X0.256250X0*%
%ADD14R,1.700000X1.700000*%
%ADD15O,1.700000X1.700000*%
%ADD16RoundRect,0.140000X0.140000X0.170000X-0.140000X0.170000X-0.140000X-0.170000X0.140000X-0.170000X0*%
%ADD17RoundRect,0.140000X0.170000X-0.140000X0.170000X0.140000X-0.170000X0.140000X-0.170000X-0.140000X0*%
%ADD18RoundRect,0.135000X0.185000X-0.135000X0.185000X0.135000X-0.185000X0.135000X-0.185000X-0.135000X0*%
%ADD19RoundRect,0.250000X0.475000X-0.250000X0.475000X0.250000X-0.475000X0.250000X-0.475000X-0.250000X0*%
%ADD20R,2.400000X0.740000*%
%ADD21RoundRect,0.140000X-0.170000X0.140000X-0.170000X-0.140000X0.170000X-0.140000X0.170000X0.140000X0*%
%ADD22RoundRect,0.218750X-0.256250X0.218750X-0.256250X-0.218750X0.256250X-0.218750X0.256250X0.218750X0*%
%ADD23RoundRect,0.135000X-0.185000X0.135000X-0.185000X-0.135000X0.185000X-0.135000X0.185000X0.135000X0*%
%ADD24RoundRect,0.135000X0.135000X0.185000X-0.135000X0.185000X-0.135000X-0.185000X0.135000X-0.185000X0*%
%ADD25R,0.800000X1.000000*%
%ADD26C,0.900000*%
%ADD27R,1.500000X0.700000*%
%ADD28RoundRect,0.140000X-0.140000X-0.170000X0.140000X-0.170000X0.140000X0.170000X-0.140000X0.170000X0*%
%ADD29RoundRect,0.250000X-0.250000X-0.475000X0.250000X-0.475000X0.250000X0.475000X-0.250000X0.475000X0*%
%ADD30C,2.200000*%
%ADD31RoundRect,0.225000X-0.225000X-0.250000X0.225000X-0.250000X0.225000X0.250000X-0.225000X0.250000X0*%
%ADD32R,1.500000X2.000000*%
%ADD33R,3.800000X2.000000*%
%ADD34RoundRect,0.075000X-0.662500X-0.075000X0.662500X-0.075000X0.662500X0.075000X-0.662500X0.075000X0*%
%ADD35RoundRect,0.075000X-0.075000X-0.662500X0.075000X-0.662500X0.075000X0.662500X-0.075000X0.662500X0*%
%ADD36R,1.200000X1.400000*%
%ADD37C,0.600000*%
%ADD38R,1.160000X0.600000*%
%ADD39R,1.160000X0.300000*%
%ADD40O,1.700000X0.900000*%
%ADD41O,2.000000X0.900000*%
G04 APERTURE END LIST*
D10*
X82792857Y-101435714D02*
X83707142Y-101435714D01*
X64514285Y-78328571D02*
X64571428Y-78157142D01*
X64628571Y-78100000D01*
X64742857Y-78042857D01*
X64914285Y-78042857D01*
X65028571Y-78100000D01*
X65085714Y-78157142D01*
X65142857Y-78271428D01*
X65142857Y-78728571D01*
X63942857Y-78728571D01*
X63942857Y-78328571D01*
X64000000Y-78214285D01*
X64057142Y-78157142D01*
X64171428Y-78100000D01*
X64285714Y-78100000D01*
X64400000Y-78157142D01*
X64457142Y-78214285D01*
X64514285Y-78328571D01*
X64514285Y-78728571D01*
X63942857Y-77300000D02*
X63942857Y-77071428D01*
X64000000Y-76957142D01*
X64114285Y-76842857D01*
X64342857Y-76785714D01*
X64742857Y-76785714D01*
X64971428Y-76842857D01*
X65085714Y-76957142D01*
X65142857Y-77071428D01*
X65142857Y-77300000D01*
X65085714Y-77414285D01*
X64971428Y-77528571D01*
X64742857Y-77585714D01*
X64342857Y-77585714D01*
X64114285Y-77528571D01*
X64000000Y-77414285D01*
X63942857Y-77300000D01*
X63942857Y-76042857D02*
X63942857Y-75814285D01*
X64000000Y-75700000D01*
X64114285Y-75585714D01*
X64342857Y-75528571D01*
X64742857Y-75528571D01*
X64971428Y-75585714D01*
X65085714Y-75700000D01*
X65142857Y-75814285D01*
X65142857Y-76042857D01*
X65085714Y-76157142D01*
X64971428Y-76271428D01*
X64742857Y-76328571D01*
X64342857Y-76328571D01*
X64114285Y-76271428D01*
X64000000Y-76157142D01*
X63942857Y-76042857D01*
X63942857Y-75185714D02*
X63942857Y-74500000D01*
X65142857Y-74842857D02*
X63942857Y-74842857D01*
D11*
X94773809Y-79071428D02*
X94011904Y-79071428D01*
X94202380Y-79261904D02*
X94011904Y-79071428D01*
X94202380Y-78880952D01*
X96535714Y-79452380D02*
X95964285Y-79452380D01*
X96250000Y-79452380D02*
X96250000Y-78452380D01*
X96154761Y-78595238D01*
X96059523Y-78690476D01*
X95964285Y-78738095D01*
D10*
X72473809Y-74489285D02*
X73426190Y-74489285D01*
D11*
X72400000Y-76335476D02*
X72400000Y-77097380D01*
X72590476Y-76906904D02*
X72400000Y-77097380D01*
X72209523Y-76906904D01*
X72685714Y-78707380D02*
X72114285Y-78707380D01*
X72400000Y-78707380D02*
X72400000Y-77707380D01*
X72304761Y-77850238D01*
X72209523Y-77945476D01*
X72114285Y-77993095D01*
D10*
X87803571Y-81555952D02*
X87982142Y-81615476D01*
X88279761Y-81615476D01*
X88398809Y-81555952D01*
X88458333Y-81496428D01*
X88517857Y-81377380D01*
X88517857Y-81258333D01*
X88458333Y-81139285D01*
X88398809Y-81079761D01*
X88279761Y-81020238D01*
X88041666Y-80960714D01*
X87922619Y-80901190D01*
X87863095Y-80841666D01*
X87803571Y-80722619D01*
X87803571Y-80603571D01*
X87863095Y-80484523D01*
X87922619Y-80425000D01*
X88041666Y-80365476D01*
X88339285Y-80365476D01*
X88517857Y-80425000D01*
X88934523Y-80365476D02*
X89232142Y-81615476D01*
X89470238Y-80722619D01*
X89708333Y-81615476D01*
X90005952Y-80365476D01*
X90482142Y-81615476D02*
X90482142Y-80365476D01*
X90779761Y-80365476D01*
X90958333Y-80425000D01*
X91077380Y-80544047D01*
X91136904Y-80663095D01*
X91196428Y-80901190D01*
X91196428Y-81079761D01*
X91136904Y-81317857D01*
X91077380Y-81436904D01*
X90958333Y-81555952D01*
X90779761Y-81615476D01*
X90482142Y-81615476D01*
X58742857Y-86265714D02*
X59657142Y-86265714D01*
X59200000Y-86722857D02*
X59200000Y-85808571D01*
X61592857Y-79792857D02*
X61592857Y-80764285D01*
X61650000Y-80878571D01*
X61707142Y-80935714D01*
X61821428Y-80992857D01*
X62050000Y-80992857D01*
X62164285Y-80935714D01*
X62221428Y-80878571D01*
X62278571Y-80764285D01*
X62278571Y-79792857D01*
X62792857Y-80935714D02*
X62964285Y-80992857D01*
X63250000Y-80992857D01*
X63364285Y-80935714D01*
X63421428Y-80878571D01*
X63478571Y-80764285D01*
X63478571Y-80650000D01*
X63421428Y-80535714D01*
X63364285Y-80478571D01*
X63250000Y-80421428D01*
X63021428Y-80364285D01*
X62907142Y-80307142D01*
X62850000Y-80250000D01*
X62792857Y-80135714D01*
X62792857Y-80021428D01*
X62850000Y-79907142D01*
X62907142Y-79850000D01*
X63021428Y-79792857D01*
X63307142Y-79792857D01*
X63478571Y-79850000D01*
X63992857Y-80364285D02*
X64392857Y-80364285D01*
X64564285Y-80992857D02*
X63992857Y-80992857D01*
X63992857Y-79792857D01*
X64564285Y-79792857D01*
X65764285Y-80992857D02*
X65364285Y-80421428D01*
X65078571Y-80992857D02*
X65078571Y-79792857D01*
X65535714Y-79792857D01*
X65650000Y-79850000D01*
X65707142Y-79907142D01*
X65764285Y-80021428D01*
X65764285Y-80192857D01*
X65707142Y-80307142D01*
X65650000Y-80364285D01*
X65535714Y-80421428D01*
X65078571Y-80421428D01*
D11*
X58035714Y-91496666D02*
X58511904Y-91496666D01*
X57940476Y-91782380D02*
X58273809Y-90782380D01*
X58607142Y-91782380D01*
X59464285Y-91782380D02*
X58892857Y-91782380D01*
X59178571Y-91782380D02*
X59178571Y-90782380D01*
X59083333Y-90925238D01*
X58988095Y-91020476D01*
X58892857Y-91068095D01*
D10*
X58742857Y-96415714D02*
X59657142Y-96415714D01*
X76655952Y-76515476D02*
X76655952Y-77527380D01*
X76715476Y-77646428D01*
X76775000Y-77705952D01*
X76894047Y-77765476D01*
X77132142Y-77765476D01*
X77251190Y-77705952D01*
X77310714Y-77646428D01*
X77370238Y-77527380D01*
X77370238Y-76515476D01*
X77905952Y-77408333D02*
X78501190Y-77408333D01*
X77786904Y-77765476D02*
X78203571Y-76515476D01*
X78620238Y-77765476D01*
X79751190Y-77765476D02*
X79334523Y-77170238D01*
X79036904Y-77765476D02*
X79036904Y-76515476D01*
X79513095Y-76515476D01*
X79632142Y-76575000D01*
X79691666Y-76634523D01*
X79751190Y-76753571D01*
X79751190Y-76932142D01*
X79691666Y-77051190D01*
X79632142Y-77110714D01*
X79513095Y-77170238D01*
X79036904Y-77170238D01*
X80108333Y-76515476D02*
X80822619Y-76515476D01*
X80465476Y-77765476D02*
X80465476Y-76515476D01*
D11*
X58035714Y-94046666D02*
X58511904Y-94046666D01*
X57940476Y-94332380D02*
X58273809Y-93332380D01*
X58607142Y-94332380D01*
X58845238Y-93332380D02*
X59511904Y-93332380D01*
X59083333Y-94332380D01*
X58035714Y-88996666D02*
X58511904Y-88996666D01*
X57940476Y-89282380D02*
X58273809Y-88282380D01*
X58607142Y-89282380D01*
X59130952Y-88282380D02*
X59226190Y-88282380D01*
X59321428Y-88330000D01*
X59369047Y-88377619D01*
X59416666Y-88472857D01*
X59464285Y-88663333D01*
X59464285Y-88901428D01*
X59416666Y-89091904D01*
X59369047Y-89187142D01*
X59321428Y-89234761D01*
X59226190Y-89282380D01*
X59130952Y-89282380D01*
X59035714Y-89234761D01*
X58988095Y-89187142D01*
X58940476Y-89091904D01*
X58892857Y-88901428D01*
X58892857Y-88663333D01*
X58940476Y-88472857D01*
X58988095Y-88377619D01*
X59035714Y-88330000D01*
X59130952Y-88282380D01*
D10*
X68428571Y-102242857D02*
X68428571Y-101042857D01*
X68942857Y-101157142D02*
X69000000Y-101100000D01*
X69114285Y-101042857D01*
X69400000Y-101042857D01*
X69514285Y-101100000D01*
X69571428Y-101157142D01*
X69628571Y-101271428D01*
X69628571Y-101385714D01*
X69571428Y-101557142D01*
X68885714Y-102242857D01*
X69628571Y-102242857D01*
X70828571Y-102128571D02*
X70771428Y-102185714D01*
X70600000Y-102242857D01*
X70485714Y-102242857D01*
X70314285Y-102185714D01*
X70200000Y-102071428D01*
X70142857Y-101957142D01*
X70085714Y-101728571D01*
X70085714Y-101557142D01*
X70142857Y-101328571D01*
X70200000Y-101214285D01*
X70314285Y-101100000D01*
X70485714Y-101042857D01*
X70600000Y-101042857D01*
X70771428Y-101100000D01*
X70828571Y-101157142D01*
X95785714Y-80192857D02*
X95785714Y-81164285D01*
X95842857Y-81278571D01*
X95900000Y-81335714D01*
X96014285Y-81392857D01*
X96242857Y-81392857D01*
X96357142Y-81335714D01*
X96414285Y-81278571D01*
X96471428Y-81164285D01*
X96471428Y-80192857D01*
X96985714Y-81335714D02*
X97157142Y-81392857D01*
X97442857Y-81392857D01*
X97557142Y-81335714D01*
X97614285Y-81278571D01*
X97671428Y-81164285D01*
X97671428Y-81050000D01*
X97614285Y-80935714D01*
X97557142Y-80878571D01*
X97442857Y-80821428D01*
X97214285Y-80764285D01*
X97100000Y-80707142D01*
X97042857Y-80650000D01*
X96985714Y-80535714D01*
X96985714Y-80421428D01*
X97042857Y-80307142D01*
X97100000Y-80250000D01*
X97214285Y-80192857D01*
X97500000Y-80192857D01*
X97671428Y-80250000D01*
X98585714Y-80764285D02*
X98757142Y-80821428D01*
X98814285Y-80878571D01*
X98871428Y-80992857D01*
X98871428Y-81164285D01*
X98814285Y-81278571D01*
X98757142Y-81335714D01*
X98642857Y-81392857D01*
X98185714Y-81392857D01*
X98185714Y-80192857D01*
X98585714Y-80192857D01*
X98700000Y-80250000D01*
X98757142Y-80307142D01*
X98814285Y-80421428D01*
X98814285Y-80535714D01*
X98757142Y-80650000D01*
X98700000Y-80707142D01*
X98585714Y-80764285D01*
X98185714Y-80764285D01*
D11*
X76642630Y-89915254D02*
X76996183Y-90268807D01*
X77043324Y-90363088D01*
X77043324Y-90457369D01*
X76996183Y-90551650D01*
X76949043Y-90598790D01*
X77609009Y-89938824D02*
X77373307Y-90174526D01*
X76878332Y-89679552D01*
X78009703Y-89443849D02*
X78009703Y-89490990D01*
X77962563Y-89585271D01*
X77915422Y-89632411D01*
X77821141Y-89679552D01*
X77726860Y-89679552D01*
X77656150Y-89655981D01*
X77538299Y-89585271D01*
X77467588Y-89514560D01*
X77396877Y-89396709D01*
X77373307Y-89325998D01*
X77373307Y-89231717D01*
X77420447Y-89137436D01*
X77467588Y-89090296D01*
X77561869Y-89043155D01*
X77609009Y-89043155D01*
X77915422Y-88642462D02*
X78268976Y-88996015D01*
X78316116Y-89090296D01*
X78316116Y-89184577D01*
X78268976Y-89278858D01*
X78221835Y-89325998D01*
X78881801Y-88666032D02*
X78646099Y-88901734D01*
X78151124Y-88406759D01*
X79282495Y-88171057D02*
X79282495Y-88218198D01*
X79235355Y-88312478D01*
X79188214Y-88359619D01*
X79093933Y-88406759D01*
X78999653Y-88406759D01*
X78928942Y-88383189D01*
X78811091Y-88312478D01*
X78740380Y-88241768D01*
X78669669Y-88123917D01*
X78646099Y-88053206D01*
X78646099Y-87958925D01*
X78693240Y-87864644D01*
X78740380Y-87817504D01*
X78834661Y-87770363D01*
X78881801Y-87770363D01*
X79188214Y-87369669D02*
X79541768Y-87723223D01*
X79588908Y-87817504D01*
X79588908Y-87911785D01*
X79541768Y-88006066D01*
X79494627Y-88053206D01*
X80154594Y-87393240D02*
X79918891Y-87628942D01*
X79423917Y-87133967D01*
X80555287Y-86898265D02*
X80555287Y-86945405D01*
X80508147Y-87039686D01*
X80461007Y-87086827D01*
X80366726Y-87133967D01*
X80272445Y-87133967D01*
X80201734Y-87110397D01*
X80083883Y-87039686D01*
X80013172Y-86968976D01*
X79942462Y-86851124D01*
X79918891Y-86780414D01*
X79918891Y-86686133D01*
X79966032Y-86591852D01*
X80013172Y-86544712D01*
X80107453Y-86497571D01*
X80154594Y-86497571D01*
X80461007Y-86096877D02*
X80814560Y-86450431D01*
X80861700Y-86544712D01*
X80861700Y-86638992D01*
X80814560Y-86733273D01*
X80767420Y-86780414D01*
X81427386Y-86120447D02*
X81191684Y-86356150D01*
X80696709Y-85861175D01*
X81828080Y-85625473D02*
X81828080Y-85672613D01*
X81780939Y-85766894D01*
X81733799Y-85814034D01*
X81639518Y-85861175D01*
X81545237Y-85861175D01*
X81474526Y-85837605D01*
X81356675Y-85766894D01*
X81285965Y-85696183D01*
X81215254Y-85578332D01*
X81191684Y-85507622D01*
X81191684Y-85413341D01*
X81238824Y-85319060D01*
X81285965Y-85271919D01*
X81380245Y-85224779D01*
X81427386Y-85224779D01*
%TO.C,C5*%
X81553333Y-95057142D02*
X81505714Y-95104761D01*
X81362857Y-95152380D01*
X81267619Y-95152380D01*
X81124761Y-95104761D01*
X81029523Y-95009523D01*
X80981904Y-94914285D01*
X80934285Y-94723809D01*
X80934285Y-94580952D01*
X80981904Y-94390476D01*
X81029523Y-94295238D01*
X81124761Y-94200000D01*
X81267619Y-94152380D01*
X81362857Y-94152380D01*
X81505714Y-94200000D01*
X81553333Y-94247619D01*
X82458095Y-94152380D02*
X81981904Y-94152380D01*
X81934285Y-94628571D01*
X81981904Y-94580952D01*
X82077142Y-94533333D01*
X82315238Y-94533333D01*
X82410476Y-94580952D01*
X82458095Y-94628571D01*
X82505714Y-94723809D01*
X82505714Y-94961904D01*
X82458095Y-95057142D01*
X82410476Y-95104761D01*
X82315238Y-95152380D01*
X82077142Y-95152380D01*
X81981904Y-95104761D01*
X81934285Y-95057142D01*
%TO.C,C4*%
X72333333Y-82007142D02*
X72285714Y-82054761D01*
X72142857Y-82102380D01*
X72047619Y-82102380D01*
X71904761Y-82054761D01*
X71809523Y-81959523D01*
X71761904Y-81864285D01*
X71714285Y-81673809D01*
X71714285Y-81530952D01*
X71761904Y-81340476D01*
X71809523Y-81245238D01*
X71904761Y-81150000D01*
X72047619Y-81102380D01*
X72142857Y-81102380D01*
X72285714Y-81150000D01*
X72333333Y-81197619D01*
X73190476Y-81435714D02*
X73190476Y-82102380D01*
X72952380Y-81054761D02*
X72714285Y-81769047D01*
X73333333Y-81769047D01*
%TO.C,R2*%
X76383333Y-79002380D02*
X76050000Y-78526190D01*
X75811904Y-79002380D02*
X75811904Y-78002380D01*
X76192857Y-78002380D01*
X76288095Y-78050000D01*
X76335714Y-78097619D01*
X76383333Y-78192857D01*
X76383333Y-78335714D01*
X76335714Y-78430952D01*
X76288095Y-78478571D01*
X76192857Y-78526190D01*
X75811904Y-78526190D01*
X76764285Y-78097619D02*
X76811904Y-78050000D01*
X76907142Y-78002380D01*
X77145238Y-78002380D01*
X77240476Y-78050000D01*
X77288095Y-78097619D01*
X77335714Y-78192857D01*
X77335714Y-78288095D01*
X77288095Y-78430952D01*
X76716666Y-79002380D01*
X77335714Y-79002380D01*
%TO.C,C2*%
X92033333Y-99557142D02*
X91985714Y-99604761D01*
X91842857Y-99652380D01*
X91747619Y-99652380D01*
X91604761Y-99604761D01*
X91509523Y-99509523D01*
X91461904Y-99414285D01*
X91414285Y-99223809D01*
X91414285Y-99080952D01*
X91461904Y-98890476D01*
X91509523Y-98795238D01*
X91604761Y-98700000D01*
X91747619Y-98652380D01*
X91842857Y-98652380D01*
X91985714Y-98700000D01*
X92033333Y-98747619D01*
X92414285Y-98747619D02*
X92461904Y-98700000D01*
X92557142Y-98652380D01*
X92795238Y-98652380D01*
X92890476Y-98700000D01*
X92938095Y-98747619D01*
X92985714Y-98842857D01*
X92985714Y-98938095D01*
X92938095Y-99080952D01*
X92366666Y-99652380D01*
X92985714Y-99652380D01*
%TO.C,C6*%
X84783333Y-83757142D02*
X84735714Y-83804761D01*
X84592857Y-83852380D01*
X84497619Y-83852380D01*
X84354761Y-83804761D01*
X84259523Y-83709523D01*
X84211904Y-83614285D01*
X84164285Y-83423809D01*
X84164285Y-83280952D01*
X84211904Y-83090476D01*
X84259523Y-82995238D01*
X84354761Y-82900000D01*
X84497619Y-82852380D01*
X84592857Y-82852380D01*
X84735714Y-82900000D01*
X84783333Y-82947619D01*
X85640476Y-82852380D02*
X85450000Y-82852380D01*
X85354761Y-82900000D01*
X85307142Y-82947619D01*
X85211904Y-83090476D01*
X85164285Y-83280952D01*
X85164285Y-83661904D01*
X85211904Y-83757142D01*
X85259523Y-83804761D01*
X85354761Y-83852380D01*
X85545238Y-83852380D01*
X85640476Y-83804761D01*
X85688095Y-83757142D01*
X85735714Y-83661904D01*
X85735714Y-83423809D01*
X85688095Y-83328571D01*
X85640476Y-83280952D01*
X85545238Y-83233333D01*
X85354761Y-83233333D01*
X85259523Y-83280952D01*
X85211904Y-83328571D01*
X85164285Y-83423809D01*
%TO.C,FB1*%
X72916666Y-94678571D02*
X72583333Y-94678571D01*
X72583333Y-95202380D02*
X72583333Y-94202380D01*
X73059523Y-94202380D01*
X73773809Y-94678571D02*
X73916666Y-94726190D01*
X73964285Y-94773809D01*
X74011904Y-94869047D01*
X74011904Y-95011904D01*
X73964285Y-95107142D01*
X73916666Y-95154761D01*
X73821428Y-95202380D01*
X73440476Y-95202380D01*
X73440476Y-94202380D01*
X73773809Y-94202380D01*
X73869047Y-94250000D01*
X73916666Y-94297619D01*
X73964285Y-94392857D01*
X73964285Y-94488095D01*
X73916666Y-94583333D01*
X73869047Y-94630952D01*
X73773809Y-94678571D01*
X73440476Y-94678571D01*
X74964285Y-95202380D02*
X74392857Y-95202380D01*
X74678571Y-95202380D02*
X74678571Y-94202380D01*
X74583333Y-94345238D01*
X74488095Y-94440476D01*
X74392857Y-94488095D01*
%TO.C,R3*%
X89783333Y-84502380D02*
X89450000Y-84026190D01*
X89211904Y-84502380D02*
X89211904Y-83502380D01*
X89592857Y-83502380D01*
X89688095Y-83550000D01*
X89735714Y-83597619D01*
X89783333Y-83692857D01*
X89783333Y-83835714D01*
X89735714Y-83930952D01*
X89688095Y-83978571D01*
X89592857Y-84026190D01*
X89211904Y-84026190D01*
X90116666Y-83502380D02*
X90735714Y-83502380D01*
X90402380Y-83883333D01*
X90545238Y-83883333D01*
X90640476Y-83930952D01*
X90688095Y-83978571D01*
X90735714Y-84073809D01*
X90735714Y-84311904D01*
X90688095Y-84407142D01*
X90640476Y-84454761D01*
X90545238Y-84502380D01*
X90259523Y-84502380D01*
X90164285Y-84454761D01*
X90116666Y-84407142D01*
%TO.C,R5*%
X72283333Y-98652380D02*
X71950000Y-98176190D01*
X71711904Y-98652380D02*
X71711904Y-97652380D01*
X72092857Y-97652380D01*
X72188095Y-97700000D01*
X72235714Y-97747619D01*
X72283333Y-97842857D01*
X72283333Y-97985714D01*
X72235714Y-98080952D01*
X72188095Y-98128571D01*
X72092857Y-98176190D01*
X71711904Y-98176190D01*
X73188095Y-97652380D02*
X72711904Y-97652380D01*
X72664285Y-98128571D01*
X72711904Y-98080952D01*
X72807142Y-98033333D01*
X73045238Y-98033333D01*
X73140476Y-98080952D01*
X73188095Y-98128571D01*
X73235714Y-98223809D01*
X73235714Y-98461904D01*
X73188095Y-98557142D01*
X73140476Y-98604761D01*
X73045238Y-98652380D01*
X72807142Y-98652380D01*
X72711904Y-98604761D01*
X72664285Y-98557142D01*
%TO.C,R4*%
X92123333Y-83002380D02*
X91790000Y-82526190D01*
X91551904Y-83002380D02*
X91551904Y-82002380D01*
X91932857Y-82002380D01*
X92028095Y-82050000D01*
X92075714Y-82097619D01*
X92123333Y-82192857D01*
X92123333Y-82335714D01*
X92075714Y-82430952D01*
X92028095Y-82478571D01*
X91932857Y-82526190D01*
X91551904Y-82526190D01*
X92980476Y-82335714D02*
X92980476Y-83002380D01*
X92742380Y-81954761D02*
X92504285Y-82669047D01*
X93123333Y-82669047D01*
%TO.C,C8*%
X70483333Y-89287142D02*
X70435714Y-89334761D01*
X70292857Y-89382380D01*
X70197619Y-89382380D01*
X70054761Y-89334761D01*
X69959523Y-89239523D01*
X69911904Y-89144285D01*
X69864285Y-88953809D01*
X69864285Y-88810952D01*
X69911904Y-88620476D01*
X69959523Y-88525238D01*
X70054761Y-88430000D01*
X70197619Y-88382380D01*
X70292857Y-88382380D01*
X70435714Y-88430000D01*
X70483333Y-88477619D01*
X71054761Y-88810952D02*
X70959523Y-88763333D01*
X70911904Y-88715714D01*
X70864285Y-88620476D01*
X70864285Y-88572857D01*
X70911904Y-88477619D01*
X70959523Y-88430000D01*
X71054761Y-88382380D01*
X71245238Y-88382380D01*
X71340476Y-88430000D01*
X71388095Y-88477619D01*
X71435714Y-88572857D01*
X71435714Y-88620476D01*
X71388095Y-88715714D01*
X71340476Y-88763333D01*
X71245238Y-88810952D01*
X71054761Y-88810952D01*
X70959523Y-88858571D01*
X70911904Y-88906190D01*
X70864285Y-89001428D01*
X70864285Y-89191904D01*
X70911904Y-89287142D01*
X70959523Y-89334761D01*
X71054761Y-89382380D01*
X71245238Y-89382380D01*
X71340476Y-89334761D01*
X71388095Y-89287142D01*
X71435714Y-89191904D01*
X71435714Y-89001428D01*
X71388095Y-88906190D01*
X71340476Y-88858571D01*
X71245238Y-88810952D01*
%TO.C,R8*%
X58833333Y-82512380D02*
X58500000Y-82036190D01*
X58261904Y-82512380D02*
X58261904Y-81512380D01*
X58642857Y-81512380D01*
X58738095Y-81560000D01*
X58785714Y-81607619D01*
X58833333Y-81702857D01*
X58833333Y-81845714D01*
X58785714Y-81940952D01*
X58738095Y-81988571D01*
X58642857Y-82036190D01*
X58261904Y-82036190D01*
X59404761Y-81940952D02*
X59309523Y-81893333D01*
X59261904Y-81845714D01*
X59214285Y-81750476D01*
X59214285Y-81702857D01*
X59261904Y-81607619D01*
X59309523Y-81560000D01*
X59404761Y-81512380D01*
X59595238Y-81512380D01*
X59690476Y-81560000D01*
X59738095Y-81607619D01*
X59785714Y-81702857D01*
X59785714Y-81750476D01*
X59738095Y-81845714D01*
X59690476Y-81893333D01*
X59595238Y-81940952D01*
X59404761Y-81940952D01*
X59309523Y-81988571D01*
X59261904Y-82036190D01*
X59214285Y-82131428D01*
X59214285Y-82321904D01*
X59261904Y-82417142D01*
X59309523Y-82464761D01*
X59404761Y-82512380D01*
X59595238Y-82512380D01*
X59690476Y-82464761D01*
X59738095Y-82417142D01*
X59785714Y-82321904D01*
X59785714Y-82131428D01*
X59738095Y-82036190D01*
X59690476Y-81988571D01*
X59595238Y-81940952D01*
%TO.C,R6*%
X79673333Y-98552380D02*
X79340000Y-98076190D01*
X79101904Y-98552380D02*
X79101904Y-97552380D01*
X79482857Y-97552380D01*
X79578095Y-97600000D01*
X79625714Y-97647619D01*
X79673333Y-97742857D01*
X79673333Y-97885714D01*
X79625714Y-97980952D01*
X79578095Y-98028571D01*
X79482857Y-98076190D01*
X79101904Y-98076190D01*
X80530476Y-97552380D02*
X80340000Y-97552380D01*
X80244761Y-97600000D01*
X80197142Y-97647619D01*
X80101904Y-97790476D01*
X80054285Y-97980952D01*
X80054285Y-98361904D01*
X80101904Y-98457142D01*
X80149523Y-98504761D01*
X80244761Y-98552380D01*
X80435238Y-98552380D01*
X80530476Y-98504761D01*
X80578095Y-98457142D01*
X80625714Y-98361904D01*
X80625714Y-98123809D01*
X80578095Y-98028571D01*
X80530476Y-97980952D01*
X80435238Y-97933333D01*
X80244761Y-97933333D01*
X80149523Y-97980952D01*
X80101904Y-98028571D01*
X80054285Y-98123809D01*
%TO.C,R7*%
X89433333Y-88752380D02*
X89100000Y-88276190D01*
X88861904Y-88752380D02*
X88861904Y-87752380D01*
X89242857Y-87752380D01*
X89338095Y-87800000D01*
X89385714Y-87847619D01*
X89433333Y-87942857D01*
X89433333Y-88085714D01*
X89385714Y-88180952D01*
X89338095Y-88228571D01*
X89242857Y-88276190D01*
X88861904Y-88276190D01*
X89766666Y-87752380D02*
X90433333Y-87752380D01*
X90004761Y-88752380D01*
%TO.C,C7*%
X74333333Y-82007142D02*
X74285714Y-82054761D01*
X74142857Y-82102380D01*
X74047619Y-82102380D01*
X73904761Y-82054761D01*
X73809523Y-81959523D01*
X73761904Y-81864285D01*
X73714285Y-81673809D01*
X73714285Y-81530952D01*
X73761904Y-81340476D01*
X73809523Y-81245238D01*
X73904761Y-81150000D01*
X74047619Y-81102380D01*
X74142857Y-81102380D01*
X74285714Y-81150000D01*
X74333333Y-81197619D01*
X74666666Y-81102380D02*
X75333333Y-81102380D01*
X74904761Y-82102380D01*
%TO.C,C1*%
X87183333Y-90027142D02*
X87135714Y-90074761D01*
X86992857Y-90122380D01*
X86897619Y-90122380D01*
X86754761Y-90074761D01*
X86659523Y-89979523D01*
X86611904Y-89884285D01*
X86564285Y-89693809D01*
X86564285Y-89550952D01*
X86611904Y-89360476D01*
X86659523Y-89265238D01*
X86754761Y-89170000D01*
X86897619Y-89122380D01*
X86992857Y-89122380D01*
X87135714Y-89170000D01*
X87183333Y-89217619D01*
X88135714Y-90122380D02*
X87564285Y-90122380D01*
X87850000Y-90122380D02*
X87850000Y-89122380D01*
X87754761Y-89265238D01*
X87659523Y-89360476D01*
X87564285Y-89408095D01*
%TO.C,C12*%
X69807142Y-83157142D02*
X69759523Y-83204761D01*
X69616666Y-83252380D01*
X69521428Y-83252380D01*
X69378571Y-83204761D01*
X69283333Y-83109523D01*
X69235714Y-83014285D01*
X69188095Y-82823809D01*
X69188095Y-82680952D01*
X69235714Y-82490476D01*
X69283333Y-82395238D01*
X69378571Y-82300000D01*
X69521428Y-82252380D01*
X69616666Y-82252380D01*
X69759523Y-82300000D01*
X69807142Y-82347619D01*
X70759523Y-83252380D02*
X70188095Y-83252380D01*
X70473809Y-83252380D02*
X70473809Y-82252380D01*
X70378571Y-82395238D01*
X70283333Y-82490476D01*
X70188095Y-82538095D01*
X71140476Y-82347619D02*
X71188095Y-82300000D01*
X71283333Y-82252380D01*
X71521428Y-82252380D01*
X71616666Y-82300000D01*
X71664285Y-82347619D01*
X71711904Y-82442857D01*
X71711904Y-82538095D01*
X71664285Y-82680952D01*
X71092857Y-83252380D01*
X71711904Y-83252380D01*
%TO.C,C3*%
X78833333Y-80357142D02*
X78785714Y-80404761D01*
X78642857Y-80452380D01*
X78547619Y-80452380D01*
X78404761Y-80404761D01*
X78309523Y-80309523D01*
X78261904Y-80214285D01*
X78214285Y-80023809D01*
X78214285Y-79880952D01*
X78261904Y-79690476D01*
X78309523Y-79595238D01*
X78404761Y-79500000D01*
X78547619Y-79452380D01*
X78642857Y-79452380D01*
X78785714Y-79500000D01*
X78833333Y-79547619D01*
X79166666Y-79452380D02*
X79785714Y-79452380D01*
X79452380Y-79833333D01*
X79595238Y-79833333D01*
X79690476Y-79880952D01*
X79738095Y-79928571D01*
X79785714Y-80023809D01*
X79785714Y-80261904D01*
X79738095Y-80357142D01*
X79690476Y-80404761D01*
X79595238Y-80452380D01*
X79309523Y-80452380D01*
X79214285Y-80404761D01*
X79166666Y-80357142D01*
%TO.C,U1*%
X86738095Y-101652380D02*
X86738095Y-102461904D01*
X86785714Y-102557142D01*
X86833333Y-102604761D01*
X86928571Y-102652380D01*
X87119047Y-102652380D01*
X87214285Y-102604761D01*
X87261904Y-102557142D01*
X87309523Y-102461904D01*
X87309523Y-101652380D01*
X88309523Y-102652380D02*
X87738095Y-102652380D01*
X88023809Y-102652380D02*
X88023809Y-101652380D01*
X87928571Y-101795238D01*
X87833333Y-101890476D01*
X87738095Y-101938095D01*
%TO.C,U2*%
X78238095Y-81102380D02*
X78238095Y-81911904D01*
X78285714Y-82007142D01*
X78333333Y-82054761D01*
X78428571Y-82102380D01*
X78619047Y-82102380D01*
X78714285Y-82054761D01*
X78761904Y-82007142D01*
X78809523Y-81911904D01*
X78809523Y-81102380D01*
X79238095Y-81197619D02*
X79285714Y-81150000D01*
X79380952Y-81102380D01*
X79619047Y-81102380D01*
X79714285Y-81150000D01*
X79761904Y-81197619D01*
X79809523Y-81292857D01*
X79809523Y-81388095D01*
X79761904Y-81530952D01*
X79190476Y-82102380D01*
X79809523Y-82102380D01*
%TO.C,C10*%
X69477142Y-93457142D02*
X69429523Y-93504761D01*
X69286666Y-93552380D01*
X69191428Y-93552380D01*
X69048571Y-93504761D01*
X68953333Y-93409523D01*
X68905714Y-93314285D01*
X68858095Y-93123809D01*
X68858095Y-92980952D01*
X68905714Y-92790476D01*
X68953333Y-92695238D01*
X69048571Y-92600000D01*
X69191428Y-92552380D01*
X69286666Y-92552380D01*
X69429523Y-92600000D01*
X69477142Y-92647619D01*
X70429523Y-93552380D02*
X69858095Y-93552380D01*
X70143809Y-93552380D02*
X70143809Y-92552380D01*
X70048571Y-92695238D01*
X69953333Y-92790476D01*
X69858095Y-92838095D01*
X71048571Y-92552380D02*
X71143809Y-92552380D01*
X71239047Y-92600000D01*
X71286666Y-92647619D01*
X71334285Y-92742857D01*
X71381904Y-92933333D01*
X71381904Y-93171428D01*
X71334285Y-93361904D01*
X71286666Y-93457142D01*
X71239047Y-93504761D01*
X71143809Y-93552380D01*
X71048571Y-93552380D01*
X70953333Y-93504761D01*
X70905714Y-93457142D01*
X70858095Y-93361904D01*
X70810476Y-93171428D01*
X70810476Y-92933333D01*
X70858095Y-92742857D01*
X70905714Y-92647619D01*
X70953333Y-92600000D01*
X71048571Y-92552380D01*
%TO.C,D1*%
X97161904Y-98052380D02*
X97161904Y-97052380D01*
X97400000Y-97052380D01*
X97542857Y-97100000D01*
X97638095Y-97195238D01*
X97685714Y-97290476D01*
X97733333Y-97480952D01*
X97733333Y-97623809D01*
X97685714Y-97814285D01*
X97638095Y-97909523D01*
X97542857Y-98004761D01*
X97400000Y-98052380D01*
X97161904Y-98052380D01*
X98685714Y-98052380D02*
X98114285Y-98052380D01*
X98400000Y-98052380D02*
X98400000Y-97052380D01*
X98304761Y-97195238D01*
X98209523Y-97290476D01*
X98114285Y-97338095D01*
%TO.C,C13*%
X65757142Y-89477142D02*
X65709523Y-89524761D01*
X65566666Y-89572380D01*
X65471428Y-89572380D01*
X65328571Y-89524761D01*
X65233333Y-89429523D01*
X65185714Y-89334285D01*
X65138095Y-89143809D01*
X65138095Y-89000952D01*
X65185714Y-88810476D01*
X65233333Y-88715238D01*
X65328571Y-88620000D01*
X65471428Y-88572380D01*
X65566666Y-88572380D01*
X65709523Y-88620000D01*
X65757142Y-88667619D01*
X66709523Y-89572380D02*
X66138095Y-89572380D01*
X66423809Y-89572380D02*
X66423809Y-88572380D01*
X66328571Y-88715238D01*
X66233333Y-88810476D01*
X66138095Y-88858095D01*
X67042857Y-88572380D02*
X67661904Y-88572380D01*
X67328571Y-88953333D01*
X67471428Y-88953333D01*
X67566666Y-89000952D01*
X67614285Y-89048571D01*
X67661904Y-89143809D01*
X67661904Y-89381904D01*
X67614285Y-89477142D01*
X67566666Y-89524761D01*
X67471428Y-89572380D01*
X67185714Y-89572380D01*
X67090476Y-89524761D01*
X67042857Y-89477142D01*
%TO.C,C11*%
X76107142Y-95007142D02*
X76059523Y-95054761D01*
X75916666Y-95102380D01*
X75821428Y-95102380D01*
X75678571Y-95054761D01*
X75583333Y-94959523D01*
X75535714Y-94864285D01*
X75488095Y-94673809D01*
X75488095Y-94530952D01*
X75535714Y-94340476D01*
X75583333Y-94245238D01*
X75678571Y-94150000D01*
X75821428Y-94102380D01*
X75916666Y-94102380D01*
X76059523Y-94150000D01*
X76107142Y-94197619D01*
X77059523Y-95102380D02*
X76488095Y-95102380D01*
X76773809Y-95102380D02*
X76773809Y-94102380D01*
X76678571Y-94245238D01*
X76583333Y-94340476D01*
X76488095Y-94388095D01*
X78011904Y-95102380D02*
X77440476Y-95102380D01*
X77726190Y-95102380D02*
X77726190Y-94102380D01*
X77630952Y-94245238D01*
X77535714Y-94340476D01*
X77440476Y-94388095D01*
%TO.C,C9*%
X69933333Y-91837142D02*
X69885714Y-91884761D01*
X69742857Y-91932380D01*
X69647619Y-91932380D01*
X69504761Y-91884761D01*
X69409523Y-91789523D01*
X69361904Y-91694285D01*
X69314285Y-91503809D01*
X69314285Y-91360952D01*
X69361904Y-91170476D01*
X69409523Y-91075238D01*
X69504761Y-90980000D01*
X69647619Y-90932380D01*
X69742857Y-90932380D01*
X69885714Y-90980000D01*
X69933333Y-91027619D01*
X70409523Y-91932380D02*
X70600000Y-91932380D01*
X70695238Y-91884761D01*
X70742857Y-91837142D01*
X70838095Y-91694285D01*
X70885714Y-91503809D01*
X70885714Y-91122857D01*
X70838095Y-91027619D01*
X70790476Y-90980000D01*
X70695238Y-90932380D01*
X70504761Y-90932380D01*
X70409523Y-90980000D01*
X70361904Y-91027619D01*
X70314285Y-91122857D01*
X70314285Y-91360952D01*
X70361904Y-91456190D01*
X70409523Y-91503809D01*
X70504761Y-91551428D01*
X70695238Y-91551428D01*
X70790476Y-91503809D01*
X70838095Y-91456190D01*
X70885714Y-91360952D01*
%TO.C,R1*%
X95383333Y-93602380D02*
X95050000Y-93126190D01*
X94811904Y-93602380D02*
X94811904Y-92602380D01*
X95192857Y-92602380D01*
X95288095Y-92650000D01*
X95335714Y-92697619D01*
X95383333Y-92792857D01*
X95383333Y-92935714D01*
X95335714Y-93030952D01*
X95288095Y-93078571D01*
X95192857Y-93126190D01*
X94811904Y-93126190D01*
X96335714Y-93602380D02*
X95764285Y-93602380D01*
X96050000Y-93602380D02*
X96050000Y-92602380D01*
X95954761Y-92745238D01*
X95859523Y-92840476D01*
X95764285Y-92888095D01*
%TO.C,Y1*%
X66573809Y-83376190D02*
X66573809Y-83852380D01*
X66240476Y-82852380D02*
X66573809Y-83376190D01*
X66907142Y-82852380D01*
X67764285Y-83852380D02*
X67192857Y-83852380D01*
X67478571Y-83852380D02*
X67478571Y-82852380D01*
X67383333Y-82995238D01*
X67288095Y-83090476D01*
X67192857Y-83138095D01*
D12*
%TO.C,D2*%
X63650000Y-81865000D02*
X61365000Y-81865000D01*
X61365000Y-83335000D02*
X63650000Y-83335000D01*
X61365000Y-81865000D02*
X61365000Y-83335000D01*
%TO.C,J5*%
X61625000Y-84950000D02*
X62955000Y-84950000D01*
X62955000Y-84950000D02*
X62955000Y-86280000D01*
X60295000Y-97770000D02*
X62955000Y-97770000D01*
X60295000Y-87550000D02*
X62955000Y-87550000D01*
X60295000Y-87550000D02*
X60295000Y-97770000D01*
X62955000Y-87550000D02*
X62955000Y-97770000D01*
%TO.C,C5*%
X81807836Y-93810000D02*
X81592164Y-93810000D01*
X81807836Y-93090000D02*
X81592164Y-93090000D01*
%TO.C,C4*%
X72890000Y-83657836D02*
X72890000Y-83442164D01*
X73610000Y-83657836D02*
X73610000Y-83442164D01*
%TO.C,R2*%
X75430000Y-77503641D02*
X75430000Y-77196359D01*
X74670000Y-77503641D02*
X74670000Y-77196359D01*
%TO.C,C2*%
X91515000Y-96811252D02*
X91515000Y-96288748D01*
X92985000Y-96811252D02*
X92985000Y-96288748D01*
%TO.C,J3*%
X91015000Y-73280000D02*
X91015000Y-73215000D01*
X91015000Y-79685000D02*
X91015000Y-79620000D01*
X91015000Y-73215000D02*
X87485000Y-73215000D01*
X87485000Y-73280000D02*
X87485000Y-73215000D01*
X91015000Y-79685000D02*
X87485000Y-79685000D01*
X92340000Y-79620000D02*
X91015000Y-79620000D01*
X87485000Y-79685000D02*
X87485000Y-79620000D01*
%TO.C,G\u002A\u002A\u002A*%
G36*
X69239641Y-95557482D02*
G01*
X69244258Y-95561301D01*
X69250400Y-95566971D01*
X69257499Y-95573924D01*
X69264987Y-95581591D01*
X69272297Y-95589405D01*
X69278862Y-95596796D01*
X69283949Y-95602984D01*
X69296402Y-95619932D01*
X69309681Y-95639569D01*
X69323148Y-95660862D01*
X69336166Y-95682778D01*
X69348096Y-95704285D01*
X69356190Y-95720015D01*
X69365499Y-95740373D01*
X69373339Y-95760589D01*
X69379348Y-95779645D01*
X69382930Y-95795183D01*
X69385026Y-95808264D01*
X69387262Y-95824718D01*
X69389579Y-95843921D01*
X69391916Y-95865249D01*
X69394213Y-95888080D01*
X69396410Y-95911790D01*
X69398447Y-95935756D01*
X69400263Y-95959355D01*
X69401797Y-95981964D01*
X69402948Y-96002118D01*
X69403753Y-96017763D01*
X69404647Y-96034785D01*
X69405556Y-96051803D01*
X69406407Y-96067439D01*
X69407058Y-96079124D01*
X69407830Y-96094990D01*
X69408566Y-96114430D01*
X69409260Y-96137019D01*
X69409905Y-96162331D01*
X69410497Y-96189941D01*
X69411030Y-96219421D01*
X69411499Y-96250348D01*
X69411898Y-96282294D01*
X69412221Y-96314835D01*
X69412464Y-96347544D01*
X69412620Y-96379995D01*
X69412684Y-96411764D01*
X69412651Y-96442423D01*
X69412515Y-96471549D01*
X69412361Y-96490156D01*
X69411867Y-96540753D01*
X69411418Y-96587539D01*
X69411015Y-96630704D01*
X69410657Y-96670438D01*
X69410344Y-96706931D01*
X69410074Y-96740371D01*
X69409847Y-96770949D01*
X69409663Y-96798854D01*
X69409522Y-96824276D01*
X69409422Y-96847405D01*
X69409363Y-96868429D01*
X69409344Y-96887539D01*
X69409366Y-96904924D01*
X69409427Y-96920774D01*
X69409527Y-96935279D01*
X69409665Y-96948627D01*
X69409841Y-96961009D01*
X69410054Y-96972614D01*
X69410304Y-96983632D01*
X69410590Y-96994252D01*
X69410863Y-97003197D01*
X69411759Y-97029586D01*
X69412734Y-97055724D01*
X69413767Y-97081204D01*
X69414839Y-97105616D01*
X69415930Y-97128555D01*
X69417018Y-97149611D01*
X69418083Y-97168377D01*
X69419106Y-97184445D01*
X69420065Y-97197407D01*
X69420941Y-97206855D01*
X69421095Y-97208213D01*
X69421803Y-97214716D01*
X69422782Y-97224498D01*
X69423966Y-97236851D01*
X69425289Y-97251067D01*
X69426684Y-97266440D01*
X69428084Y-97282260D01*
X69428168Y-97283219D01*
X69429490Y-97298124D01*
X69430747Y-97311793D01*
X69431886Y-97323702D01*
X69432857Y-97333325D01*
X69433606Y-97340137D01*
X69434083Y-97343612D01*
X69434150Y-97343888D01*
X69434639Y-97346581D01*
X69435493Y-97352641D01*
X69436634Y-97361456D01*
X69437984Y-97372419D01*
X69439466Y-97384920D01*
X69440155Y-97390892D01*
X69441745Y-97404535D01*
X69443307Y-97417520D01*
X69444745Y-97429083D01*
X69445964Y-97438458D01*
X69446868Y-97444878D01*
X69447084Y-97446231D01*
X69450787Y-97468107D01*
X69453973Y-97486538D01*
X69456742Y-97502032D01*
X69459194Y-97515097D01*
X69461429Y-97526240D01*
X69463547Y-97535969D01*
X69465646Y-97544792D01*
X69467829Y-97553217D01*
X69468927Y-97557240D01*
X69473625Y-97573965D01*
X69478085Y-97589380D01*
X69482158Y-97603004D01*
X69485696Y-97614355D01*
X69488553Y-97622951D01*
X69490579Y-97628310D01*
X69491014Y-97629236D01*
X69492595Y-97632897D01*
X69495019Y-97639214D01*
X69497855Y-97647051D01*
X69498971Y-97650248D01*
X69514518Y-97692579D01*
X69531505Y-97733855D01*
X69549708Y-97773660D01*
X69568906Y-97811577D01*
X69588876Y-97847191D01*
X69609396Y-97880084D01*
X69630243Y-97909842D01*
X69651195Y-97936048D01*
X69652696Y-97937780D01*
X69658148Y-97943535D01*
X69666165Y-97951325D01*
X69676201Y-97960670D01*
X69687710Y-97971089D01*
X69700147Y-97982102D01*
X69712966Y-97993227D01*
X69725622Y-98003985D01*
X69737570Y-98013894D01*
X69748263Y-98022474D01*
X69752761Y-98025957D01*
X69779713Y-98045553D01*
X69806517Y-98063177D01*
X69832772Y-98078617D01*
X69858075Y-98091661D01*
X69882024Y-98102097D01*
X69904217Y-98109712D01*
X69918113Y-98113174D01*
X69930862Y-98115921D01*
X69941021Y-98118479D01*
X69949958Y-98121242D01*
X69959041Y-98124604D01*
X69962117Y-98125836D01*
X69979202Y-98134469D01*
X69993408Y-98145126D01*
X70004584Y-98157451D01*
X70012581Y-98171086D01*
X70017246Y-98185676D01*
X70018431Y-98200863D01*
X70015985Y-98216290D01*
X70009757Y-98231601D01*
X70007987Y-98234714D01*
X69999618Y-98247549D01*
X69989668Y-98260935D01*
X69978791Y-98274130D01*
X69967644Y-98286393D01*
X69956881Y-98296982D01*
X69947158Y-98305155D01*
X69943454Y-98307746D01*
X69933617Y-98313151D01*
X69920498Y-98318928D01*
X69904772Y-98324855D01*
X69887113Y-98330715D01*
X69868195Y-98336285D01*
X69848692Y-98341347D01*
X69829280Y-98345679D01*
X69824106Y-98346702D01*
X69815229Y-98348158D01*
X69805011Y-98349326D01*
X69792831Y-98350250D01*
X69778065Y-98350976D01*
X69760092Y-98351547D01*
X69754521Y-98351683D01*
X69740959Y-98352044D01*
X69728865Y-98352458D01*
X69718767Y-98352900D01*
X69711194Y-98353344D01*
X69706673Y-98353764D01*
X69705607Y-98354064D01*
X69713460Y-98369912D01*
X69718756Y-98384070D01*
X69721774Y-98397671D01*
X69722792Y-98411847D01*
X69722465Y-98422693D01*
X69721696Y-98431333D01*
X69720370Y-98438967D01*
X69718155Y-98446891D01*
X69714717Y-98456402D01*
X69712159Y-98462843D01*
X69703284Y-98483581D01*
X69694917Y-98500631D01*
X69686917Y-98514251D01*
X69679144Y-98524700D01*
X69678101Y-98525887D01*
X69669990Y-98533801D01*
X69658814Y-98543074D01*
X69645121Y-98553342D01*
X69629455Y-98564243D01*
X69612365Y-98575414D01*
X69594395Y-98586492D01*
X69576094Y-98597114D01*
X69558006Y-98606917D01*
X69549588Y-98611212D01*
X69529404Y-98620683D01*
X69509599Y-98628658D01*
X69489630Y-98635238D01*
X69468955Y-98640524D01*
X69447033Y-98644619D01*
X69423320Y-98647625D01*
X69397276Y-98649643D01*
X69368359Y-98650775D01*
X69337068Y-98651123D01*
X69306646Y-98650677D01*
X69275622Y-98649365D01*
X69244540Y-98647255D01*
X69213950Y-98644415D01*
X69184398Y-98640913D01*
X69156431Y-98636816D01*
X69130597Y-98632192D01*
X69107442Y-98627109D01*
X69087514Y-98621634D01*
X69080683Y-98619390D01*
X69061306Y-98612657D01*
X69059198Y-98622486D01*
X69054327Y-98638200D01*
X69046724Y-98653969D01*
X69036974Y-98669019D01*
X69025662Y-98682579D01*
X69013374Y-98693876D01*
X69000695Y-98702139D01*
X68997748Y-98703545D01*
X68987187Y-98707719D01*
X68976462Y-98710809D01*
X68964656Y-98712977D01*
X68950855Y-98714384D01*
X68934142Y-98715190D01*
X68931036Y-98715277D01*
X68919915Y-98715498D01*
X68909881Y-98715580D01*
X68901767Y-98715526D01*
X68896407Y-98715337D01*
X68895033Y-98715194D01*
X68890613Y-98714475D01*
X68883675Y-98713402D01*
X68875659Y-98712200D01*
X68875031Y-98712107D01*
X68858278Y-98708608D01*
X68839071Y-98702814D01*
X68818021Y-98695004D01*
X68795737Y-98685458D01*
X68772828Y-98674454D01*
X68749904Y-98662273D01*
X68727574Y-98649192D01*
X68706447Y-98635491D01*
X68703839Y-98633692D01*
X68662864Y-98604112D01*
X68624294Y-98574044D01*
X68588369Y-98543708D01*
X68555328Y-98513329D01*
X68525411Y-98483129D01*
X68498858Y-98453331D01*
X68475910Y-98424157D01*
X68471264Y-98417697D01*
X68464435Y-98408054D01*
X68457370Y-98398121D01*
X68450938Y-98389119D01*
X68446319Y-98382694D01*
X68431385Y-98360796D01*
X68416647Y-98336645D01*
X68402016Y-98310037D01*
X68387399Y-98280769D01*
X68372705Y-98248638D01*
X68357842Y-98213441D01*
X68342720Y-98174975D01*
X68327247Y-98133035D01*
X68311331Y-98087421D01*
X68304880Y-98068280D01*
X68292535Y-98030785D01*
X68281601Y-97996382D01*
X68271921Y-97964484D01*
X68263339Y-97934501D01*
X68255698Y-97905846D01*
X68248842Y-97877930D01*
X68242614Y-97850165D01*
X68236859Y-97821963D01*
X68231420Y-97792736D01*
X68230976Y-97790236D01*
X68224822Y-97755449D01*
X68240402Y-97741357D01*
X68252555Y-97730307D01*
X68264574Y-97719252D01*
X68276732Y-97707926D01*
X68289304Y-97696062D01*
X68302565Y-97683396D01*
X68316790Y-97669659D01*
X68332252Y-97654587D01*
X68349228Y-97637913D01*
X68367991Y-97619372D01*
X68388816Y-97598696D01*
X68411977Y-97575621D01*
X68429782Y-97557843D01*
X68447457Y-97540194D01*
X68464304Y-97523397D01*
X68480110Y-97507662D01*
X68494663Y-97493199D01*
X68507751Y-97480218D01*
X68519162Y-97468930D01*
X68528684Y-97459543D01*
X68536104Y-97452268D01*
X68541211Y-97447315D01*
X68543792Y-97444895D01*
X68544072Y-97444684D01*
X68544448Y-97446740D01*
X68545222Y-97452188D01*
X68546317Y-97460445D01*
X68547656Y-97470931D01*
X68549165Y-97483065D01*
X68549797Y-97488235D01*
X68553030Y-97514372D01*
X68556249Y-97539532D01*
X68559406Y-97563377D01*
X68562451Y-97585565D01*
X68565333Y-97605758D01*
X68568005Y-97623614D01*
X68570416Y-97638794D01*
X68572516Y-97650959D01*
X68574258Y-97659767D01*
X68575383Y-97664249D01*
X68580559Y-97677826D01*
X68586720Y-97687718D01*
X68594159Y-97694180D01*
X68603168Y-97697467D01*
X68613926Y-97697841D01*
X68621559Y-97696574D01*
X68627959Y-97693876D01*
X68633424Y-97689325D01*
X68638254Y-97682499D01*
X68642746Y-97672975D01*
X68647201Y-97660333D01*
X68651891Y-97644247D01*
X68654327Y-97635401D01*
X68657643Y-97623453D01*
X68661629Y-97609150D01*
X68666076Y-97593241D01*
X68670776Y-97576473D01*
X68675520Y-97559594D01*
X68677027Y-97554240D01*
X68681828Y-97537091D01*
X68686710Y-97519454D01*
X68691448Y-97502155D01*
X68695818Y-97486019D01*
X68699596Y-97471872D01*
X68702556Y-97460539D01*
X68703144Y-97458232D01*
X68706930Y-97443903D01*
X68711494Y-97427557D01*
X68716327Y-97410965D01*
X68720922Y-97395899D01*
X68722086Y-97392227D01*
X68731269Y-97362651D01*
X68740837Y-97330144D01*
X68750510Y-97295722D01*
X68760012Y-97260399D01*
X68769065Y-97225191D01*
X68777390Y-97191113D01*
X68779082Y-97183932D01*
X68785661Y-97156469D01*
X68793006Y-97126977D01*
X68800829Y-97096559D01*
X68808838Y-97066318D01*
X68816745Y-97037356D01*
X68824261Y-97010777D01*
X68827052Y-97001196D01*
X68832604Y-96981935D01*
X68838748Y-96959919D01*
X68845346Y-96935704D01*
X68852255Y-96909842D01*
X68859334Y-96882886D01*
X68866443Y-96855390D01*
X68873441Y-96827906D01*
X68880186Y-96800989D01*
X68886539Y-96775191D01*
X68892357Y-96751065D01*
X68897500Y-96729166D01*
X68901827Y-96710045D01*
X68905010Y-96695172D01*
X68906566Y-96687978D01*
X68908774Y-96678292D01*
X68911500Y-96666659D01*
X68914609Y-96653622D01*
X68917968Y-96639726D01*
X68921441Y-96625516D01*
X68924895Y-96611535D01*
X68928196Y-96598327D01*
X68931209Y-96586438D01*
X68933800Y-96576411D01*
X68935834Y-96568790D01*
X68937178Y-96564119D01*
X68937646Y-96562886D01*
X68939672Y-96563026D01*
X68945194Y-96563653D01*
X68953741Y-96564708D01*
X68964848Y-96566130D01*
X68978045Y-96567861D01*
X68992865Y-96569839D01*
X69003094Y-96571224D01*
X69019058Y-96573369D01*
X69034007Y-96575330D01*
X69047412Y-96577041D01*
X69058746Y-96578435D01*
X69067479Y-96579448D01*
X69073083Y-96580013D01*
X69074686Y-96580110D01*
X69081345Y-96579122D01*
X69089867Y-96576449D01*
X69098974Y-96572654D01*
X69107387Y-96568301D01*
X69113831Y-96563954D01*
X69115965Y-96561898D01*
X69120014Y-96555710D01*
X69122979Y-96548856D01*
X69123063Y-96548571D01*
X69123428Y-96546100D01*
X69124213Y-96539862D01*
X69125393Y-96530068D01*
X69126945Y-96516927D01*
X69128845Y-96500648D01*
X69131069Y-96481440D01*
X69133595Y-96459513D01*
X69136398Y-96435078D01*
X69139455Y-96408342D01*
X69142742Y-96379515D01*
X69146236Y-96348808D01*
X69149912Y-96316429D01*
X69153748Y-96282588D01*
X69157720Y-96247495D01*
X69161804Y-96211358D01*
X69165977Y-96174388D01*
X69170215Y-96136794D01*
X69174494Y-96098785D01*
X69178791Y-96060571D01*
X69183082Y-96022361D01*
X69187344Y-95984365D01*
X69191553Y-95946792D01*
X69195685Y-95909852D01*
X69199717Y-95873754D01*
X69203625Y-95838708D01*
X69207386Y-95804923D01*
X69210976Y-95772609D01*
X69214371Y-95741974D01*
X69217548Y-95713230D01*
X69220483Y-95686584D01*
X69223153Y-95662247D01*
X69225534Y-95640428D01*
X69227602Y-95621336D01*
X69229024Y-95608087D01*
X69230744Y-95592175D01*
X69232141Y-95579814D01*
X69233281Y-95570575D01*
X69234232Y-95564026D01*
X69235061Y-95559738D01*
X69235834Y-95557280D01*
X69236618Y-95556224D01*
X69237116Y-95556083D01*
X69239641Y-95557482D01*
G37*
G36*
X65148738Y-95561629D02*
G01*
X65148918Y-95564359D01*
X65149416Y-95570331D01*
X65150166Y-95578807D01*
X65151104Y-95589047D01*
X65151714Y-95595556D01*
X65152183Y-95600531D01*
X65153009Y-95609293D01*
X65154174Y-95621647D01*
X65155659Y-95637397D01*
X65157446Y-95656349D01*
X65159516Y-95678307D01*
X65161851Y-95703076D01*
X65164433Y-95730461D01*
X65167243Y-95760265D01*
X65170262Y-95792295D01*
X65173473Y-95826354D01*
X65176857Y-95862247D01*
X65180395Y-95899779D01*
X65184069Y-95938754D01*
X65187861Y-95978978D01*
X65191752Y-96020255D01*
X65195724Y-96062390D01*
X65196736Y-96073123D01*
X65200695Y-96115061D01*
X65204571Y-96155981D01*
X65208346Y-96195703D01*
X65212002Y-96234046D01*
X65215521Y-96270827D01*
X65218886Y-96305867D01*
X65222079Y-96338984D01*
X65225083Y-96369996D01*
X65227879Y-96398722D01*
X65230451Y-96424982D01*
X65232780Y-96448593D01*
X65234848Y-96469374D01*
X65236639Y-96487145D01*
X65238135Y-96501724D01*
X65239317Y-96512929D01*
X65240168Y-96520580D01*
X65240671Y-96524495D01*
X65240764Y-96524957D01*
X65242173Y-96531168D01*
X65242778Y-96537957D01*
X65242778Y-96537958D01*
X65244603Y-96547141D01*
X65249443Y-96556063D01*
X65256461Y-96563368D01*
X65259787Y-96565588D01*
X65262518Y-96567029D01*
X65265367Y-96568178D01*
X65268722Y-96569031D01*
X65272972Y-96569589D01*
X65278503Y-96569848D01*
X65285705Y-96569806D01*
X65294965Y-96569461D01*
X65306671Y-96568812D01*
X65321211Y-96567856D01*
X65338973Y-96566591D01*
X65359754Y-96565060D01*
X65382928Y-96563333D01*
X65402428Y-96561880D01*
X65418575Y-96560691D01*
X65431685Y-96559759D01*
X65442077Y-96559076D01*
X65450068Y-96558634D01*
X65455978Y-96558424D01*
X65460123Y-96558439D01*
X65462822Y-96558670D01*
X65464393Y-96559110D01*
X65465154Y-96559750D01*
X65465424Y-96560583D01*
X65465519Y-96561599D01*
X65465643Y-96562375D01*
X65466382Y-96565922D01*
X65467708Y-96572612D01*
X65469467Y-96581656D01*
X65471506Y-96592265D01*
X65472821Y-96599165D01*
X65475089Y-96610740D01*
X65478015Y-96625126D01*
X65481372Y-96641234D01*
X65484931Y-96657975D01*
X65488465Y-96674258D01*
X65489770Y-96680171D01*
X65493515Y-96697207D01*
X65497641Y-96716247D01*
X65501849Y-96735885D01*
X65505836Y-96754711D01*
X65509302Y-96771317D01*
X65509891Y-96774179D01*
X65513252Y-96790144D01*
X65517266Y-96808594D01*
X65521621Y-96828132D01*
X65526004Y-96847360D01*
X65530103Y-96864881D01*
X65530893Y-96868186D01*
X65534489Y-96883298D01*
X65538096Y-96898659D01*
X65541502Y-96913351D01*
X65544495Y-96926458D01*
X65546862Y-96937061D01*
X65547757Y-96941192D01*
X65550621Y-96953821D01*
X65554393Y-96969256D01*
X65558803Y-96986484D01*
X65563580Y-97004487D01*
X65568451Y-97022251D01*
X65573147Y-97038760D01*
X65577396Y-97052999D01*
X65578831Y-97057586D01*
X65581460Y-97066301D01*
X65584979Y-97078701D01*
X65589334Y-97094585D01*
X65594472Y-97113749D01*
X65600338Y-97135992D01*
X65606880Y-97161112D01*
X65614044Y-97188907D01*
X65621776Y-97219174D01*
X65622803Y-97223214D01*
X65626291Y-97236767D01*
X65629654Y-97249529D01*
X65632707Y-97260820D01*
X65635265Y-97269956D01*
X65637141Y-97276256D01*
X65637797Y-97278218D01*
X65639419Y-97283207D01*
X65641772Y-97291195D01*
X65644608Y-97301302D01*
X65647679Y-97312648D01*
X65649670Y-97320222D01*
X65654054Y-97336968D01*
X65658952Y-97355442D01*
X65664147Y-97374847D01*
X65669423Y-97394387D01*
X65674564Y-97413265D01*
X65679354Y-97430683D01*
X65683577Y-97445845D01*
X65687017Y-97457953D01*
X65687098Y-97458232D01*
X65692097Y-97476043D01*
X65697488Y-97496105D01*
X65702931Y-97517093D01*
X65708084Y-97537682D01*
X65712608Y-97556545D01*
X65714825Y-97566241D01*
X65720599Y-97591278D01*
X65725916Y-97612557D01*
X65730839Y-97630284D01*
X65735433Y-97644666D01*
X65739762Y-97655910D01*
X65743890Y-97664225D01*
X65746191Y-97667751D01*
X65753932Y-97675311D01*
X65763079Y-97679605D01*
X65773019Y-97680819D01*
X65783137Y-97679139D01*
X65792820Y-97674751D01*
X65801454Y-97667842D01*
X65808426Y-97658599D01*
X65813059Y-97647439D01*
X65813768Y-97643051D01*
X65814248Y-97635727D01*
X65814502Y-97625243D01*
X65814533Y-97611377D01*
X65814345Y-97593907D01*
X65814061Y-97578242D01*
X65813657Y-97546628D01*
X65813811Y-97516284D01*
X65814555Y-97485905D01*
X65815921Y-97454188D01*
X65817933Y-97419950D01*
X65819191Y-97400668D01*
X65839784Y-97423950D01*
X65844283Y-97429019D01*
X65848529Y-97433742D01*
X65852758Y-97438355D01*
X65857208Y-97443092D01*
X65862115Y-97448186D01*
X65867718Y-97453871D01*
X65874253Y-97460382D01*
X65881957Y-97467954D01*
X65891069Y-97476819D01*
X65901824Y-97487213D01*
X65914460Y-97499370D01*
X65929214Y-97513522D01*
X65946323Y-97529906D01*
X65966026Y-97548755D01*
X65971803Y-97554280D01*
X65987917Y-97569716D01*
X66004921Y-97586049D01*
X66022229Y-97602715D01*
X66039255Y-97619147D01*
X66055413Y-97634780D01*
X66070118Y-97649048D01*
X66082784Y-97661385D01*
X66087812Y-97666303D01*
X66100182Y-97678384D01*
X66112692Y-97690533D01*
X66124775Y-97702203D01*
X66135864Y-97712849D01*
X66145391Y-97721924D01*
X66152789Y-97728882D01*
X66154335Y-97730316D01*
X66174854Y-97749255D01*
X66168759Y-97783149D01*
X66163223Y-97812705D01*
X66157424Y-97841075D01*
X66151202Y-97868862D01*
X66144396Y-97896667D01*
X66136846Y-97925094D01*
X66128391Y-97954745D01*
X66118870Y-97986222D01*
X66108124Y-98020128D01*
X66095991Y-98057064D01*
X66094918Y-98060280D01*
X66078802Y-98107408D01*
X66063164Y-98150779D01*
X66047914Y-98190598D01*
X66032959Y-98227066D01*
X66018209Y-98260388D01*
X66003573Y-98290766D01*
X65988958Y-98318404D01*
X65974273Y-98343505D01*
X65959428Y-98366271D01*
X65953479Y-98374693D01*
X65948401Y-98381759D01*
X65941889Y-98390878D01*
X65934811Y-98400832D01*
X65928534Y-98409696D01*
X65906431Y-98438698D01*
X65880669Y-98468375D01*
X65851489Y-98498504D01*
X65819131Y-98528862D01*
X65783834Y-98559227D01*
X65745838Y-98589375D01*
X65705384Y-98619084D01*
X65695960Y-98625691D01*
X65673804Y-98640221D01*
X65650238Y-98654096D01*
X65625953Y-98666993D01*
X65601641Y-98678586D01*
X65577993Y-98688552D01*
X65555703Y-98696567D01*
X65535461Y-98702306D01*
X65529768Y-98703560D01*
X65521177Y-98704843D01*
X65509689Y-98705909D01*
X65496356Y-98706724D01*
X65482230Y-98707256D01*
X65468364Y-98707471D01*
X65455811Y-98707334D01*
X65445623Y-98706814D01*
X65441537Y-98706370D01*
X65421382Y-98702380D01*
X65404180Y-98696353D01*
X65389232Y-98687887D01*
X65375841Y-98676577D01*
X65363308Y-98662021D01*
X65362251Y-98660609D01*
X65354630Y-98648790D01*
X65347859Y-98635438D01*
X65342704Y-98622187D01*
X65340601Y-98614485D01*
X65338493Y-98604656D01*
X65319116Y-98611389D01*
X65300607Y-98616999D01*
X65278655Y-98622244D01*
X65253809Y-98627057D01*
X65226616Y-98631369D01*
X65197621Y-98635113D01*
X65167374Y-98638221D01*
X65136421Y-98640626D01*
X65105308Y-98642260D01*
X65074585Y-98643054D01*
X65062731Y-98643122D01*
X65030510Y-98642752D01*
X65001688Y-98641595D01*
X64975723Y-98639548D01*
X64952074Y-98636511D01*
X64930197Y-98632380D01*
X64909552Y-98627056D01*
X64889596Y-98620435D01*
X64869787Y-98612416D01*
X64850210Y-98603211D01*
X64832418Y-98593928D01*
X64814151Y-98583652D01*
X64795954Y-98572747D01*
X64778375Y-98561575D01*
X64761960Y-98550500D01*
X64747255Y-98539884D01*
X64734806Y-98530090D01*
X64725161Y-98521480D01*
X64721698Y-98517886D01*
X64713945Y-98507846D01*
X64705984Y-98494671D01*
X64697675Y-98478102D01*
X64688877Y-98457879D01*
X64687640Y-98454842D01*
X64680739Y-98434725D01*
X64677134Y-98416067D01*
X64676866Y-98398160D01*
X64679978Y-98380296D01*
X64686512Y-98361766D01*
X64694192Y-98346064D01*
X64692471Y-98345680D01*
X64687278Y-98345253D01*
X64679141Y-98344807D01*
X64668589Y-98344369D01*
X64656150Y-98343964D01*
X64645278Y-98343682D01*
X64626317Y-98343145D01*
X64610734Y-98342466D01*
X64597906Y-98341601D01*
X64587212Y-98340504D01*
X64578029Y-98339132D01*
X64575693Y-98338702D01*
X64556422Y-98334605D01*
X64536877Y-98329720D01*
X64517733Y-98324266D01*
X64499665Y-98318464D01*
X64483347Y-98312533D01*
X64469452Y-98306694D01*
X64458656Y-98301166D01*
X64456345Y-98299746D01*
X64447272Y-98292842D01*
X64436877Y-98283203D01*
X64425815Y-98271570D01*
X64414741Y-98258686D01*
X64404311Y-98245291D01*
X64395181Y-98232128D01*
X64391811Y-98226714D01*
X64384785Y-98211471D01*
X64381570Y-98196039D01*
X64382018Y-98180773D01*
X64385977Y-98166031D01*
X64393298Y-98152169D01*
X64403830Y-98139545D01*
X64417423Y-98128514D01*
X64433926Y-98119435D01*
X64437682Y-98117836D01*
X64447089Y-98114207D01*
X64455925Y-98111299D01*
X64465556Y-98108719D01*
X64477351Y-98106074D01*
X64481685Y-98105174D01*
X64502453Y-98099599D01*
X64525251Y-98091060D01*
X64549676Y-98079768D01*
X64575326Y-98065936D01*
X64601800Y-98049776D01*
X64628696Y-98031499D01*
X64647038Y-98017956D01*
X64656942Y-98010179D01*
X64668359Y-98000843D01*
X64680746Y-97990430D01*
X64693555Y-97979420D01*
X64706242Y-97968293D01*
X64718262Y-97957531D01*
X64729068Y-97947614D01*
X64738115Y-97939023D01*
X64744858Y-97932238D01*
X64747103Y-97929780D01*
X64768053Y-97903845D01*
X64788915Y-97874328D01*
X64809466Y-97841645D01*
X64829483Y-97806213D01*
X64848744Y-97768447D01*
X64867026Y-97728764D01*
X64884107Y-97687580D01*
X64899765Y-97645310D01*
X64900827Y-97642247D01*
X64903708Y-97634126D01*
X64906343Y-97627086D01*
X64908301Y-97622263D01*
X64908785Y-97621235D01*
X64910525Y-97616972D01*
X64913141Y-97609324D01*
X64916485Y-97598772D01*
X64920409Y-97585798D01*
X64924765Y-97570884D01*
X64929405Y-97554512D01*
X64930872Y-97549240D01*
X64933128Y-97540826D01*
X64935255Y-97532256D01*
X64937352Y-97523022D01*
X64939518Y-97512616D01*
X64941854Y-97500530D01*
X64944460Y-97486258D01*
X64947435Y-97469290D01*
X64950879Y-97449120D01*
X64952715Y-97438231D01*
X64953493Y-97432968D01*
X64954617Y-97424494D01*
X64955993Y-97413577D01*
X64957525Y-97400982D01*
X64959115Y-97387473D01*
X64959643Y-97382891D01*
X64961159Y-97369898D01*
X64962578Y-97358166D01*
X64963823Y-97348308D01*
X64964815Y-97340931D01*
X64965478Y-97336646D01*
X64965648Y-97335888D01*
X64966053Y-97333277D01*
X64966743Y-97327206D01*
X64967666Y-97318199D01*
X64968770Y-97306782D01*
X64970004Y-97293481D01*
X64971316Y-97278820D01*
X64971631Y-97275218D01*
X64973029Y-97259393D01*
X64974426Y-97243974D01*
X64975755Y-97229667D01*
X64976950Y-97217181D01*
X64977944Y-97207223D01*
X64978669Y-97200500D01*
X64978703Y-97200212D01*
X64979561Y-97191474D01*
X64980506Y-97179146D01*
X64981518Y-97163634D01*
X64982577Y-97145347D01*
X64983663Y-97124693D01*
X64984754Y-97102079D01*
X64985831Y-97077914D01*
X64986874Y-97052604D01*
X64987861Y-97026559D01*
X64988773Y-97000187D01*
X64988935Y-96995196D01*
X64989252Y-96984766D01*
X64989532Y-96974100D01*
X64989777Y-96963011D01*
X64989985Y-96951307D01*
X64990155Y-96938800D01*
X64990288Y-96925300D01*
X64990383Y-96910616D01*
X64990438Y-96894561D01*
X64990454Y-96876943D01*
X64990430Y-96857573D01*
X64990365Y-96836263D01*
X64990259Y-96812821D01*
X64990112Y-96787059D01*
X64989922Y-96758787D01*
X64989689Y-96727816D01*
X64989413Y-96693955D01*
X64989093Y-96657015D01*
X64988729Y-96616807D01*
X64988320Y-96573141D01*
X64987865Y-96525827D01*
X64987437Y-96482156D01*
X64987228Y-96454309D01*
X64987126Y-96424640D01*
X64987125Y-96393575D01*
X64987220Y-96361538D01*
X64987404Y-96328957D01*
X64987674Y-96296256D01*
X64988022Y-96263861D01*
X64988444Y-96232199D01*
X64988934Y-96201694D01*
X64989487Y-96172773D01*
X64990097Y-96145861D01*
X64990758Y-96121384D01*
X64991466Y-96099768D01*
X64992215Y-96081439D01*
X64992741Y-96071123D01*
X64993477Y-96057892D01*
X64994337Y-96042045D01*
X64995248Y-96024961D01*
X64996136Y-96008020D01*
X64996851Y-95994117D01*
X64998059Y-95973041D01*
X64999607Y-95950378D01*
X65001433Y-95926751D01*
X65003478Y-95902783D01*
X65005680Y-95879097D01*
X65007980Y-95856317D01*
X65010318Y-95835066D01*
X65012633Y-95815966D01*
X65014864Y-95799642D01*
X65016868Y-95787182D01*
X65021455Y-95767662D01*
X65028553Y-95746482D01*
X65038251Y-95723457D01*
X65050635Y-95698403D01*
X65065794Y-95671135D01*
X65083815Y-95641468D01*
X65092361Y-95628088D01*
X65099019Y-95618212D01*
X65106391Y-95607962D01*
X65114123Y-95597756D01*
X65121861Y-95588012D01*
X65129252Y-95579147D01*
X65135940Y-95571579D01*
X65141572Y-95565723D01*
X65145795Y-95561999D01*
X65148253Y-95560822D01*
X65148738Y-95561629D01*
G37*
G36*
X66394142Y-98932382D02*
G01*
X66411061Y-98932477D01*
X66426280Y-98932628D01*
X66439393Y-98932826D01*
X66449993Y-98933066D01*
X66457673Y-98933339D01*
X66462026Y-98933639D01*
X66462881Y-98933849D01*
X66462277Y-98935875D01*
X66460499Y-98941520D01*
X66457607Y-98950598D01*
X66453660Y-98962921D01*
X66448719Y-98978305D01*
X66442844Y-98996561D01*
X66436095Y-99017505D01*
X66428533Y-99040949D01*
X66420216Y-99066708D01*
X66411206Y-99094595D01*
X66401562Y-99124424D01*
X66391346Y-99156009D01*
X66380616Y-99189162D01*
X66369433Y-99223699D01*
X66357857Y-99259432D01*
X66346371Y-99294868D01*
X66229823Y-99654387D01*
X66140511Y-99654396D01*
X66051198Y-99654405D01*
X66047001Y-99640904D01*
X66045951Y-99637609D01*
X66043729Y-99630708D01*
X66040400Y-99620399D01*
X66036028Y-99606881D01*
X66030677Y-99590353D01*
X66024413Y-99571012D01*
X66017298Y-99549057D01*
X66009399Y-99524687D01*
X66000778Y-99498100D01*
X65991500Y-99469494D01*
X65981630Y-99439069D01*
X65971231Y-99407022D01*
X65960369Y-99373552D01*
X65949108Y-99338857D01*
X65937511Y-99303137D01*
X65930121Y-99280376D01*
X65817438Y-98933349D01*
X65906434Y-98932828D01*
X65924891Y-98932731D01*
X65942077Y-98932663D01*
X65957587Y-98932624D01*
X65971017Y-98932613D01*
X65981961Y-98932631D01*
X65990016Y-98932678D01*
X65994776Y-98932753D01*
X65995941Y-98932828D01*
X65996487Y-98934791D01*
X65997967Y-98940414D01*
X66000325Y-98949479D01*
X66003507Y-98961770D01*
X66007455Y-98977069D01*
X66012114Y-98995161D01*
X66017428Y-99015827D01*
X66023343Y-99038853D01*
X66029801Y-99064020D01*
X66036748Y-99091112D01*
X66044127Y-99119912D01*
X66051883Y-99150203D01*
X66059961Y-99181769D01*
X66067782Y-99212352D01*
X66076113Y-99244924D01*
X66084181Y-99276429D01*
X66091927Y-99306649D01*
X66099297Y-99335368D01*
X66106235Y-99362369D01*
X66112684Y-99387433D01*
X66118589Y-99410345D01*
X66123893Y-99430887D01*
X66128540Y-99448841D01*
X66132475Y-99463991D01*
X66135641Y-99476120D01*
X66137983Y-99485010D01*
X66139444Y-99490444D01*
X66139964Y-99492207D01*
X66141496Y-99492226D01*
X66142075Y-99490228D01*
X66143610Y-99484579D01*
X66146042Y-99475498D01*
X66149315Y-99463205D01*
X66153371Y-99447918D01*
X66158151Y-99429855D01*
X66163598Y-99409237D01*
X66169655Y-99386282D01*
X66176262Y-99361208D01*
X66183363Y-99334236D01*
X66190900Y-99305583D01*
X66198814Y-99275470D01*
X66207049Y-99244114D01*
X66213805Y-99218371D01*
X66222280Y-99186070D01*
X66230494Y-99154765D01*
X66238389Y-99124683D01*
X66245906Y-99096047D01*
X66252985Y-99069083D01*
X66259567Y-99044016D01*
X66265593Y-99021071D01*
X66271004Y-99000473D01*
X66275741Y-98982447D01*
X66279745Y-98967218D01*
X66282957Y-98955011D01*
X66285317Y-98946052D01*
X66286766Y-98940564D01*
X66287224Y-98938849D01*
X66289016Y-98932349D01*
X66375928Y-98932349D01*
X66394142Y-98932382D01*
G37*
G36*
X64812211Y-98935561D02*
G01*
X64832907Y-98932751D01*
X64855908Y-98930209D01*
X64880587Y-98927965D01*
X64906316Y-98926048D01*
X64932467Y-98924486D01*
X64958414Y-98923308D01*
X64983528Y-98922541D01*
X65007181Y-98922216D01*
X65028747Y-98922360D01*
X65047598Y-98923001D01*
X65062913Y-98924149D01*
X65102868Y-98929670D01*
X65139729Y-98937575D01*
X65173664Y-98947934D01*
X65204843Y-98960818D01*
X65233436Y-98976299D01*
X65259612Y-98994447D01*
X65283539Y-99015333D01*
X65285566Y-99017327D01*
X65308318Y-99042735D01*
X65327968Y-99070669D01*
X65344515Y-99101128D01*
X65357960Y-99134112D01*
X65368303Y-99169620D01*
X65375542Y-99207651D01*
X65379679Y-99248207D01*
X65380756Y-99283921D01*
X65379255Y-99327573D01*
X65374773Y-99369059D01*
X65367342Y-99408257D01*
X65356995Y-99445041D01*
X65343765Y-99479290D01*
X65327683Y-99510878D01*
X65316687Y-99528491D01*
X65308128Y-99540051D01*
X65297379Y-99552793D01*
X65285294Y-99565838D01*
X65272724Y-99578311D01*
X65260523Y-99589333D01*
X65249544Y-99598027D01*
X65248036Y-99599090D01*
X65220951Y-99616027D01*
X65192582Y-99630199D01*
X65162439Y-99641780D01*
X65130034Y-99650946D01*
X65094879Y-99657871D01*
X65076732Y-99660470D01*
X65067801Y-99661311D01*
X65055618Y-99662030D01*
X65040928Y-99662616D01*
X65024477Y-99663060D01*
X65007012Y-99663351D01*
X64989279Y-99663479D01*
X64972023Y-99663435D01*
X64955992Y-99663209D01*
X64941930Y-99662790D01*
X64933721Y-99662381D01*
X64885457Y-99658772D01*
X64839421Y-99653981D01*
X64831213Y-99652977D01*
X64804711Y-99649662D01*
X64804711Y-99526319D01*
X64968724Y-99526319D01*
X64973224Y-99527407D01*
X64986102Y-99529716D01*
X65001743Y-99531257D01*
X65018978Y-99532005D01*
X65036639Y-99531932D01*
X65053557Y-99531012D01*
X65066740Y-99529506D01*
X65093068Y-99524022D01*
X65116692Y-99515860D01*
X65137694Y-99504929D01*
X65156153Y-99491136D01*
X65172153Y-99474391D01*
X65185774Y-99454600D01*
X65197099Y-99431671D01*
X65206209Y-99405513D01*
X65213185Y-99376033D01*
X65215693Y-99361382D01*
X65217395Y-99347341D01*
X65218739Y-99330449D01*
X65219696Y-99311826D01*
X65220234Y-99292592D01*
X65220323Y-99273867D01*
X65219934Y-99256770D01*
X65219035Y-99242423D01*
X65218935Y-99241373D01*
X65214635Y-99209480D01*
X65208293Y-99180944D01*
X65199805Y-99155624D01*
X65189068Y-99133378D01*
X65175979Y-99114064D01*
X65160434Y-99097541D01*
X65142330Y-99083668D01*
X65121565Y-99072302D01*
X65098034Y-99063303D01*
X65086733Y-99060045D01*
X65076571Y-99058046D01*
X65063447Y-99056461D01*
X65048381Y-99055326D01*
X65032393Y-99054680D01*
X65016505Y-99054560D01*
X65001735Y-99055002D01*
X64989106Y-99056046D01*
X64986647Y-99056369D01*
X64968724Y-99058939D01*
X64968724Y-99526319D01*
X64804711Y-99526319D01*
X64804711Y-98936700D01*
X64812211Y-98935561D01*
G37*
G36*
X68260199Y-98932826D02*
G01*
X68341421Y-98933349D01*
X68457542Y-99153866D01*
X68472107Y-99181501D01*
X68486171Y-99208136D01*
X68499621Y-99233560D01*
X68512342Y-99257558D01*
X68524222Y-99279920D01*
X68535147Y-99300432D01*
X68545003Y-99318882D01*
X68553677Y-99335058D01*
X68561055Y-99348746D01*
X68567024Y-99359736D01*
X68571471Y-99367813D01*
X68574281Y-99372765D01*
X68575335Y-99374383D01*
X68575557Y-99372426D01*
X68575771Y-99366722D01*
X68575974Y-99357528D01*
X68576165Y-99345098D01*
X68576341Y-99329687D01*
X68576500Y-99311548D01*
X68576642Y-99290938D01*
X68576763Y-99268111D01*
X68576862Y-99243322D01*
X68576937Y-99216825D01*
X68576986Y-99188875D01*
X68577007Y-99159727D01*
X68577008Y-99153366D01*
X68577008Y-98932349D01*
X68737020Y-98932349D01*
X68737020Y-99654405D01*
X68656514Y-99654391D01*
X68576008Y-99654376D01*
X68458998Y-99432096D01*
X68341989Y-99209815D01*
X68341480Y-99432110D01*
X68340972Y-99654405D01*
X68178976Y-99654405D01*
X68178976Y-98932304D01*
X68260199Y-98932826D01*
G37*
G36*
X68591164Y-97566794D02*
G01*
X68590039Y-97546945D01*
X68588883Y-97525227D01*
X68587752Y-97502770D01*
X68586700Y-97480702D01*
X68585782Y-97460153D01*
X68585054Y-97442252D01*
X68584942Y-97439231D01*
X68584332Y-97423355D01*
X68583687Y-97407863D01*
X68583041Y-97393471D01*
X68582427Y-97380894D01*
X68581878Y-97370849D01*
X68581429Y-97364053D01*
X68581411Y-97363827D01*
X68580008Y-97346429D01*
X68567773Y-97361827D01*
X68560816Y-97370241D01*
X68551413Y-97381099D01*
X68539934Y-97394005D01*
X68526747Y-97408563D01*
X68512224Y-97424377D01*
X68496734Y-97441051D01*
X68480647Y-97458188D01*
X68464335Y-97475393D01*
X68448165Y-97492270D01*
X68432510Y-97508422D01*
X68417738Y-97523453D01*
X68404220Y-97536968D01*
X68403146Y-97538029D01*
X68371055Y-97569298D01*
X68336010Y-97602702D01*
X68298271Y-97638002D01*
X68258101Y-97674955D01*
X68215762Y-97713320D01*
X68171516Y-97752857D01*
X68134973Y-97785122D01*
X68120599Y-97797784D01*
X68106038Y-97810678D01*
X68091832Y-97823319D01*
X68078521Y-97835223D01*
X68066650Y-97845905D01*
X68056759Y-97854880D01*
X68049966Y-97861129D01*
X68030183Y-97879450D01*
X68013125Y-97895083D01*
X67998665Y-97908137D01*
X67986670Y-97918725D01*
X67977012Y-97926958D01*
X67969561Y-97932948D01*
X67964187Y-97936805D01*
X67960760Y-97938642D01*
X67959459Y-97938788D01*
X67957623Y-97937195D01*
X67957193Y-97933869D01*
X67958268Y-97928435D01*
X67960948Y-97920517D01*
X67965333Y-97909737D01*
X67968668Y-97902137D01*
X67985452Y-97902137D01*
X67985725Y-97902267D01*
X67987550Y-97900859D01*
X67987961Y-97900267D01*
X67988471Y-97898397D01*
X67988197Y-97898267D01*
X67986372Y-97899675D01*
X67985961Y-97900267D01*
X67985452Y-97902137D01*
X67968668Y-97902137D01*
X67969984Y-97899139D01*
X67975302Y-97886812D01*
X67980335Y-97874118D01*
X67985200Y-97860652D01*
X67990016Y-97846010D01*
X67994900Y-97829786D01*
X67999970Y-97811576D01*
X68005346Y-97790974D01*
X68011143Y-97767575D01*
X68017482Y-97740974D01*
X68022990Y-97717253D01*
X68043109Y-97626779D01*
X68061165Y-97539106D01*
X68077248Y-97453669D01*
X68091450Y-97369899D01*
X68103863Y-97287228D01*
X68114579Y-97205090D01*
X68123690Y-97122916D01*
X68130019Y-97055201D01*
X68131071Y-97043455D01*
X68132095Y-97032974D01*
X68133013Y-97024456D01*
X68133752Y-97018602D01*
X68134198Y-97016198D01*
X68134693Y-97013219D01*
X68135324Y-97007031D01*
X68136025Y-96998417D01*
X68136727Y-96988164D01*
X68137028Y-96983195D01*
X68138015Y-96969364D01*
X68139419Y-96953840D01*
X68141054Y-96938513D01*
X68142733Y-96925278D01*
X68142745Y-96925190D01*
X68144223Y-96913452D01*
X68145737Y-96899111D01*
X68147157Y-96883560D01*
X68148351Y-96868192D01*
X68148932Y-96859185D01*
X68150284Y-96836039D01*
X68151441Y-96816551D01*
X68152428Y-96800387D01*
X68153270Y-96787211D01*
X68153992Y-96776687D01*
X68154617Y-96768480D01*
X68155172Y-96762255D01*
X68155682Y-96757676D01*
X68156170Y-96754407D01*
X68156662Y-96752114D01*
X68156933Y-96751177D01*
X68158199Y-96745503D01*
X68159620Y-96735970D01*
X68161183Y-96722716D01*
X68162877Y-96705877D01*
X68164691Y-96685592D01*
X68166613Y-96661997D01*
X68168632Y-96635232D01*
X68170735Y-96605432D01*
X68172912Y-96572736D01*
X68175151Y-96537282D01*
X68175892Y-96525159D01*
X68176965Y-96507692D01*
X68177827Y-96493936D01*
X68968173Y-96493936D01*
X68968183Y-96493968D01*
X68970485Y-96494595D01*
X68976077Y-96495564D01*
X68984268Y-96496788D01*
X68994371Y-96498182D01*
X69005697Y-96499660D01*
X69017558Y-96501138D01*
X69029264Y-96502528D01*
X69040127Y-96503746D01*
X69049459Y-96504707D01*
X69056571Y-96505324D01*
X69060774Y-96505511D01*
X69061007Y-96505503D01*
X69067969Y-96505157D01*
X69126757Y-95949525D01*
X69131700Y-95902775D01*
X69136528Y-95857064D01*
X69141224Y-95812551D01*
X69145771Y-95769397D01*
X69150152Y-95727759D01*
X69154351Y-95687799D01*
X69158352Y-95649676D01*
X69162137Y-95613548D01*
X69165690Y-95579577D01*
X69168994Y-95547921D01*
X69172032Y-95518740D01*
X69174789Y-95492194D01*
X69177247Y-95468443D01*
X69179390Y-95447645D01*
X69181200Y-95429960D01*
X69182662Y-95415549D01*
X69183759Y-95404570D01*
X69184474Y-95397183D01*
X69184790Y-95393548D01*
X69184800Y-95393179D01*
X69182689Y-95392741D01*
X69177169Y-95391902D01*
X69168806Y-95390737D01*
X69158164Y-95389325D01*
X69145806Y-95387743D01*
X69137994Y-95386767D01*
X69091932Y-95381069D01*
X69062433Y-95644090D01*
X69058364Y-95680372D01*
X69053913Y-95720048D01*
X69049145Y-95762537D01*
X69044127Y-95807259D01*
X69038923Y-95853633D01*
X69033598Y-95901077D01*
X69028218Y-95949010D01*
X69022848Y-95996852D01*
X69017552Y-96044021D01*
X69012397Y-96089937D01*
X69007447Y-96134019D01*
X69002768Y-96175685D01*
X69000035Y-96200015D01*
X68996246Y-96233821D01*
X68992594Y-96266536D01*
X68989103Y-96297941D01*
X68985798Y-96327816D01*
X68982701Y-96355940D01*
X68979838Y-96382093D01*
X68977231Y-96406055D01*
X68974904Y-96427605D01*
X68972882Y-96446524D01*
X68971188Y-96462591D01*
X68969846Y-96475586D01*
X68968881Y-96485288D01*
X68968315Y-96491478D01*
X68968173Y-96493936D01*
X68177827Y-96493936D01*
X68178174Y-96488391D01*
X68179433Y-96468602D01*
X68180656Y-96449671D01*
X68181758Y-96432945D01*
X68182080Y-96428151D01*
X68183117Y-96412728D01*
X68184208Y-96396414D01*
X68185275Y-96380404D01*
X68186236Y-96365889D01*
X68187014Y-96354062D01*
X68187074Y-96353145D01*
X68187931Y-96337311D01*
X68188675Y-96318153D01*
X68189301Y-96296343D01*
X68189804Y-96272557D01*
X68190177Y-96247469D01*
X68190416Y-96221752D01*
X68190515Y-96196081D01*
X68190467Y-96171130D01*
X68190269Y-96147574D01*
X68189913Y-96126085D01*
X68189395Y-96107339D01*
X68189157Y-96101126D01*
X68188084Y-96077737D01*
X68186733Y-96051734D01*
X68185147Y-96023739D01*
X68183368Y-95994377D01*
X68181439Y-95964273D01*
X68179403Y-95934052D01*
X68177302Y-95904338D01*
X68175179Y-95875755D01*
X68173077Y-95848928D01*
X68171039Y-95824482D01*
X68169106Y-95803041D01*
X68168038Y-95792101D01*
X68166491Y-95777434D01*
X68164675Y-95761099D01*
X68840690Y-95761099D01*
X68841149Y-95763877D01*
X68842422Y-95769413D01*
X68844255Y-95776610D01*
X68844652Y-95778100D01*
X68853169Y-95810271D01*
X68860579Y-95839262D01*
X68867020Y-95865693D01*
X68872632Y-95890185D01*
X68877554Y-95913358D01*
X68881926Y-95935834D01*
X68885887Y-95958232D01*
X68888025Y-95971266D01*
X68889847Y-95982467D01*
X68891557Y-95992597D01*
X68893014Y-96000851D01*
X68894078Y-96006426D01*
X68894461Y-96008118D01*
X68894635Y-96009016D01*
X68894764Y-96010089D01*
X68894870Y-96011166D01*
X68894973Y-96012074D01*
X68895093Y-96012640D01*
X68895251Y-96012692D01*
X68895467Y-96012057D01*
X68895762Y-96010562D01*
X68896156Y-96008035D01*
X68896670Y-96004303D01*
X68897324Y-95999195D01*
X68898140Y-95992536D01*
X68899136Y-95984155D01*
X68900335Y-95973878D01*
X68901755Y-95961535D01*
X68903419Y-95946951D01*
X68905346Y-95929954D01*
X68907557Y-95910372D01*
X68910072Y-95888032D01*
X68912913Y-95862761D01*
X68916098Y-95834387D01*
X68919650Y-95802738D01*
X68923588Y-95767640D01*
X68927933Y-95728921D01*
X68932705Y-95686409D01*
X68932965Y-95684093D01*
X68936913Y-95648914D01*
X68940733Y-95614824D01*
X68944402Y-95582034D01*
X68947898Y-95550756D01*
X68951195Y-95521200D01*
X68954271Y-95493578D01*
X68957103Y-95468100D01*
X68959667Y-95444978D01*
X68961939Y-95424423D01*
X68963897Y-95406645D01*
X68965517Y-95391857D01*
X68966775Y-95380269D01*
X68967648Y-95372092D01*
X68968112Y-95367537D01*
X68968183Y-95366617D01*
X68966145Y-95366203D01*
X68960860Y-95365435D01*
X68953045Y-95364397D01*
X68943419Y-95363176D01*
X68932702Y-95361858D01*
X68921611Y-95360529D01*
X68910865Y-95359276D01*
X68901183Y-95358183D01*
X68893283Y-95357337D01*
X68887884Y-95356825D01*
X68885704Y-95356732D01*
X68885694Y-95356738D01*
X68885421Y-95358733D01*
X68884745Y-95364381D01*
X68883703Y-95373361D01*
X68882331Y-95385349D01*
X68880664Y-95400023D01*
X68878738Y-95417061D01*
X68876589Y-95436141D01*
X68874254Y-95456938D01*
X68871767Y-95479133D01*
X68869166Y-95502400D01*
X68866485Y-95526419D01*
X68863761Y-95550866D01*
X68861029Y-95575420D01*
X68858326Y-95599757D01*
X68855687Y-95623555D01*
X68853148Y-95646492D01*
X68850746Y-95668245D01*
X68848515Y-95688491D01*
X68846493Y-95706908D01*
X68844714Y-95723174D01*
X68843215Y-95736966D01*
X68842032Y-95747961D01*
X68841200Y-95755837D01*
X68840756Y-95760272D01*
X68840690Y-95761099D01*
X68164675Y-95761099D01*
X68164502Y-95759543D01*
X68162162Y-95739167D01*
X68159559Y-95717047D01*
X68156785Y-95693924D01*
X68155096Y-95680092D01*
X68814026Y-95680092D01*
X68814185Y-95681936D01*
X68814908Y-95682093D01*
X68816945Y-95680641D01*
X68817027Y-95680092D01*
X68816344Y-95678144D01*
X68816145Y-95678092D01*
X68814437Y-95679494D01*
X68814026Y-95680092D01*
X68155096Y-95680092D01*
X68153929Y-95670537D01*
X68151080Y-95647628D01*
X68148329Y-95625936D01*
X68145766Y-95606202D01*
X68143479Y-95589166D01*
X68142916Y-95585085D01*
X68137797Y-95551001D01*
X68132427Y-95520662D01*
X68126734Y-95493818D01*
X68120648Y-95470218D01*
X68114101Y-95449610D01*
X68107021Y-95431745D01*
X68099339Y-95416370D01*
X68093026Y-95406154D01*
X68079199Y-95388540D01*
X68063063Y-95372666D01*
X68045544Y-95359366D01*
X68032965Y-95352040D01*
X68027022Y-95349364D01*
X68018839Y-95346136D01*
X68009316Y-95342660D01*
X67999353Y-95339238D01*
X67989851Y-95336175D01*
X67981711Y-95333773D01*
X67975832Y-95332337D01*
X67973707Y-95332065D01*
X67967605Y-95333823D01*
X67961976Y-95338268D01*
X67958049Y-95344162D01*
X67956959Y-95348974D01*
X67957973Y-95355620D01*
X67961334Y-95360971D01*
X67967520Y-95365440D01*
X67977007Y-95369443D01*
X67982585Y-95371234D01*
X68006083Y-95379819D01*
X68026342Y-95390548D01*
X68043600Y-95403585D01*
X68058093Y-95419092D01*
X68064146Y-95427474D01*
X68071275Y-95440000D01*
X68077972Y-95455513D01*
X68084278Y-95474168D01*
X68090232Y-95496121D01*
X68095876Y-95521526D01*
X68101248Y-95550540D01*
X68106389Y-95583317D01*
X68108874Y-95601086D01*
X68110983Y-95617031D01*
X68113183Y-95634224D01*
X68115405Y-95652086D01*
X68117584Y-95670036D01*
X68119650Y-95687496D01*
X68121536Y-95703885D01*
X68123175Y-95718623D01*
X68124498Y-95731129D01*
X68125438Y-95740825D01*
X68125925Y-95747098D01*
X68126527Y-95755081D01*
X68127538Y-95765474D01*
X68128798Y-95776726D01*
X68129729Y-95784169D01*
X68131274Y-95797124D01*
X68132984Y-95813584D01*
X68134824Y-95833060D01*
X68136756Y-95855061D01*
X68138745Y-95879097D01*
X68140754Y-95904680D01*
X68142748Y-95931318D01*
X68144691Y-95958523D01*
X68146545Y-95985803D01*
X68148276Y-96012670D01*
X68149846Y-96038632D01*
X68151221Y-96063202D01*
X68152363Y-96085887D01*
X68152953Y-96099125D01*
X68154064Y-96133156D01*
X68154700Y-96169848D01*
X68154857Y-96207891D01*
X68154538Y-96245976D01*
X68153740Y-96282793D01*
X68153015Y-96304142D01*
X68152166Y-96324931D01*
X68151386Y-96342020D01*
X68150649Y-96355708D01*
X68149931Y-96366294D01*
X68149205Y-96374077D01*
X68148448Y-96379358D01*
X68147633Y-96382433D01*
X68146736Y-96383604D01*
X68146328Y-96383599D01*
X68144427Y-96381760D01*
X68140337Y-96376770D01*
X68134047Y-96368616D01*
X68125544Y-96357280D01*
X68114817Y-96342746D01*
X68101853Y-96325000D01*
X68086643Y-96304024D01*
X68069172Y-96279803D01*
X68049431Y-96252321D01*
X68042131Y-96242137D01*
X68003592Y-96188063D01*
X67965753Y-96134404D01*
X67928136Y-96080464D01*
X67890259Y-96025549D01*
X67851644Y-95968964D01*
X67811810Y-95910016D01*
X67787260Y-95873425D01*
X67775489Y-95855858D01*
X67765734Y-95841362D01*
X67757798Y-95829676D01*
X67751486Y-95820537D01*
X67746602Y-95813684D01*
X67742950Y-95808853D01*
X67740333Y-95805784D01*
X67738557Y-95804214D01*
X67737425Y-95803881D01*
X67736741Y-95804523D01*
X67736422Y-95805420D01*
X67735873Y-95808207D01*
X67734720Y-95814647D01*
X67733014Y-95824445D01*
X67730803Y-95837310D01*
X67728138Y-95852946D01*
X67725068Y-95871060D01*
X67721643Y-95891358D01*
X67717914Y-95913547D01*
X67713929Y-95937333D01*
X67709739Y-95962423D01*
X67705959Y-95985116D01*
X67697193Y-96037716D01*
X67688934Y-96087047D01*
X67681066Y-96133790D01*
X67673470Y-96178626D01*
X67666030Y-96222238D01*
X67658630Y-96265308D01*
X67651152Y-96308517D01*
X67643478Y-96352547D01*
X67635493Y-96398079D01*
X67627079Y-96445796D01*
X67620875Y-96480844D01*
X67616303Y-96506557D01*
X67612346Y-96528629D01*
X67608941Y-96547363D01*
X67606027Y-96563061D01*
X67603541Y-96576023D01*
X67601423Y-96586553D01*
X67599609Y-96594953D01*
X67598038Y-96601525D01*
X67596649Y-96606569D01*
X67595379Y-96610390D01*
X67594166Y-96613289D01*
X67593481Y-96614636D01*
X67585730Y-96625519D01*
X67575626Y-96633516D01*
X67568385Y-96637106D01*
X67558378Y-96639695D01*
X67546785Y-96639687D01*
X67533483Y-96637026D01*
X67518352Y-96631651D01*
X67501267Y-96623505D01*
X67482106Y-96612529D01*
X67460748Y-96598664D01*
X67437069Y-96581851D01*
X67410948Y-96562033D01*
X67410062Y-96561342D01*
X67389447Y-96545205D01*
X67370814Y-96530504D01*
X67353726Y-96516869D01*
X67337749Y-96503927D01*
X67322445Y-96491307D01*
X67307380Y-96478640D01*
X67292116Y-96465553D01*
X67276218Y-96451676D01*
X67259250Y-96436636D01*
X67240776Y-96420064D01*
X67220359Y-96401589D01*
X67197564Y-96380838D01*
X67191686Y-96375473D01*
X67178898Y-96363797D01*
X67178893Y-96385474D01*
X67178981Y-96393694D01*
X67179230Y-96405043D01*
X67179615Y-96418654D01*
X67180110Y-96433659D01*
X67180688Y-96449192D01*
X67181076Y-96458666D01*
X67183264Y-96510182D01*
X67177318Y-96522888D01*
X67169922Y-96534986D01*
X67160888Y-96543496D01*
X67150475Y-96548350D01*
X67138943Y-96549482D01*
X67126551Y-96546826D01*
X67113559Y-96540314D01*
X67112450Y-96539589D01*
X67105560Y-96534731D01*
X67096136Y-96527675D01*
X67084677Y-96518829D01*
X67071684Y-96508598D01*
X67057659Y-96497389D01*
X67043103Y-96485609D01*
X67028517Y-96473666D01*
X67014401Y-96461964D01*
X67001257Y-96450912D01*
X66989586Y-96440916D01*
X66979889Y-96432382D01*
X66975882Y-96428740D01*
X66951370Y-96405449D01*
X66925152Y-96379307D01*
X66897686Y-96350828D01*
X66869431Y-96320526D01*
X66840843Y-96288913D01*
X66812382Y-96256504D01*
X66784506Y-96223811D01*
X66757671Y-96191350D01*
X66732338Y-96159632D01*
X66710431Y-96131128D01*
X66689624Y-96102664D01*
X66667796Y-96071314D01*
X66645429Y-96037849D01*
X66623009Y-96003044D01*
X66601019Y-95967671D01*
X66579944Y-95932503D01*
X66560266Y-95898313D01*
X66542469Y-95865873D01*
X66532847Y-95847475D01*
X66527784Y-95837701D01*
X66523327Y-95829314D01*
X66519800Y-95822904D01*
X66517524Y-95819059D01*
X66516846Y-95818210D01*
X66515823Y-95819977D01*
X66513402Y-95824968D01*
X66509786Y-95832739D01*
X66505176Y-95842849D01*
X66499777Y-95854854D01*
X66493791Y-95868313D01*
X66490980Y-95874677D01*
X66484231Y-95889880D01*
X66476168Y-95907848D01*
X66467180Y-95927729D01*
X66457655Y-95948668D01*
X66447981Y-95969811D01*
X66438548Y-95990303D01*
X66430754Y-96007118D01*
X66411416Y-96048941D01*
X66393575Y-96088095D01*
X66376855Y-96125446D01*
X66360877Y-96161861D01*
X66345267Y-96198205D01*
X66329646Y-96235343D01*
X66313637Y-96274141D01*
X66301436Y-96304142D01*
X66296173Y-96317050D01*
X66291319Y-96328762D01*
X66287096Y-96338755D01*
X66283727Y-96346505D01*
X66281437Y-96351490D01*
X66280522Y-96353145D01*
X66280118Y-96351687D01*
X66279819Y-96346594D01*
X66279619Y-96338230D01*
X66279515Y-96326961D01*
X66279502Y-96313150D01*
X66279578Y-96297161D01*
X66279737Y-96279358D01*
X66279976Y-96260107D01*
X66280291Y-96239771D01*
X66280677Y-96218714D01*
X66281131Y-96197300D01*
X66281648Y-96175895D01*
X66282225Y-96154862D01*
X66282858Y-96134565D01*
X66282974Y-96131128D01*
X66285070Y-96079866D01*
X66287811Y-96029802D01*
X66291152Y-95981527D01*
X66295048Y-95935634D01*
X66299457Y-95892716D01*
X66302779Y-95865107D01*
X66303794Y-95857060D01*
X66305216Y-95845571D01*
X66306980Y-95831174D01*
X66309023Y-95814398D01*
X66311278Y-95795775D01*
X66313683Y-95775837D01*
X66316171Y-95755115D01*
X66318680Y-95734141D01*
X66318805Y-95733097D01*
X66322998Y-95698167D01*
X66326812Y-95666924D01*
X66330293Y-95639078D01*
X66333489Y-95614339D01*
X66336447Y-95592415D01*
X66339214Y-95573016D01*
X66341838Y-95555853D01*
X66344365Y-95540633D01*
X66346845Y-95527068D01*
X66349322Y-95514867D01*
X66351846Y-95503739D01*
X66354463Y-95493394D01*
X66357220Y-95483542D01*
X66360166Y-95473891D01*
X66361914Y-95468469D01*
X66367752Y-95451992D01*
X66373643Y-95438532D01*
X66380153Y-95427137D01*
X66387851Y-95416859D01*
X66397304Y-95406746D01*
X66400746Y-95403434D01*
X66413009Y-95393273D01*
X66426728Y-95384785D01*
X66442758Y-95377517D01*
X66461217Y-95371234D01*
X66471309Y-95367842D01*
X66478110Y-95364633D01*
X66482298Y-95361276D01*
X66482718Y-95360771D01*
X66486247Y-95353518D01*
X66486346Y-95346036D01*
X66483347Y-95339321D01*
X66477583Y-95334372D01*
X66473411Y-95332778D01*
X66468916Y-95332836D01*
X66461591Y-95334237D01*
X66452266Y-95336715D01*
X66441773Y-95340004D01*
X66430944Y-95343838D01*
X66420608Y-95347948D01*
X66411598Y-95352070D01*
X66408935Y-95353454D01*
X66387728Y-95367152D01*
X66368969Y-95383843D01*
X66352989Y-95403144D01*
X66340119Y-95424670D01*
X66332861Y-95441613D01*
X66328691Y-95453535D01*
X66324842Y-95465474D01*
X66321261Y-95477740D01*
X66317893Y-95490645D01*
X66314682Y-95504499D01*
X66311574Y-95519613D01*
X66308515Y-95536297D01*
X66305450Y-95554863D01*
X66302324Y-95575622D01*
X66299082Y-95598883D01*
X66295671Y-95624959D01*
X66292034Y-95654159D01*
X66288117Y-95686795D01*
X66284919Y-95714095D01*
X66282779Y-95732439D01*
X66280752Y-95749647D01*
X66278890Y-95765294D01*
X66277246Y-95778953D01*
X66275871Y-95790195D01*
X66274816Y-95798595D01*
X66274133Y-95803724D01*
X66273913Y-95805102D01*
X66273214Y-95809240D01*
X66272170Y-95816772D01*
X66270849Y-95827113D01*
X66269318Y-95839679D01*
X66267644Y-95853884D01*
X66265896Y-95869144D01*
X66264140Y-95884874D01*
X66262443Y-95900489D01*
X66260875Y-95915404D01*
X66259501Y-95929034D01*
X66258915Y-95935113D01*
X66256352Y-95963472D01*
X66254078Y-95991464D01*
X66252078Y-96019494D01*
X66250337Y-96047970D01*
X66248837Y-96077297D01*
X66247565Y-96107882D01*
X66246505Y-96140132D01*
X66245640Y-96174453D01*
X66244956Y-96211251D01*
X66244436Y-96250933D01*
X66244066Y-96293906D01*
X66243879Y-96328143D01*
X66243732Y-96354336D01*
X66243521Y-96381090D01*
X66243253Y-96407866D01*
X66242936Y-96434121D01*
X66242578Y-96459314D01*
X66242187Y-96482904D01*
X66241771Y-96504350D01*
X66241338Y-96523109D01*
X66240896Y-96538641D01*
X66240706Y-96544160D01*
X66240209Y-96559790D01*
X66239739Y-96578734D01*
X66239304Y-96600303D01*
X66238914Y-96623811D01*
X66238579Y-96648571D01*
X66238311Y-96673895D01*
X66238117Y-96699097D01*
X66238009Y-96723489D01*
X66237996Y-96730175D01*
X66237824Y-96847184D01*
X66246340Y-96948192D01*
X66248205Y-96970101D01*
X66250151Y-96992605D01*
X66252120Y-97015030D01*
X66254049Y-97036700D01*
X66255880Y-97056943D01*
X66257551Y-97075082D01*
X66259002Y-97090444D01*
X66259957Y-97100204D01*
X66268502Y-97178029D01*
X66278659Y-97256512D01*
X66290500Y-97336068D01*
X66304098Y-97417118D01*
X66319525Y-97500077D01*
X66336853Y-97585364D01*
X66356155Y-97673396D01*
X66368607Y-97727254D01*
X66375168Y-97754592D01*
X66381200Y-97778517D01*
X66386865Y-97799558D01*
X66392326Y-97818241D01*
X66397744Y-97835093D01*
X66403283Y-97850643D01*
X66409103Y-97865418D01*
X66415369Y-97879945D01*
X66416070Y-97881501D01*
X66420505Y-97891581D01*
X66424272Y-97900657D01*
X66427076Y-97907982D01*
X66428626Y-97912809D01*
X66428839Y-97914066D01*
X66427669Y-97918289D01*
X66424284Y-97919313D01*
X66418872Y-97917139D01*
X66414377Y-97914027D01*
X66409688Y-97910174D01*
X66402459Y-97903956D01*
X66393082Y-97895728D01*
X66381954Y-97885844D01*
X66369470Y-97874655D01*
X66356023Y-97862516D01*
X66342009Y-97849779D01*
X66327823Y-97836798D01*
X66320799Y-97830336D01*
X66313503Y-97823690D01*
X66303703Y-97814884D01*
X66291918Y-97804378D01*
X66278666Y-97792630D01*
X66264466Y-97780102D01*
X66249836Y-97767252D01*
X66235296Y-97754541D01*
X66234793Y-97754101D01*
X66203520Y-97726765D01*
X66174935Y-97701612D01*
X66148640Y-97678275D01*
X66124240Y-97656387D01*
X66101339Y-97635581D01*
X66079541Y-97615490D01*
X66058450Y-97595749D01*
X66037670Y-97575989D01*
X66016805Y-97555843D01*
X65995460Y-97534946D01*
X65973239Y-97512930D01*
X65956740Y-97496446D01*
X65934078Y-97473604D01*
X65912528Y-97451618D01*
X65892304Y-97430719D01*
X65873622Y-97411136D01*
X65856695Y-97393099D01*
X65841740Y-97376837D01*
X65828971Y-97362580D01*
X65818602Y-97350558D01*
X65810850Y-97341000D01*
X65809098Y-97338690D01*
X65799789Y-97326156D01*
X65798400Y-97344690D01*
X65797958Y-97351637D01*
X65797413Y-97361849D01*
X65796800Y-97374595D01*
X65796152Y-97389143D01*
X65795504Y-97404760D01*
X65794888Y-97420714D01*
X65794869Y-97421230D01*
X65794181Y-97438457D01*
X65793294Y-97458553D01*
X65792262Y-97480397D01*
X65791139Y-97502865D01*
X65789982Y-97524834D01*
X65788844Y-97545183D01*
X65788615Y-97549098D01*
X65787472Y-97568134D01*
X65786481Y-97583598D01*
X65785599Y-97595916D01*
X65784780Y-97605511D01*
X65783983Y-97612808D01*
X65783162Y-97618231D01*
X65782274Y-97622204D01*
X65781275Y-97625152D01*
X65780605Y-97626604D01*
X65778757Y-97629937D01*
X65776970Y-97632391D01*
X65775192Y-97633792D01*
X65773370Y-97633967D01*
X65771454Y-97632744D01*
X65769390Y-97629950D01*
X65767126Y-97625411D01*
X65764612Y-97618955D01*
X65761794Y-97610409D01*
X65758620Y-97599600D01*
X65755039Y-97586355D01*
X65750999Y-97570502D01*
X65746447Y-97551866D01*
X65741332Y-97530276D01*
X65735601Y-97505558D01*
X65729203Y-97477539D01*
X65722085Y-97446047D01*
X65714195Y-97410908D01*
X65709791Y-97391227D01*
X65695424Y-97328050D01*
X65680835Y-97266076D01*
X65665821Y-97204509D01*
X65650181Y-97142554D01*
X65633714Y-97079415D01*
X65616218Y-97014298D01*
X65597492Y-96946405D01*
X65593796Y-96933191D01*
X65580613Y-96885794D01*
X65568513Y-96841550D01*
X65557512Y-96800533D01*
X65547629Y-96762811D01*
X65538882Y-96728457D01*
X65531288Y-96697542D01*
X65524865Y-96670137D01*
X65519631Y-96646312D01*
X65515604Y-96626140D01*
X65512801Y-96609691D01*
X65512576Y-96608165D01*
X65511272Y-96600173D01*
X65509936Y-96593638D01*
X65508797Y-96589628D01*
X65508485Y-96589015D01*
X65507700Y-96586288D01*
X65506743Y-96580417D01*
X65505733Y-96572250D01*
X65504787Y-96562631D01*
X65504734Y-96562013D01*
X65503761Y-96552038D01*
X65502677Y-96543173D01*
X65501613Y-96536374D01*
X65500700Y-96532596D01*
X65500687Y-96532565D01*
X65499147Y-96527308D01*
X65498765Y-96524065D01*
X65498051Y-96521490D01*
X65495218Y-96520363D01*
X65490859Y-96520159D01*
X65484426Y-96520665D01*
X65478961Y-96521908D01*
X65478358Y-96522144D01*
X65475608Y-96522742D01*
X65469404Y-96523756D01*
X65460262Y-96525118D01*
X65448700Y-96526762D01*
X65435234Y-96528620D01*
X65420380Y-96530624D01*
X65404656Y-96532708D01*
X65388578Y-96534804D01*
X65372663Y-96536845D01*
X65357428Y-96538763D01*
X65343389Y-96540491D01*
X65331063Y-96541962D01*
X65320968Y-96543109D01*
X65313619Y-96543863D01*
X65309533Y-96544159D01*
X65309359Y-96544160D01*
X65304941Y-96542382D01*
X65299998Y-96537619D01*
X65295110Y-96530734D01*
X65290856Y-96522587D01*
X65287815Y-96514041D01*
X65287153Y-96511158D01*
X65286730Y-96507984D01*
X65285942Y-96501026D01*
X65284809Y-96490481D01*
X65283350Y-96476545D01*
X65281586Y-96459417D01*
X65279536Y-96439293D01*
X65277219Y-96416371D01*
X65274656Y-96390847D01*
X65271866Y-96362920D01*
X65268869Y-96332786D01*
X65265685Y-96300642D01*
X65262333Y-96266686D01*
X65258834Y-96231116D01*
X65255206Y-96194127D01*
X65251470Y-96155918D01*
X65247646Y-96116686D01*
X65246521Y-96105126D01*
X65242680Y-96065650D01*
X65238929Y-96027149D01*
X65235288Y-95989820D01*
X65231776Y-95953859D01*
X65228413Y-95919463D01*
X65225218Y-95886828D01*
X65222210Y-95856151D01*
X65219409Y-95827628D01*
X65216833Y-95801457D01*
X65214503Y-95777833D01*
X65212437Y-95756953D01*
X65210655Y-95739014D01*
X65209177Y-95724212D01*
X65208020Y-95712744D01*
X65207206Y-95704807D01*
X65206753Y-95700596D01*
X65206691Y-95700094D01*
X65205528Y-95691470D01*
X65204340Y-95682450D01*
X65203908Y-95679092D01*
X65203510Y-95675481D01*
X65202768Y-95668229D01*
X65201713Y-95657678D01*
X65200381Y-95644170D01*
X65198803Y-95628047D01*
X65197014Y-95609650D01*
X65195046Y-95589321D01*
X65192934Y-95567402D01*
X65190710Y-95544235D01*
X65188782Y-95524080D01*
X65185925Y-95493958D01*
X65183475Y-95467622D01*
X65181414Y-95444880D01*
X65179729Y-95425538D01*
X65178404Y-95409405D01*
X65177423Y-95396289D01*
X65176836Y-95387004D01*
X65209491Y-95387004D01*
X65209612Y-95389150D01*
X65210105Y-95395118D01*
X65210955Y-95404747D01*
X65212146Y-95417878D01*
X65213664Y-95434351D01*
X65215493Y-95454005D01*
X65217618Y-95476681D01*
X65220023Y-95502218D01*
X65222694Y-95530457D01*
X65225616Y-95561237D01*
X65228773Y-95594399D01*
X65232149Y-95629783D01*
X65235731Y-95667229D01*
X65239502Y-95706576D01*
X65243447Y-95747665D01*
X65247552Y-95790335D01*
X65251800Y-95834427D01*
X65256178Y-95879781D01*
X65260669Y-95926237D01*
X65262709Y-95947318D01*
X65267250Y-95994231D01*
X65271690Y-96040120D01*
X65276013Y-96084827D01*
X65280204Y-96128190D01*
X65284247Y-96170049D01*
X65288127Y-96210244D01*
X65291829Y-96248614D01*
X65295337Y-96284999D01*
X65298636Y-96319237D01*
X65301710Y-96351170D01*
X65304544Y-96380636D01*
X65307122Y-96407475D01*
X65309429Y-96431526D01*
X65311450Y-96452629D01*
X65313168Y-96470624D01*
X65314569Y-96485350D01*
X65315637Y-96496647D01*
X65316357Y-96504354D01*
X65316714Y-96508310D01*
X65316751Y-96508822D01*
X65316719Y-96510112D01*
X65316960Y-96511038D01*
X65317984Y-96511584D01*
X65320297Y-96511735D01*
X65324409Y-96511472D01*
X65330826Y-96510780D01*
X65340057Y-96509641D01*
X65352610Y-96508040D01*
X65356754Y-96507511D01*
X65369336Y-96505876D01*
X65378475Y-96504579D01*
X65384705Y-96503491D01*
X65388556Y-96502480D01*
X65390559Y-96501419D01*
X65391246Y-96500177D01*
X65391225Y-96499102D01*
X65390976Y-96496804D01*
X65390332Y-96490688D01*
X65389309Y-96480914D01*
X65387924Y-96467643D01*
X65386194Y-96451035D01*
X65384135Y-96431251D01*
X65381763Y-96408452D01*
X65379097Y-96382798D01*
X65376151Y-96354449D01*
X65372944Y-96323567D01*
X65369491Y-96290312D01*
X65365809Y-96254844D01*
X65361915Y-96217324D01*
X65357826Y-96177913D01*
X65353559Y-96136771D01*
X65349129Y-96094059D01*
X65344554Y-96049938D01*
X65339850Y-96004567D01*
X65335034Y-95958108D01*
X65332894Y-95937453D01*
X65328035Y-95890603D01*
X65323277Y-95844790D01*
X65318635Y-95800172D01*
X65314129Y-95756909D01*
X65309773Y-95715161D01*
X65305584Y-95675087D01*
X65301581Y-95636847D01*
X65297779Y-95600601D01*
X65294195Y-95566507D01*
X65290846Y-95534725D01*
X65287749Y-95505416D01*
X65284921Y-95478738D01*
X65282378Y-95454851D01*
X65280137Y-95433914D01*
X65278216Y-95416087D01*
X65276631Y-95401530D01*
X65275398Y-95390402D01*
X65274535Y-95382862D01*
X65274059Y-95379070D01*
X65273975Y-95378629D01*
X65271556Y-95378337D01*
X65266048Y-95378588D01*
X65258274Y-95379274D01*
X65249062Y-95380289D01*
X65239234Y-95381525D01*
X65229617Y-95382875D01*
X65221034Y-95384232D01*
X65214312Y-95385488D01*
X65210275Y-95386538D01*
X65209491Y-95387004D01*
X65176836Y-95387004D01*
X65176772Y-95385996D01*
X65176436Y-95378335D01*
X65176399Y-95373114D01*
X65176637Y-95370187D01*
X65179520Y-95361995D01*
X65181471Y-95360053D01*
X65409693Y-95360053D01*
X65409875Y-95361966D01*
X65410421Y-95367379D01*
X65411282Y-95375813D01*
X65412408Y-95386788D01*
X65413752Y-95399825D01*
X65415262Y-95414445D01*
X65416000Y-95421572D01*
X65416950Y-95430746D01*
X65418281Y-95443621D01*
X65419965Y-95459920D01*
X65421973Y-95479365D01*
X65424277Y-95501680D01*
X65426848Y-95526586D01*
X65429657Y-95553805D01*
X65432676Y-95583061D01*
X65435877Y-95614075D01*
X65439229Y-95646570D01*
X65442705Y-95680269D01*
X65446277Y-95714893D01*
X65449915Y-95750165D01*
X65453591Y-95785809D01*
X65453724Y-95787101D01*
X65457288Y-95821607D01*
X65460752Y-95855048D01*
X65464093Y-95887205D01*
X65467289Y-95917860D01*
X65470316Y-95946795D01*
X65473151Y-95973791D01*
X65475771Y-95998631D01*
X65478153Y-96021094D01*
X65480273Y-96040965D01*
X65482109Y-96058023D01*
X65483637Y-96072051D01*
X65484835Y-96082830D01*
X65485679Y-96090142D01*
X65486147Y-96093768D01*
X65486217Y-96094125D01*
X65486748Y-96093191D01*
X65487558Y-96088821D01*
X65488571Y-96081561D01*
X65489710Y-96071962D01*
X65490901Y-96060570D01*
X65491042Y-96059122D01*
X65492365Y-96045876D01*
X65493742Y-96032761D01*
X65495064Y-96020783D01*
X65496220Y-96010947D01*
X65496975Y-96005118D01*
X65499225Y-95990409D01*
X65502185Y-95973064D01*
X65505723Y-95953704D01*
X65509711Y-95932949D01*
X65514018Y-95911420D01*
X65518514Y-95889737D01*
X65523069Y-95868521D01*
X65527553Y-95848391D01*
X65531836Y-95829969D01*
X65535788Y-95813876D01*
X65539280Y-95800731D01*
X65541111Y-95794480D01*
X65542511Y-95789740D01*
X65543453Y-95785591D01*
X65543948Y-95781266D01*
X65544004Y-95775997D01*
X65543631Y-95769017D01*
X65542839Y-95759559D01*
X65541696Y-95747476D01*
X65536840Y-95697045D01*
X65532353Y-95650495D01*
X65528224Y-95607725D01*
X65524445Y-95568635D01*
X65521003Y-95533122D01*
X65517891Y-95501087D01*
X65515098Y-95472428D01*
X65512614Y-95447044D01*
X65510428Y-95424833D01*
X65508532Y-95405696D01*
X65506915Y-95389530D01*
X65505567Y-95376235D01*
X65504479Y-95365710D01*
X65503640Y-95357853D01*
X65503040Y-95352564D01*
X65502670Y-95349742D01*
X65502549Y-95349183D01*
X65500535Y-95349275D01*
X65495227Y-95349780D01*
X65487299Y-95350620D01*
X65477426Y-95351715D01*
X65466284Y-95352987D01*
X65454547Y-95354356D01*
X65442890Y-95355743D01*
X65431989Y-95357069D01*
X65422519Y-95358255D01*
X65415154Y-95359223D01*
X65410569Y-95359893D01*
X65409693Y-95360053D01*
X65181471Y-95360053D01*
X65184618Y-95356920D01*
X65189741Y-95354981D01*
X65192310Y-95354594D01*
X65198542Y-95353750D01*
X65208131Y-95352487D01*
X65220770Y-95350846D01*
X65236152Y-95348865D01*
X65253972Y-95346584D01*
X65273923Y-95344042D01*
X65295699Y-95341278D01*
X65318993Y-95338332D01*
X65343498Y-95335243D01*
X65353239Y-95334017D01*
X65512736Y-95313967D01*
X65520723Y-95318041D01*
X65526380Y-95321597D01*
X65530763Y-95325505D01*
X65531594Y-95326590D01*
X65532549Y-95329489D01*
X65533691Y-95335589D01*
X65535037Y-95345023D01*
X65536604Y-95357923D01*
X65538407Y-95374423D01*
X65540462Y-95394656D01*
X65542627Y-95417072D01*
X65544376Y-95435430D01*
X65546044Y-95452735D01*
X65547587Y-95468541D01*
X65548960Y-95482403D01*
X65550120Y-95493875D01*
X65551020Y-95502511D01*
X65551618Y-95507866D01*
X65551807Y-95509284D01*
X65552840Y-95515490D01*
X65569306Y-95516673D01*
X65586504Y-95518979D01*
X65602131Y-95523173D01*
X65615323Y-95528984D01*
X65621712Y-95533136D01*
X65626904Y-95536914D01*
X65630835Y-95539436D01*
X65632309Y-95540081D01*
X65633604Y-95538368D01*
X65636337Y-95533591D01*
X65640220Y-95526294D01*
X65644965Y-95517023D01*
X65650281Y-95506322D01*
X65651134Y-95504579D01*
X65684996Y-95438953D01*
X65722124Y-95374012D01*
X65762134Y-95310325D01*
X65804641Y-95248464D01*
X65849262Y-95188998D01*
X65895614Y-95132497D01*
X65920246Y-95104508D01*
X65930429Y-95093471D01*
X65942802Y-95080466D01*
X65956835Y-95066019D01*
X65971998Y-95050655D01*
X65987761Y-95034899D01*
X66003595Y-95019275D01*
X66018969Y-95004310D01*
X66033354Y-94990528D01*
X66046221Y-94978454D01*
X66057038Y-94968614D01*
X66059810Y-94966172D01*
X66124738Y-94912052D01*
X66191445Y-94861461D01*
X66259878Y-94814434D01*
X66329983Y-94771004D01*
X66401706Y-94731208D01*
X66474994Y-94695078D01*
X66484598Y-94690669D01*
X66560839Y-94658132D01*
X66638249Y-94629392D01*
X66716710Y-94604473D01*
X66796107Y-94583398D01*
X66876324Y-94566189D01*
X66957243Y-94552870D01*
X67038748Y-94543463D01*
X67120723Y-94537993D01*
X67203052Y-94536482D01*
X67256403Y-94537622D01*
X67336142Y-94542314D01*
X67414443Y-94550476D01*
X67491651Y-94562182D01*
X67568111Y-94577503D01*
X67644170Y-94596511D01*
X67720171Y-94619279D01*
X67796461Y-94645879D01*
X67822948Y-94655973D01*
X67898287Y-94687440D01*
X67971964Y-94722507D01*
X68043844Y-94761080D01*
X68113794Y-94803062D01*
X68181680Y-94848357D01*
X68247366Y-94896868D01*
X68310720Y-94948501D01*
X68371606Y-95003158D01*
X68429891Y-95060744D01*
X68485440Y-95121163D01*
X68505318Y-95144269D01*
X68523789Y-95166470D01*
X68542537Y-95189627D01*
X68560851Y-95212838D01*
X68578022Y-95235201D01*
X68593342Y-95255814D01*
X68597138Y-95261059D01*
X68623853Y-95299748D01*
X68650599Y-95341421D01*
X68676809Y-95385108D01*
X68701919Y-95429839D01*
X68725361Y-95474643D01*
X68743797Y-95512579D01*
X68747996Y-95521351D01*
X68751666Y-95528634D01*
X68754452Y-95533752D01*
X68756000Y-95536026D01*
X68756117Y-95536081D01*
X68758351Y-95534946D01*
X68762479Y-95532073D01*
X68764735Y-95530347D01*
X68778879Y-95521422D01*
X68795195Y-95514783D01*
X68812282Y-95510912D01*
X68823409Y-95510109D01*
X68829193Y-95509732D01*
X68833119Y-95508813D01*
X68833923Y-95508249D01*
X68834377Y-95505927D01*
X68835208Y-95500053D01*
X68836362Y-95491052D01*
X68837789Y-95479349D01*
X68839438Y-95465370D01*
X68841257Y-95449539D01*
X68843194Y-95432282D01*
X68844137Y-95423746D01*
X68846511Y-95402626D01*
X68848716Y-95383982D01*
X68850717Y-95368073D01*
X68852478Y-95355157D01*
X68853966Y-95345491D01*
X68855144Y-95339335D01*
X68855866Y-95337069D01*
X68862856Y-95328463D01*
X68870138Y-95323578D01*
X68877804Y-95322133D01*
X68881042Y-95322383D01*
X68887934Y-95323087D01*
X68898165Y-95324208D01*
X68911419Y-95325710D01*
X68927381Y-95327555D01*
X68945734Y-95329706D01*
X68966164Y-95332127D01*
X68988354Y-95334781D01*
X69011989Y-95337631D01*
X69036753Y-95340640D01*
X69046931Y-95341883D01*
X69207831Y-95361565D01*
X69213444Y-95367848D01*
X69216974Y-95372598D01*
X69218641Y-95377630D01*
X69219058Y-95384723D01*
X69218844Y-95388866D01*
X69218228Y-95396586D01*
X69217253Y-95407482D01*
X69215961Y-95421154D01*
X69214393Y-95437204D01*
X69212593Y-95455232D01*
X69210603Y-95474838D01*
X69208463Y-95495622D01*
X69206217Y-95517185D01*
X69203907Y-95539127D01*
X69201574Y-95561050D01*
X69199260Y-95582552D01*
X69197009Y-95603234D01*
X69194861Y-95622698D01*
X69192859Y-95640543D01*
X69191046Y-95656369D01*
X69189462Y-95669778D01*
X69188151Y-95680369D01*
X69187154Y-95687743D01*
X69187102Y-95688093D01*
X69186497Y-95692753D01*
X69185499Y-95701188D01*
X69184131Y-95713196D01*
X69182414Y-95728572D01*
X69180371Y-95747114D01*
X69178023Y-95768618D01*
X69175392Y-95792880D01*
X69172500Y-95819698D01*
X69169368Y-95848869D01*
X69166020Y-95880188D01*
X69162475Y-95913452D01*
X69158757Y-95948459D01*
X69154887Y-95985005D01*
X69150887Y-96022885D01*
X69146779Y-96061898D01*
X69142585Y-96101840D01*
X69140568Y-96121079D01*
X69135585Y-96168642D01*
X69130996Y-96212386D01*
X69126783Y-96252471D01*
X69122929Y-96289056D01*
X69119415Y-96322302D01*
X69116224Y-96352369D01*
X69113336Y-96379416D01*
X69110734Y-96403604D01*
X69108400Y-96425093D01*
X69106316Y-96444041D01*
X69104463Y-96460610D01*
X69102824Y-96474959D01*
X69101380Y-96487248D01*
X69100113Y-96497638D01*
X69099006Y-96506287D01*
X69098039Y-96513356D01*
X69097195Y-96519005D01*
X69096456Y-96523393D01*
X69095803Y-96526682D01*
X69095219Y-96529029D01*
X69094686Y-96530597D01*
X69094185Y-96531543D01*
X69094048Y-96531718D01*
X69091867Y-96533993D01*
X69089388Y-96535796D01*
X69086240Y-96537121D01*
X69082053Y-96537963D01*
X69076457Y-96538316D01*
X69069080Y-96538174D01*
X69059553Y-96537530D01*
X69047504Y-96536380D01*
X69032563Y-96534716D01*
X69014360Y-96532533D01*
X68994970Y-96530131D01*
X68977287Y-96527888D01*
X68960553Y-96525698D01*
X68945252Y-96523631D01*
X68931871Y-96521753D01*
X68920892Y-96520134D01*
X68912800Y-96518841D01*
X68908081Y-96517944D01*
X68907509Y-96517797D01*
X68901979Y-96516429D01*
X68898667Y-96516606D01*
X68896029Y-96518510D01*
X68895331Y-96519239D01*
X68892265Y-96524373D01*
X68889206Y-96532913D01*
X68886321Y-96544269D01*
X68883775Y-96557849D01*
X68882975Y-96563162D01*
X68881260Y-96573620D01*
X68878682Y-96587153D01*
X68875411Y-96602974D01*
X68871620Y-96620295D01*
X68867481Y-96638327D01*
X68863166Y-96656284D01*
X68859160Y-96672171D01*
X68856787Y-96681352D01*
X68853610Y-96693673D01*
X68849817Y-96708397D01*
X68845598Y-96724790D01*
X68841142Y-96742116D01*
X68836639Y-96759639D01*
X68834445Y-96768178D01*
X68821450Y-96818326D01*
X68809064Y-96865167D01*
X68797123Y-96909318D01*
X68785461Y-96951397D01*
X68782985Y-96960193D01*
X68773734Y-96993443D01*
X68763885Y-97029710D01*
X68753602Y-97068341D01*
X68743052Y-97108682D01*
X68732398Y-97150078D01*
X68721805Y-97191877D01*
X68711440Y-97233425D01*
X68701466Y-97274067D01*
X68692050Y-97313149D01*
X68683356Y-97350019D01*
X68675549Y-97384021D01*
X68672144Y-97399228D01*
X68663821Y-97436687D01*
X68656290Y-97470417D01*
X68649502Y-97500600D01*
X68643406Y-97527419D01*
X68637955Y-97551056D01*
X68633098Y-97571692D01*
X68628787Y-97589510D01*
X68624971Y-97604692D01*
X68621603Y-97617420D01*
X68618632Y-97627876D01*
X68616009Y-97636243D01*
X68613686Y-97642702D01*
X68611612Y-97647436D01*
X68609739Y-97650627D01*
X68608017Y-97652456D01*
X68606397Y-97653107D01*
X68604830Y-97652760D01*
X68603760Y-97652041D01*
X68601703Y-97649979D01*
X68599961Y-97647242D01*
X68598477Y-97643435D01*
X68597191Y-97638165D01*
X68596047Y-97631039D01*
X68594986Y-97621663D01*
X68593949Y-97609644D01*
X68592879Y-97594589D01*
X68592104Y-97582242D01*
X68611010Y-97582242D01*
X68611742Y-97583889D01*
X68612344Y-97583576D01*
X68612583Y-97581202D01*
X68612344Y-97580909D01*
X68611155Y-97581183D01*
X68611010Y-97582242D01*
X68592104Y-97582242D01*
X68591718Y-97576103D01*
X68591164Y-97566794D01*
G37*
G36*
X65696781Y-99654405D02*
G01*
X65512766Y-99654405D01*
X65512766Y-98932349D01*
X65696781Y-98932349D01*
X65696781Y-99654405D01*
G37*
G36*
X66623555Y-99322137D02*
G01*
X66634182Y-99289341D01*
X66749864Y-98932391D01*
X66839558Y-98932870D01*
X66929253Y-98933349D01*
X67046075Y-99293363D01*
X67057989Y-99330082D01*
X67069569Y-99365776D01*
X67080754Y-99400259D01*
X67091484Y-99433344D01*
X67101700Y-99464848D01*
X67111340Y-99494583D01*
X67120346Y-99522365D01*
X67128656Y-99548008D01*
X67136211Y-99571326D01*
X67142950Y-99592135D01*
X67148814Y-99610248D01*
X67153742Y-99625481D01*
X67157674Y-99637647D01*
X67160551Y-99646561D01*
X67162312Y-99652038D01*
X67162896Y-99653891D01*
X67160963Y-99653997D01*
X67155429Y-99654096D01*
X67146696Y-99654185D01*
X67135163Y-99654262D01*
X67121231Y-99654325D01*
X67105299Y-99654371D01*
X67087769Y-99654399D01*
X67073361Y-99654405D01*
X66983825Y-99654405D01*
X66966024Y-99582900D01*
X66961896Y-99566337D01*
X66958011Y-99550775D01*
X66954489Y-99536697D01*
X66951450Y-99524583D01*
X66949016Y-99514915D01*
X66947307Y-99508176D01*
X66946452Y-99504876D01*
X66944682Y-99498358D01*
X66837422Y-99498876D01*
X66730163Y-99499393D01*
X66712775Y-99568399D01*
X66708643Y-99584776D01*
X66704729Y-99600248D01*
X66701162Y-99614306D01*
X66698073Y-99626439D01*
X66695590Y-99636137D01*
X66693845Y-99642891D01*
X66693047Y-99645905D01*
X66690705Y-99654405D01*
X66603542Y-99654405D01*
X66582615Y-99654402D01*
X66565344Y-99654381D01*
X66551381Y-99654326D01*
X66540382Y-99654222D01*
X66532001Y-99654051D01*
X66525893Y-99653797D01*
X66521712Y-99653444D01*
X66519112Y-99652976D01*
X66517749Y-99652376D01*
X66517276Y-99651629D01*
X66517348Y-99650718D01*
X66517440Y-99650348D01*
X66518157Y-99648056D01*
X66520047Y-99642147D01*
X66523048Y-99632810D01*
X66527100Y-99620235D01*
X66532142Y-99604609D01*
X66538112Y-99586122D01*
X66544950Y-99564963D01*
X66552594Y-99541320D01*
X66560983Y-99515383D01*
X66570057Y-99487339D01*
X66579754Y-99457378D01*
X66590014Y-99425688D01*
X66600774Y-99392459D01*
X66608315Y-99369179D01*
X66762865Y-99369179D01*
X66764792Y-99369450D01*
X66770283Y-99369699D01*
X66778900Y-99369920D01*
X66790207Y-99370106D01*
X66803767Y-99370250D01*
X66819142Y-99370344D01*
X66835896Y-99370383D01*
X66838006Y-99370383D01*
X66857334Y-99370374D01*
X66873030Y-99370334D01*
X66885464Y-99370248D01*
X66895002Y-99370096D01*
X66902014Y-99369862D01*
X66906868Y-99369528D01*
X66909933Y-99369077D01*
X66911577Y-99368491D01*
X66912168Y-99367754D01*
X66912087Y-99366883D01*
X66911434Y-99364415D01*
X66909879Y-99358382D01*
X66907501Y-99349095D01*
X66904381Y-99336867D01*
X66900596Y-99322010D01*
X66896228Y-99304836D01*
X66891355Y-99285658D01*
X66886057Y-99264787D01*
X66880413Y-99242535D01*
X66874800Y-99220388D01*
X66868919Y-99197201D01*
X66863316Y-99175163D01*
X66858070Y-99154578D01*
X66853259Y-99135750D01*
X66848961Y-99118983D01*
X66845254Y-99104583D01*
X66842217Y-99092853D01*
X66839927Y-99084097D01*
X66838462Y-99078619D01*
X66837904Y-99076726D01*
X66836870Y-99077743D01*
X66836099Y-99079709D01*
X66835375Y-99082388D01*
X66833783Y-99088514D01*
X66831418Y-99097718D01*
X66828372Y-99109630D01*
X66824738Y-99123883D01*
X66820610Y-99140107D01*
X66816082Y-99157933D01*
X66811247Y-99176992D01*
X66806197Y-99196916D01*
X66801027Y-99217336D01*
X66795829Y-99237883D01*
X66790697Y-99258187D01*
X66785724Y-99277881D01*
X66781004Y-99296594D01*
X66776630Y-99313959D01*
X66772695Y-99329606D01*
X66769293Y-99343167D01*
X66766516Y-99354272D01*
X66764459Y-99362553D01*
X66763214Y-99367640D01*
X66762865Y-99369179D01*
X66608315Y-99369179D01*
X66611975Y-99357879D01*
X66623555Y-99322137D01*
G37*
G36*
X67555669Y-98520831D02*
G01*
X67522429Y-98487437D01*
X67488058Y-98452900D01*
X67452656Y-98417319D01*
X67416322Y-98380794D01*
X67379156Y-98343424D01*
X67341255Y-98305310D01*
X67331817Y-98295817D01*
X67293453Y-98257230D01*
X67255663Y-98219222D01*
X67218554Y-98181899D01*
X67182233Y-98145368D01*
X67146805Y-98109736D01*
X67112378Y-98075111D01*
X67079056Y-98041599D01*
X67046948Y-98009307D01*
X67016159Y-97978343D01*
X66986795Y-97948812D01*
X66958963Y-97920822D01*
X66932770Y-97894481D01*
X66908321Y-97869894D01*
X66885723Y-97847170D01*
X66865082Y-97826414D01*
X66846505Y-97807735D01*
X66830099Y-97791238D01*
X66815968Y-97777031D01*
X66804221Y-97765221D01*
X66794962Y-97755914D01*
X66788300Y-97749219D01*
X66784339Y-97745241D01*
X66784063Y-97744964D01*
X66753864Y-97714671D01*
X66730862Y-97719753D01*
X66722680Y-97721478D01*
X66715345Y-97722773D01*
X66708042Y-97723702D01*
X66699953Y-97724330D01*
X66690264Y-97724721D01*
X66678157Y-97724939D01*
X66663857Y-97725045D01*
X66642939Y-97724898D01*
X66625022Y-97724154D01*
X66609131Y-97722676D01*
X66594293Y-97720330D01*
X66579534Y-97716981D01*
X66563882Y-97712495D01*
X66556674Y-97710195D01*
X66522500Y-97696986D01*
X66490290Y-97680447D01*
X66460240Y-97660809D01*
X66432545Y-97638301D01*
X66407403Y-97613155D01*
X66385008Y-97585601D01*
X66365556Y-97555870D01*
X66349244Y-97524191D01*
X66336266Y-97490796D01*
X66326820Y-97455915D01*
X66323056Y-97435231D01*
X66321077Y-97418253D01*
X66319921Y-97399898D01*
X66319575Y-97381110D01*
X66320022Y-97362833D01*
X66321247Y-97346010D01*
X66323236Y-97331587D01*
X66324856Y-97324222D01*
X66328013Y-97317438D01*
X66333347Y-97310586D01*
X66339709Y-97304861D01*
X66345953Y-97301461D01*
X66346919Y-97301201D01*
X66349953Y-97300642D01*
X66352867Y-97300495D01*
X66355907Y-97300963D01*
X66359319Y-97302249D01*
X66363351Y-97304556D01*
X66368250Y-97308086D01*
X66374262Y-97313043D01*
X66381634Y-97319628D01*
X66390613Y-97328045D01*
X66401445Y-97338497D01*
X66414378Y-97351186D01*
X66429657Y-97366315D01*
X66446293Y-97382855D01*
X66524752Y-97460935D01*
X66599305Y-97458536D01*
X66616692Y-97457955D01*
X66633240Y-97457364D01*
X66648423Y-97456785D01*
X66661711Y-97456237D01*
X66672575Y-97455745D01*
X66680486Y-97455328D01*
X66684859Y-97455016D01*
X66695860Y-97453896D01*
X66729684Y-97359556D01*
X66736328Y-97341023D01*
X66742569Y-97323614D01*
X66748276Y-97307695D01*
X66753316Y-97293633D01*
X66757558Y-97281795D01*
X66760871Y-97272548D01*
X66763124Y-97266258D01*
X66764184Y-97263292D01*
X66764243Y-97263128D01*
X66763128Y-97261307D01*
X66759739Y-97256795D01*
X66754377Y-97249962D01*
X66747349Y-97241176D01*
X66738956Y-97230804D01*
X66729503Y-97219215D01*
X66719294Y-97206776D01*
X66708632Y-97193857D01*
X66697821Y-97180825D01*
X66687165Y-97168048D01*
X66676968Y-97155894D01*
X66667533Y-97144733D01*
X66659165Y-97134930D01*
X66652166Y-97126856D01*
X66647133Y-97121199D01*
X66637739Y-97110304D01*
X66629366Y-97099524D01*
X66622461Y-97089508D01*
X66617467Y-97080908D01*
X66614829Y-97074374D01*
X66614684Y-97073717D01*
X66613920Y-97063883D01*
X66616163Y-97056325D01*
X66621747Y-97050340D01*
X66627469Y-97046888D01*
X66631265Y-97045021D01*
X66634626Y-97043685D01*
X66638266Y-97042816D01*
X66642899Y-97042350D01*
X66649241Y-97042224D01*
X66658006Y-97042372D01*
X66669908Y-97042732D01*
X66672800Y-97042825D01*
X66701505Y-97044617D01*
X66727667Y-97048205D01*
X66752448Y-97053869D01*
X66777009Y-97061891D01*
X66802510Y-97072555D01*
X66810303Y-97076208D01*
X66841893Y-97093475D01*
X66871125Y-97113746D01*
X66897856Y-97136748D01*
X66921942Y-97162208D01*
X66943243Y-97189852D01*
X66961615Y-97219408D01*
X66976917Y-97250603D01*
X66989005Y-97283162D01*
X66997738Y-97316814D01*
X67002973Y-97351285D01*
X67004568Y-97386302D01*
X67002380Y-97421591D01*
X66999749Y-97439684D01*
X66998375Y-97447943D01*
X66997790Y-97453291D01*
X66998035Y-97456747D01*
X66999153Y-97459332D01*
X67000642Y-97461380D01*
X67002323Y-97463146D01*
X67006725Y-97467647D01*
X67013747Y-97474780D01*
X67023288Y-97484445D01*
X67035247Y-97496540D01*
X67049524Y-97510963D01*
X67066018Y-97527613D01*
X67084628Y-97546387D01*
X67105253Y-97567186D01*
X67127793Y-97589907D01*
X67152147Y-97614448D01*
X67178213Y-97640709D01*
X67205892Y-97668587D01*
X67235083Y-97697982D01*
X67265684Y-97728791D01*
X67297596Y-97760913D01*
X67330716Y-97794247D01*
X67364946Y-97828690D01*
X67400183Y-97864142D01*
X67436327Y-97900501D01*
X67473277Y-97937666D01*
X67510217Y-97974815D01*
X67548288Y-98013100D01*
X67585852Y-98050877D01*
X67622795Y-98088033D01*
X67659008Y-98124457D01*
X67694378Y-98160037D01*
X67728795Y-98194660D01*
X67762148Y-98228216D01*
X67794325Y-98260591D01*
X67825214Y-98291673D01*
X67854706Y-98321352D01*
X67882689Y-98349515D01*
X67909050Y-98376050D01*
X67933680Y-98400845D01*
X67956467Y-98423789D01*
X67977300Y-98444769D01*
X67996067Y-98463673D01*
X68012658Y-98480389D01*
X68026961Y-98494806D01*
X68038864Y-98506812D01*
X68048258Y-98516294D01*
X68055029Y-98523141D01*
X68058467Y-98526627D01*
X68071298Y-98539717D01*
X68081528Y-98550324D01*
X68089370Y-98558807D01*
X68095038Y-98565524D01*
X68098747Y-98570833D01*
X68100711Y-98575093D01*
X68101144Y-98578663D01*
X68100260Y-98581902D01*
X68098273Y-98585166D01*
X68095519Y-98588668D01*
X68092521Y-98592032D01*
X68087077Y-98597828D01*
X68079452Y-98605791D01*
X68069906Y-98615656D01*
X68058704Y-98627158D01*
X68046107Y-98640031D01*
X68032379Y-98654011D01*
X68017783Y-98668833D01*
X68002580Y-98684232D01*
X67987035Y-98699943D01*
X67971409Y-98715700D01*
X67955965Y-98731239D01*
X67940967Y-98746295D01*
X67926677Y-98760603D01*
X67913358Y-98773898D01*
X67901273Y-98785914D01*
X67890683Y-98796388D01*
X67881853Y-98805053D01*
X67875045Y-98811644D01*
X67870522Y-98815898D01*
X67868573Y-98817536D01*
X67860775Y-98820095D01*
X67854021Y-98819002D01*
X67852662Y-98818298D01*
X67851025Y-98816753D01*
X67846667Y-98812470D01*
X67839689Y-98805549D01*
X67830189Y-98796089D01*
X67818267Y-98784191D01*
X67804022Y-98769953D01*
X67787553Y-98753475D01*
X67768960Y-98734857D01*
X67748343Y-98714199D01*
X67725800Y-98691600D01*
X67701430Y-98667160D01*
X67675334Y-98640978D01*
X67647611Y-98613155D01*
X67618359Y-98583790D01*
X67612446Y-98577852D01*
X67803130Y-98577852D01*
X67805367Y-98592123D01*
X67811077Y-98605890D01*
X67819100Y-98617191D01*
X67830320Y-98627081D01*
X67843434Y-98633784D01*
X67857748Y-98637169D01*
X67872574Y-98637101D01*
X67887219Y-98633448D01*
X67892275Y-98631249D01*
X67904166Y-98623379D01*
X67914608Y-98612381D01*
X67921355Y-98601913D01*
X67923693Y-98596784D01*
X67925089Y-98591380D01*
X67925762Y-98584441D01*
X67925928Y-98575320D01*
X67925741Y-98565767D01*
X67925034Y-98558942D01*
X67923593Y-98553585D01*
X67921355Y-98548728D01*
X67912083Y-98535149D01*
X67900383Y-98524372D01*
X67891286Y-98518902D01*
X67878243Y-98514479D01*
X67864160Y-98513059D01*
X67850323Y-98514656D01*
X67839950Y-98518281D01*
X67826573Y-98526784D01*
X67816086Y-98537545D01*
X67808606Y-98550012D01*
X67804248Y-98563631D01*
X67803130Y-98577852D01*
X67612446Y-98577852D01*
X67587679Y-98552982D01*
X67555669Y-98520831D01*
G37*
G36*
X66310829Y-98551538D02*
G01*
X66330331Y-98532261D01*
X66340464Y-98522278D01*
X66352691Y-98510288D01*
X66366831Y-98496465D01*
X66382705Y-98480982D01*
X66400132Y-98464016D01*
X66418931Y-98445738D01*
X66438923Y-98426324D01*
X66459927Y-98405947D01*
X66481763Y-98384782D01*
X66504250Y-98363003D01*
X66527209Y-98340782D01*
X66550458Y-98318296D01*
X66573818Y-98295718D01*
X66597109Y-98273221D01*
X66620150Y-98250980D01*
X66642760Y-98229169D01*
X66664760Y-98207962D01*
X66685969Y-98187533D01*
X66706206Y-98168056D01*
X66725293Y-98149705D01*
X66743047Y-98132655D01*
X66759290Y-98117079D01*
X66773841Y-98103151D01*
X66786518Y-98091046D01*
X66797143Y-98080937D01*
X66805535Y-98072999D01*
X66811513Y-98067406D01*
X66814898Y-98064331D01*
X66815582Y-98063780D01*
X66822116Y-98061292D01*
X66828870Y-98060280D01*
X66831728Y-98060525D01*
X66834609Y-98061528D01*
X66838031Y-98063687D01*
X66842508Y-98067403D01*
X66848558Y-98073075D01*
X66856696Y-98081103D01*
X66859860Y-98084269D01*
X66883786Y-98108258D01*
X66927935Y-98064267D01*
X66940460Y-98051824D01*
X66950512Y-98041944D01*
X66958424Y-98034340D01*
X66964530Y-98028722D01*
X66969160Y-98024801D01*
X66972648Y-98022289D01*
X66975325Y-98020897D01*
X66977526Y-98020336D01*
X66978583Y-98020277D01*
X66985166Y-98021207D01*
X66990610Y-98023136D01*
X66993301Y-98025249D01*
X66998294Y-98029848D01*
X67005163Y-98036496D01*
X67013480Y-98044751D01*
X67022820Y-98054177D01*
X67032755Y-98064332D01*
X67042861Y-98074779D01*
X67052710Y-98085077D01*
X67061876Y-98094789D01*
X67069933Y-98103474D01*
X67076454Y-98110695D01*
X67081014Y-98116010D01*
X67082025Y-98117284D01*
X67086950Y-98124208D01*
X67089423Y-98129347D01*
X67089793Y-98133771D01*
X67088703Y-98137803D01*
X67086771Y-98140648D01*
X67082385Y-98145869D01*
X67075941Y-98153036D01*
X67067834Y-98161718D01*
X67058459Y-98171483D01*
X67048418Y-98181694D01*
X67010209Y-98220102D01*
X67038049Y-98249281D01*
X67046797Y-98258489D01*
X67054805Y-98266991D01*
X67061580Y-98274259D01*
X67066632Y-98279765D01*
X67069469Y-98282982D01*
X67069650Y-98283205D01*
X67072195Y-98288437D01*
X67071629Y-98294210D01*
X67067804Y-98300973D01*
X67061286Y-98308448D01*
X67057204Y-98312550D01*
X67050572Y-98319107D01*
X67041565Y-98327950D01*
X67030361Y-98338906D01*
X67017136Y-98351806D01*
X67002067Y-98366478D01*
X66985330Y-98382752D01*
X66967103Y-98400457D01*
X66947561Y-98419421D01*
X66926883Y-98439475D01*
X66905244Y-98460447D01*
X66882820Y-98482167D01*
X66859790Y-98504464D01*
X66836329Y-98527167D01*
X66812614Y-98550104D01*
X66788822Y-98573107D01*
X66765130Y-98596002D01*
X66741713Y-98618621D01*
X66718750Y-98640792D01*
X66696416Y-98662343D01*
X66674889Y-98683106D01*
X66654345Y-98702907D01*
X66634960Y-98721578D01*
X66616912Y-98738946D01*
X66600377Y-98754842D01*
X66585532Y-98769093D01*
X66572553Y-98781531D01*
X66561618Y-98791983D01*
X66552902Y-98800279D01*
X66546583Y-98806248D01*
X66542837Y-98809720D01*
X66541847Y-98810568D01*
X66536787Y-98813360D01*
X66532941Y-98813979D01*
X66528335Y-98812665D01*
X66527477Y-98812325D01*
X66522222Y-98808239D01*
X66519217Y-98801858D01*
X66518846Y-98798538D01*
X66517448Y-98796217D01*
X66513290Y-98791104D01*
X66506420Y-98783252D01*
X66496887Y-98772715D01*
X66484741Y-98759548D01*
X66470033Y-98743802D01*
X66452810Y-98725534D01*
X66433123Y-98704795D01*
X66417338Y-98688247D01*
X66400762Y-98670862D01*
X66384963Y-98654220D01*
X66370165Y-98638559D01*
X66356592Y-98624120D01*
X66344466Y-98611144D01*
X66334013Y-98599870D01*
X66325456Y-98590539D01*
X66319018Y-98583391D01*
X66314923Y-98578666D01*
X66313420Y-98576670D01*
X66311944Y-98571406D01*
X66311040Y-98564392D01*
X66311036Y-98564283D01*
X66343832Y-98564283D01*
X66345173Y-98566034D01*
X66349016Y-98570385D01*
X66355093Y-98577054D01*
X66363133Y-98585755D01*
X66372867Y-98596206D01*
X66384026Y-98608122D01*
X66396341Y-98621221D01*
X66409541Y-98635217D01*
X66423358Y-98649828D01*
X66437522Y-98664769D01*
X66451763Y-98679757D01*
X66465813Y-98694509D01*
X66479401Y-98708740D01*
X66492259Y-98722166D01*
X66504116Y-98734505D01*
X66514704Y-98745472D01*
X66523753Y-98754783D01*
X66530994Y-98762155D01*
X66536157Y-98767303D01*
X66538973Y-98769945D01*
X66539401Y-98770241D01*
X66540983Y-98768882D01*
X66545284Y-98764883D01*
X66552152Y-98758390D01*
X66561435Y-98749547D01*
X66572982Y-98738502D01*
X66586640Y-98725400D01*
X66602259Y-98710388D01*
X66619686Y-98693610D01*
X66638770Y-98675214D01*
X66659360Y-98655345D01*
X66681303Y-98634149D01*
X66704449Y-98611772D01*
X66728645Y-98588360D01*
X66753739Y-98564059D01*
X66775419Y-98543049D01*
X66801363Y-98517899D01*
X66826655Y-98493379D01*
X66851133Y-98469647D01*
X66874636Y-98446858D01*
X66897003Y-98425169D01*
X66918073Y-98404737D01*
X66937683Y-98385718D01*
X66955673Y-98368269D01*
X66971881Y-98352546D01*
X66986146Y-98338706D01*
X66998306Y-98326905D01*
X67008201Y-98317301D01*
X67015667Y-98310049D01*
X67020545Y-98305306D01*
X67022417Y-98303480D01*
X67034950Y-98291197D01*
X67009049Y-98263925D01*
X66997266Y-98251227D01*
X66988254Y-98240803D01*
X66981763Y-98232304D01*
X66977545Y-98225381D01*
X66975350Y-98219683D01*
X66974882Y-98215986D01*
X66976002Y-98213364D01*
X66979453Y-98208723D01*
X66985365Y-98201916D01*
X66993872Y-98192795D01*
X67005106Y-98181210D01*
X67013885Y-98172339D01*
X67024071Y-98162037D01*
X67033260Y-98152610D01*
X67041092Y-98144439D01*
X67047204Y-98137906D01*
X67051234Y-98133393D01*
X67052821Y-98131282D01*
X67052832Y-98131222D01*
X67051480Y-98129314D01*
X67047704Y-98124949D01*
X67041874Y-98118529D01*
X67034361Y-98110457D01*
X67025535Y-98101138D01*
X67017034Y-98092282D01*
X66981291Y-98055279D01*
X66936318Y-98099783D01*
X66922703Y-98113319D01*
X66911613Y-98124262D01*
X66902616Y-98132712D01*
X66895277Y-98138768D01*
X66889165Y-98142529D01*
X66883846Y-98144095D01*
X66878886Y-98143565D01*
X66873853Y-98141040D01*
X66868313Y-98136617D01*
X66861834Y-98130398D01*
X66853981Y-98122481D01*
X66850900Y-98119397D01*
X66825870Y-98094508D01*
X66584851Y-98328309D01*
X66558766Y-98353626D01*
X66533468Y-98378204D01*
X66509106Y-98401897D01*
X66485828Y-98424560D01*
X66463783Y-98446047D01*
X66443120Y-98466214D01*
X66423987Y-98484914D01*
X66406533Y-98502002D01*
X66390906Y-98517333D01*
X66377255Y-98530761D01*
X66365728Y-98542141D01*
X66356474Y-98551327D01*
X66349641Y-98558174D01*
X66345379Y-98562536D01*
X66343835Y-98564268D01*
X66343832Y-98564283D01*
X66311036Y-98564283D01*
X66310920Y-98561429D01*
X66310829Y-98551538D01*
G37*
G36*
X69256591Y-98922782D02*
G01*
X69293432Y-98924706D01*
X69330345Y-98928216D01*
X69366619Y-98933289D01*
X69401546Y-98939899D01*
X69408573Y-98941464D01*
X69423074Y-98944783D01*
X69423074Y-99013572D01*
X69423044Y-99029709D01*
X69422956Y-99044500D01*
X69422819Y-99057489D01*
X69422640Y-99068219D01*
X69422426Y-99076234D01*
X69422184Y-99081076D01*
X69421973Y-99082360D01*
X69419737Y-99081898D01*
X69414352Y-99080627D01*
X69406546Y-99078724D01*
X69397046Y-99076364D01*
X69393470Y-99075467D01*
X69364326Y-99068610D01*
X69337703Y-99063429D01*
X69312549Y-99059801D01*
X69287813Y-99057602D01*
X69262442Y-99056707D01*
X69236473Y-99056961D01*
X69219364Y-99057574D01*
X69205546Y-99058381D01*
X69194315Y-99059445D01*
X69184964Y-99060829D01*
X69179055Y-99062046D01*
X69151269Y-99070101D01*
X69126505Y-99080718D01*
X69104631Y-99093993D01*
X69085517Y-99110025D01*
X69069032Y-99128911D01*
X69055046Y-99150749D01*
X69051579Y-99157366D01*
X69041244Y-99181897D01*
X69033468Y-99209177D01*
X69028230Y-99239313D01*
X69025509Y-99272413D01*
X69025076Y-99293377D01*
X69026448Y-99329284D01*
X69030545Y-99362350D01*
X69037337Y-99392545D01*
X69046795Y-99419835D01*
X69058891Y-99444191D01*
X69073594Y-99465578D01*
X69090875Y-99483967D01*
X69110706Y-99499325D01*
X69133057Y-99511621D01*
X69157899Y-99520822D01*
X69185203Y-99526898D01*
X69214939Y-99529816D01*
X69242861Y-99529757D01*
X69254726Y-99528995D01*
X69266655Y-99527824D01*
X69277280Y-99526400D01*
X69285063Y-99524923D01*
X69300065Y-99521299D01*
X69300585Y-99431840D01*
X69301106Y-99342381D01*
X69143052Y-99342381D01*
X69143052Y-99214347D01*
X69301565Y-99214859D01*
X69460077Y-99215371D01*
X69460077Y-99623032D01*
X69446076Y-99627834D01*
X69414652Y-99637556D01*
X69380745Y-99646135D01*
X69345787Y-99653250D01*
X69311212Y-99658581D01*
X69305065Y-99659335D01*
X69290796Y-99660711D01*
X69274002Y-99661841D01*
X69255659Y-99662701D01*
X69236737Y-99663268D01*
X69218212Y-99663518D01*
X69201057Y-99663427D01*
X69186245Y-99662970D01*
X69177992Y-99662439D01*
X69138177Y-99657383D01*
X69100769Y-99649147D01*
X69065718Y-99637710D01*
X69032977Y-99623052D01*
X69002498Y-99605151D01*
X68974233Y-99583986D01*
X68952975Y-99564482D01*
X68930033Y-99539009D01*
X68910227Y-99511588D01*
X68893471Y-99482037D01*
X68879682Y-99450169D01*
X68868776Y-99415803D01*
X68860670Y-99378753D01*
X68856892Y-99353382D01*
X68855868Y-99342150D01*
X68855128Y-99327900D01*
X68854671Y-99311602D01*
X68854497Y-99294227D01*
X68854607Y-99276748D01*
X68855002Y-99260134D01*
X68855680Y-99245358D01*
X68856642Y-99233391D01*
X68856875Y-99231372D01*
X68863358Y-99191747D01*
X68872738Y-99154840D01*
X68885053Y-99120565D01*
X68900345Y-99088838D01*
X68918654Y-99059574D01*
X68940023Y-99032687D01*
X68963904Y-99008623D01*
X68988489Y-98988864D01*
X69016066Y-98971295D01*
X69046131Y-98956158D01*
X69078181Y-98943694D01*
X69111713Y-98934148D01*
X69124112Y-98931459D01*
X69153581Y-98926785D01*
X69185956Y-98923797D01*
X69220529Y-98922471D01*
X69256591Y-98922782D01*
G37*
G36*
X68028965Y-99066333D02*
G01*
X67882453Y-99066846D01*
X67735942Y-99067359D01*
X67734892Y-99214371D01*
X68008963Y-99214371D01*
X68008963Y-99342381D01*
X67734941Y-99342381D01*
X67734941Y-99518395D01*
X68028965Y-99518395D01*
X68028965Y-99654405D01*
X67566928Y-99654405D01*
X67566928Y-98932349D01*
X68028965Y-98932349D01*
X68028965Y-99066333D01*
G37*
G36*
X67470421Y-97536986D02*
G01*
X67605931Y-97405468D01*
X67641538Y-97305340D01*
X67648389Y-97286141D01*
X67654906Y-97267997D01*
X67660955Y-97251275D01*
X67666403Y-97236339D01*
X67671114Y-97223557D01*
X67674955Y-97213294D01*
X67677791Y-97205915D01*
X67679487Y-97201786D01*
X67679831Y-97201104D01*
X67682171Y-97199443D01*
X67687989Y-97196191D01*
X67697127Y-97191428D01*
X67709425Y-97185231D01*
X67724726Y-97177678D01*
X67742870Y-97168847D01*
X67763701Y-97158816D01*
X67787059Y-97147665D01*
X67812787Y-97135469D01*
X67814630Y-97134599D01*
X67841300Y-97122025D01*
X67864575Y-97111106D01*
X67884657Y-97101750D01*
X67901749Y-97093865D01*
X67916057Y-97087361D01*
X67927783Y-97082148D01*
X67937131Y-97078133D01*
X67944305Y-97075227D01*
X67949508Y-97073337D01*
X67952944Y-97072374D01*
X67954339Y-97072202D01*
X67956831Y-97072340D01*
X67959266Y-97072977D01*
X67962042Y-97074445D01*
X67965555Y-97077075D01*
X67970202Y-97081202D01*
X67976381Y-97087158D01*
X67984487Y-97095274D01*
X67994918Y-97105884D01*
X67996702Y-97107705D01*
X68009552Y-97121015D01*
X68019696Y-97131987D01*
X68027395Y-97140967D01*
X68032910Y-97148301D01*
X68036502Y-97154333D01*
X68038432Y-97159409D01*
X68038965Y-97163564D01*
X68038118Y-97165837D01*
X68035688Y-97171357D01*
X68031844Y-97179773D01*
X68026753Y-97190736D01*
X68020584Y-97203896D01*
X68013504Y-97218901D01*
X68005681Y-97235403D01*
X67997284Y-97253051D01*
X67988480Y-97271494D01*
X67979437Y-97290383D01*
X67970324Y-97309368D01*
X67961308Y-97328097D01*
X67952558Y-97346222D01*
X67944240Y-97363392D01*
X67936524Y-97379257D01*
X67929577Y-97393466D01*
X67923568Y-97405671D01*
X67918663Y-97415519D01*
X67915032Y-97422662D01*
X67912842Y-97426748D01*
X67912309Y-97427571D01*
X67910045Y-97428767D01*
X67904435Y-97431315D01*
X67895840Y-97435064D01*
X67884619Y-97439861D01*
X67871133Y-97445553D01*
X67855742Y-97451987D01*
X67838806Y-97459010D01*
X67820685Y-97466471D01*
X67816036Y-97468377D01*
X67722117Y-97506841D01*
X67587823Y-97637240D01*
X67568196Y-97656261D01*
X67549198Y-97674604D01*
X67531049Y-97692059D01*
X67513968Y-97708419D01*
X67498176Y-97723475D01*
X67483893Y-97737018D01*
X67471337Y-97748840D01*
X67460730Y-97758733D01*
X67452292Y-97766488D01*
X67446241Y-97771896D01*
X67442799Y-97774750D01*
X67442516Y-97774948D01*
X67434625Y-97779692D01*
X67428730Y-97781848D01*
X67423936Y-97781594D01*
X67419862Y-97779479D01*
X67416917Y-97776926D01*
X67411524Y-97771751D01*
X67403972Y-97764249D01*
X67394552Y-97754714D01*
X67383553Y-97743439D01*
X67371265Y-97730719D01*
X67357979Y-97716849D01*
X67353295Y-97711933D01*
X67334910Y-97692612D01*
X67334910Y-97680551D01*
X67366834Y-97680551D01*
X67379024Y-97693902D01*
X67391010Y-97706908D01*
X67401904Y-97718490D01*
X67411428Y-97728368D01*
X67419307Y-97736265D01*
X67425263Y-97741899D01*
X67429020Y-97744993D01*
X67430136Y-97745512D01*
X67431867Y-97744111D01*
X67436256Y-97740116D01*
X67443100Y-97733724D01*
X67452190Y-97725133D01*
X67463322Y-97714539D01*
X67476288Y-97702140D01*
X67490884Y-97688133D01*
X67506902Y-97672715D01*
X67524136Y-97656082D01*
X67542381Y-97638434D01*
X67561429Y-97619966D01*
X67562172Y-97619245D01*
X67581434Y-97600565D01*
X67600029Y-97582563D01*
X67617738Y-97565452D01*
X67634339Y-97549442D01*
X67649612Y-97534747D01*
X67663336Y-97521577D01*
X67675290Y-97510144D01*
X67685254Y-97500661D01*
X67693008Y-97493338D01*
X67698330Y-97488388D01*
X67700964Y-97486051D01*
X67704474Y-97483713D01*
X67710155Y-97480636D01*
X67718235Y-97476717D01*
X67728942Y-97471855D01*
X67742505Y-97465949D01*
X67759150Y-97458898D01*
X67779107Y-97450599D01*
X67798946Y-97442446D01*
X67816811Y-97435106D01*
X67833573Y-97428163D01*
X67848862Y-97421773D01*
X67862306Y-97416094D01*
X67873536Y-97411284D01*
X67882181Y-97407500D01*
X67887871Y-97404900D01*
X67890234Y-97403641D01*
X67890249Y-97403627D01*
X67891410Y-97401546D01*
X67894121Y-97396228D01*
X67898203Y-97388045D01*
X67903477Y-97377367D01*
X67909763Y-97364564D01*
X67916882Y-97350007D01*
X67924653Y-97334066D01*
X67932898Y-97317112D01*
X67941437Y-97299515D01*
X67950089Y-97281646D01*
X67958677Y-97263876D01*
X67967019Y-97246574D01*
X67974937Y-97230111D01*
X67982251Y-97214859D01*
X67988781Y-97201187D01*
X67994348Y-97189465D01*
X67998772Y-97180065D01*
X68001873Y-97173357D01*
X68002090Y-97172879D01*
X68006762Y-97162548D01*
X67978360Y-97133294D01*
X67949958Y-97104039D01*
X67826949Y-97162304D01*
X67703939Y-97220569D01*
X67669172Y-97318899D01*
X67662406Y-97338004D01*
X67655969Y-97356114D01*
X67649999Y-97372852D01*
X67644631Y-97387837D01*
X67640002Y-97400691D01*
X67636248Y-97411034D01*
X67633505Y-97418488D01*
X67631910Y-97422673D01*
X67631658Y-97423273D01*
X67628221Y-97428530D01*
X67624157Y-97432274D01*
X67622038Y-97434085D01*
X67617268Y-97438481D01*
X67610063Y-97445257D01*
X67600636Y-97454207D01*
X67589202Y-97465126D01*
X67575977Y-97477807D01*
X67561174Y-97492045D01*
X67545009Y-97507634D01*
X67527696Y-97524369D01*
X67509450Y-97542042D01*
X67493118Y-97557891D01*
X67366834Y-97680551D01*
X67334910Y-97680551D01*
X67334910Y-97668503D01*
X67470421Y-97536986D01*
G37*
%TO.C,C6*%
X85360000Y-84912164D02*
X85360000Y-85127836D01*
X84640000Y-84912164D02*
X84640000Y-85127836D01*
%TO.C,J2*%
X81780000Y-73220000D02*
X81780000Y-75880000D01*
X81780000Y-75880000D02*
X74100000Y-75880000D01*
X74100000Y-73220000D02*
X74100000Y-75880000D01*
X81780000Y-73220000D02*
X74100000Y-73220000D01*
X83050000Y-73220000D02*
X84380000Y-73220000D01*
X84380000Y-73220000D02*
X84380000Y-74550000D01*
%TO.C,FB1*%
X73790000Y-92149721D02*
X73790000Y-92475279D01*
X74810000Y-92149721D02*
X74810000Y-92475279D01*
%TO.C,R3*%
X91130000Y-85446359D02*
X91130000Y-85753641D01*
X90370000Y-85446359D02*
X90370000Y-85753641D01*
%TO.C,R5*%
X74653641Y-98480000D02*
X74346359Y-98480000D01*
X74653641Y-97720000D02*
X74346359Y-97720000D01*
%TO.C,J4*%
X71840000Y-102830000D02*
X71840000Y-101500000D01*
X82120000Y-102830000D02*
X82120000Y-100170000D01*
X74440000Y-100170000D02*
X82120000Y-100170000D01*
X73170000Y-102830000D02*
X71840000Y-102830000D01*
X74440000Y-102830000D02*
X74440000Y-100170000D01*
X74440000Y-102830000D02*
X82120000Y-102830000D01*
%TO.C,R4*%
X92493641Y-85630000D02*
X92186359Y-85630000D01*
X92493641Y-84870000D02*
X92186359Y-84870000D01*
%TO.C,C8*%
X72190000Y-88637836D02*
X72190000Y-88422164D01*
X72910000Y-88637836D02*
X72910000Y-88422164D01*
%TO.C,SW1*%
X67090000Y-74250000D02*
X67090000Y-79950000D01*
X65800000Y-75700000D02*
X65590000Y-75900000D01*
X65590000Y-75900000D02*
X65590000Y-76800000D01*
X69940000Y-78500000D02*
X69940000Y-78700000D01*
X68100000Y-80550000D02*
X68890000Y-80550000D01*
X67090000Y-75700000D02*
X65800000Y-75700000D01*
X68890000Y-73650000D02*
X68100000Y-73650000D01*
X69940000Y-75500000D02*
X69940000Y-77200000D01*
X65800000Y-77000000D02*
X67090000Y-77000000D01*
X65800000Y-77000000D02*
X65590000Y-76800000D01*
%TO.C,R8*%
X60270000Y-82253641D02*
X60270000Y-81946359D01*
X61030000Y-82253641D02*
X61030000Y-81946359D01*
%TO.C,R6*%
X77903641Y-98480000D02*
X77596359Y-98480000D01*
X77903641Y-97720000D02*
X77596359Y-97720000D01*
%TO.C,R7*%
X92453641Y-88630000D02*
X92146359Y-88630000D01*
X92453641Y-87870000D02*
X92146359Y-87870000D01*
%TO.C,C7*%
X76372164Y-81960000D02*
X76587836Y-81960000D01*
X76372164Y-81240000D02*
X76587836Y-81240000D01*
%TO.C,C1*%
X87088748Y-90615000D02*
X87611252Y-90615000D01*
X87088748Y-92085000D02*
X87611252Y-92085000D01*
%TO.C,C12*%
X70910000Y-85377836D02*
X70910000Y-85162164D01*
X70190000Y-85377836D02*
X70190000Y-85162164D01*
%TO.C,C3*%
X76359420Y-79490000D02*
X76640580Y-79490000D01*
X76359420Y-80510000D02*
X76640580Y-80510000D01*
%TO.C,U1*%
X90860000Y-92800000D02*
X90860000Y-98810000D01*
X90860000Y-98810000D02*
X89600000Y-98810000D01*
X84040000Y-98810000D02*
X85300000Y-98810000D01*
X84040000Y-95050000D02*
X84040000Y-98810000D01*
%TO.C,U2*%
X82610000Y-91110000D02*
X82610000Y-90660000D01*
X75840000Y-91110000D02*
X75390000Y-91110000D01*
X75840000Y-83890000D02*
X75390000Y-83890000D01*
X82160000Y-83890000D02*
X82610000Y-83890000D01*
X82610000Y-83890000D02*
X82610000Y-84340000D01*
X75390000Y-91110000D02*
X75390000Y-90660000D01*
X82160000Y-91110000D02*
X82610000Y-91110000D01*
X75390000Y-83890000D02*
X75390000Y-84340000D01*
X75390000Y-84340000D02*
X74100000Y-84340000D01*
%TO.C,C10*%
X72607836Y-92740000D02*
X72392164Y-92740000D01*
X72607836Y-93460000D02*
X72392164Y-93460000D01*
%TO.C,D1*%
X95315000Y-95215000D02*
X95315000Y-97500000D01*
X96785000Y-95215000D02*
X95315000Y-95215000D01*
X96785000Y-97500000D02*
X96785000Y-95215000D01*
%TO.C,C13*%
X70190000Y-87377836D02*
X70190000Y-87162164D01*
X70910000Y-87377836D02*
X70910000Y-87162164D01*
%TO.C,C11*%
X76642164Y-93040000D02*
X76857836Y-93040000D01*
X76642164Y-93760000D02*
X76857836Y-93760000D01*
%TO.C,C9*%
X72207836Y-91840000D02*
X71992164Y-91840000D01*
X72207836Y-91120000D02*
X71992164Y-91120000D01*
%TO.C,R1*%
X95703641Y-94020000D02*
X95396359Y-94020000D01*
X95703641Y-94780000D02*
X95396359Y-94780000D01*
%TO.C,Y1*%
X69750000Y-84250000D02*
X66450000Y-84250000D01*
X66450000Y-84250000D02*
X66450000Y-88250000D01*
%TO.C,J1*%
X96355000Y-82530000D02*
X98155000Y-82530000D01*
X96355000Y-91470000D02*
X98155000Y-91470000D01*
%TD*%
%LPC*%
D13*
%TO.C,D2*%
X62062500Y-82600000D03*
X63637500Y-82600000D03*
%TD*%
D14*
%TO.C,J5*%
X61625000Y-86280000D03*
D15*
X61625000Y-88820000D03*
X61625000Y-91360000D03*
X61625000Y-93900000D03*
X61625000Y-96440000D03*
%TD*%
D16*
%TO.C,C5*%
X82180000Y-93450000D03*
X81220000Y-93450000D03*
%TD*%
D17*
%TO.C,C4*%
X73250000Y-84030000D03*
X73250000Y-83070000D03*
%TD*%
D18*
%TO.C,R2*%
X75050000Y-77860000D03*
X75050000Y-76840000D03*
%TD*%
D19*
%TO.C,C2*%
X92250000Y-97500000D03*
X92250000Y-95600000D03*
%TD*%
D20*
%TO.C,J3*%
X91200000Y-78990000D03*
X87300000Y-78990000D03*
X91200000Y-77720000D03*
X87300000Y-77720000D03*
X91200000Y-76450000D03*
X87300000Y-76450000D03*
X91200000Y-75180000D03*
X87300000Y-75180000D03*
X91200000Y-73910000D03*
X87300000Y-73910000D03*
%TD*%
D21*
%TO.C,C6*%
X85000000Y-84540000D03*
X85000000Y-85500000D03*
%TD*%
D14*
%TO.C,J2*%
X83050000Y-74550000D03*
D15*
X80510000Y-74550000D03*
X77970000Y-74550000D03*
X75430000Y-74550000D03*
%TD*%
D22*
%TO.C,FB1*%
X74300000Y-91525000D03*
X74300000Y-93100000D03*
%TD*%
D23*
%TO.C,R3*%
X90750000Y-85090000D03*
X90750000Y-86110000D03*
%TD*%
D24*
%TO.C,R5*%
X75010000Y-98100000D03*
X73990000Y-98100000D03*
%TD*%
D14*
%TO.C,J4*%
X73170000Y-101500000D03*
D15*
X75710000Y-101500000D03*
X78250000Y-101500000D03*
X80790000Y-101500000D03*
%TD*%
D24*
%TO.C,R4*%
X92850000Y-85250000D03*
X91830000Y-85250000D03*
%TD*%
D17*
%TO.C,C8*%
X72550000Y-89010000D03*
X72550000Y-88050000D03*
%TD*%
D25*
%TO.C,SW1*%
X69600000Y-80750000D03*
D26*
X68490000Y-78600000D03*
X68490000Y-75600000D03*
D25*
X69600000Y-73450000D03*
X67390000Y-80750000D03*
X67390000Y-73450000D03*
D27*
X70250000Y-74850000D03*
X70250000Y-77850000D03*
X70250000Y-79350000D03*
%TD*%
D18*
%TO.C,R8*%
X60650000Y-82610000D03*
X60650000Y-81590000D03*
%TD*%
D24*
%TO.C,R6*%
X78260000Y-98100000D03*
X77240000Y-98100000D03*
%TD*%
%TO.C,R7*%
X92810000Y-88250000D03*
X91790000Y-88250000D03*
%TD*%
D28*
%TO.C,C7*%
X76000000Y-81600000D03*
X76960000Y-81600000D03*
%TD*%
D29*
%TO.C,C1*%
X86400000Y-91350000D03*
X88300000Y-91350000D03*
%TD*%
D30*
%TO.C,H3*%
X98000000Y-74000000D03*
%TD*%
%TO.C,H2*%
X61000000Y-101000000D03*
%TD*%
D17*
%TO.C,C12*%
X70550000Y-85750000D03*
X70550000Y-84790000D03*
%TD*%
D31*
%TO.C,C3*%
X75725000Y-80000000D03*
X77275000Y-80000000D03*
%TD*%
D30*
%TO.C,H4*%
X98000000Y-101000000D03*
%TD*%
D32*
%TO.C,U1*%
X89750000Y-93750000D03*
X87450000Y-93750000D03*
D33*
X87450000Y-100050000D03*
D32*
X85150000Y-93750000D03*
%TD*%
D34*
%TO.C,U2*%
X74837500Y-84750000D03*
X74837500Y-85250000D03*
X74837500Y-85750000D03*
X74837500Y-86250000D03*
X74837500Y-86750000D03*
X74837500Y-87250000D03*
X74837500Y-87750000D03*
X74837500Y-88250000D03*
X74837500Y-88750000D03*
X74837500Y-89250000D03*
X74837500Y-89750000D03*
X74837500Y-90250000D03*
D35*
X76250000Y-91662500D03*
X76750000Y-91662500D03*
X77250000Y-91662500D03*
X77750000Y-91662500D03*
X78250000Y-91662500D03*
X78750000Y-91662500D03*
X79250000Y-91662500D03*
X79750000Y-91662500D03*
X80250000Y-91662500D03*
X80750000Y-91662500D03*
X81250000Y-91662500D03*
X81750000Y-91662500D03*
D34*
X83162500Y-90250000D03*
X83162500Y-89750000D03*
X83162500Y-89250000D03*
X83162500Y-88750000D03*
X83162500Y-88250000D03*
X83162500Y-87750000D03*
X83162500Y-87250000D03*
X83162500Y-86750000D03*
X83162500Y-86250000D03*
X83162500Y-85750000D03*
X83162500Y-85250000D03*
X83162500Y-84750000D03*
D35*
X81750000Y-83337500D03*
X81250000Y-83337500D03*
X80750000Y-83337500D03*
X80250000Y-83337500D03*
X79750000Y-83337500D03*
X79250000Y-83337500D03*
X78750000Y-83337500D03*
X78250000Y-83337500D03*
X77750000Y-83337500D03*
X77250000Y-83337500D03*
X76750000Y-83337500D03*
X76250000Y-83337500D03*
%TD*%
D16*
%TO.C,C10*%
X72980000Y-93100000D03*
X72020000Y-93100000D03*
%TD*%
D22*
%TO.C,D1*%
X96050000Y-95912500D03*
X96050000Y-97487500D03*
%TD*%
D17*
%TO.C,C13*%
X70550000Y-87750000D03*
X70550000Y-86790000D03*
%TD*%
D28*
%TO.C,C11*%
X76270000Y-93400000D03*
X77230000Y-93400000D03*
%TD*%
D16*
%TO.C,C9*%
X72580000Y-91480000D03*
X71620000Y-91480000D03*
%TD*%
D24*
%TO.C,R1*%
X96060000Y-94400000D03*
X95040000Y-94400000D03*
%TD*%
D36*
%TO.C,Y1*%
X67250000Y-85150000D03*
X67250000Y-87350000D03*
X68950000Y-87350000D03*
X68950000Y-85150000D03*
%TD*%
D37*
%TO.C,J1*%
X95575000Y-84110000D03*
X95575000Y-89890000D03*
D38*
X94515000Y-90200000D03*
X94515000Y-89400000D03*
D39*
X94515000Y-88250000D03*
X94515000Y-87250000D03*
X94515000Y-86750000D03*
X94515000Y-85750000D03*
D38*
X94515000Y-84600000D03*
X94515000Y-83800000D03*
X94515000Y-83800000D03*
X94515000Y-84600000D03*
D39*
X94515000Y-85250000D03*
X94515000Y-86250000D03*
X94515000Y-87750000D03*
X94515000Y-88750000D03*
D38*
X94515000Y-89400000D03*
X94515000Y-90200000D03*
D40*
X99265000Y-91320000D03*
D41*
X95095000Y-82680000D03*
D40*
X99265000Y-82680000D03*
D41*
X95095000Y-91320000D03*
%TD*%
D30*
%TO.C,H1*%
X61000000Y-74000000D03*
%TD*%
M02*
