%TF.GenerationSoftware,KiCad,Pcbnew,(6.0.5)*%
%TF.CreationDate,2022-05-28T10:37:04-07:00*%
%TF.ProjectId,stm32,73746d33-322e-46b6-9963-61645f706362,rev?*%
%TF.SameCoordinates,Original*%
%TF.FileFunction,Copper,L2,Bot*%
%TF.FilePolarity,Positive*%
%FSLAX46Y46*%
G04 Gerber Fmt 4.6, Leading zero omitted, Abs format (unit mm)*
G04 Created by KiCad (PCBNEW (6.0.5)) date 2022-05-28 10:37:04*
%MOMM*%
%LPD*%
G01*
G04 APERTURE LIST*
%TA.AperFunction,ComponentPad*%
%ADD10R,1.700000X1.700000*%
%TD*%
%TA.AperFunction,ComponentPad*%
%ADD11O,1.700000X1.700000*%
%TD*%
%TA.AperFunction,ComponentPad*%
%ADD12O,1.700000X0.900000*%
%TD*%
%TA.AperFunction,ComponentPad*%
%ADD13O,2.000000X0.900000*%
%TD*%
%TA.AperFunction,ViaPad*%
%ADD14C,0.700000*%
%TD*%
%TA.AperFunction,Conductor*%
%ADD15C,0.500000*%
%TD*%
%TA.AperFunction,Conductor*%
%ADD16C,0.300000*%
%TD*%
G04 APERTURE END LIST*
D10*
%TO.P,J5,1,Pin_1*%
%TO.N,+3V3*%
X61625000Y-86280000D03*
D11*
%TO.P,J5,2,Pin_2*%
%TO.N,/USER_IO_1*%
X61625000Y-88820000D03*
%TO.P,J5,3,Pin_3*%
%TO.N,/USER_IO_2*%
X61625000Y-91360000D03*
%TO.P,J5,4,Pin_4*%
%TO.N,/USER_IO_3*%
X61625000Y-93900000D03*
%TO.P,J5,5,Pin_5*%
%TO.N,GND*%
X61625000Y-96440000D03*
%TD*%
D10*
%TO.P,J2,1,Pin_1*%
%TO.N,+3V3*%
X83050000Y-74550000D03*
D11*
%TO.P,J2,2,Pin_2*%
%TO.N,/USART1_TX*%
X80510000Y-74550000D03*
%TO.P,J2,3,Pin_3*%
%TO.N,/USART1_RX*%
X77970000Y-74550000D03*
%TO.P,J2,4,Pin_4*%
%TO.N,GND*%
X75430000Y-74550000D03*
%TD*%
D10*
%TO.P,J4,1,Pin_1*%
%TO.N,+3V3*%
X73170000Y-101500000D03*
D11*
%TO.P,J4,2,Pin_2*%
%TO.N,/I2C2_SCL*%
X75710000Y-101500000D03*
%TO.P,J4,3,Pin_3*%
%TO.N,/I2C2_SDA*%
X78250000Y-101500000D03*
%TO.P,J4,4,Pin_4*%
%TO.N,GND*%
X80790000Y-101500000D03*
%TD*%
D12*
%TO.P,J1,S1,SHIELD*%
%TO.N,GND*%
X99265000Y-91320000D03*
D13*
X95095000Y-82680000D03*
D12*
X99265000Y-82680000D03*
D13*
X95095000Y-91320000D03*
%TD*%
D14*
%TO.N,GND*%
X92250000Y-94400000D03*
X71500000Y-86800000D03*
X85900000Y-85500000D03*
X93000000Y-77725000D03*
X93000000Y-73900000D03*
X93000000Y-76450000D03*
X89450000Y-95550000D03*
X78050000Y-93400000D03*
X68950000Y-83750000D03*
X92800000Y-91150000D03*
X70550000Y-84000000D03*
X89600000Y-91800000D03*
X60650000Y-80750000D03*
X71600000Y-90550011D03*
X76750000Y-84600000D03*
X72300000Y-83100000D03*
X76150000Y-88550000D03*
X65900000Y-87350000D03*
X94150000Y-94400000D03*
X90200000Y-95550000D03*
X71750000Y-74850000D03*
X81250000Y-90200000D03*
X72020000Y-94000000D03*
X90900000Y-88250000D03*
X92900000Y-83800000D03*
X89600000Y-91050000D03*
X91850000Y-84400000D03*
%TO.N,+3V3*%
X65000000Y-81900500D03*
X77949500Y-96650000D03*
X73290500Y-96659077D03*
X74800000Y-96650000D03*
X65000000Y-83299500D03*
X76550500Y-96650000D03*
%TO.N,/JTAG_RST*%
X81350000Y-84700000D03*
X81350000Y-81350000D03*
%TO.N,/USER_IO_1*%
X76930987Y-88996278D03*
X63750000Y-89475000D03*
%TO.N,/USER_IO_2*%
X73400000Y-89900000D03*
X63750000Y-91350000D03*
%TO.N,/USER_IO_3*%
X78550000Y-90050000D03*
X63750000Y-93150000D03*
%TD*%
D15*
%TO.N,+3V3*%
X77949500Y-96650000D02*
X76550500Y-96650000D01*
X73299577Y-96650000D02*
X73290500Y-96659077D01*
X65000000Y-83299500D02*
X65000000Y-81900500D01*
X74800000Y-96650000D02*
X73400000Y-96650000D01*
X73400000Y-96650000D02*
X73299577Y-96650000D01*
D16*
%TO.N,/JTAG_RST*%
X81350000Y-81350000D02*
X81350000Y-84700000D01*
%TO.N,/USER_IO_1*%
X63750000Y-89475000D02*
X64764259Y-89475000D01*
X66388770Y-87850489D02*
X76439748Y-87850489D01*
X76930987Y-88341728D02*
X76930987Y-88996278D01*
X76439748Y-87850489D02*
X76930987Y-88341728D01*
X64764259Y-89475000D02*
X66388770Y-87850489D01*
%TO.N,/USER_IO_2*%
X73350489Y-89850489D02*
X73400000Y-89900000D01*
X67049500Y-89850500D02*
X73350500Y-89850500D01*
X63750000Y-91350000D02*
X65550000Y-91350000D01*
X65550000Y-91350000D02*
X67049500Y-89850500D01*
X73350500Y-89850500D02*
X73400000Y-89900000D01*
%TO.N,/USER_IO_3*%
X77350489Y-91249511D02*
X78550000Y-90050000D01*
X64800000Y-93150000D02*
X63750000Y-93150000D01*
X66700489Y-91249511D02*
X64800000Y-93150000D01*
X66700489Y-91249511D02*
X77350489Y-91249511D01*
%TD*%
%TA.AperFunction,Conductor*%
%TO.N,GND*%
G36*
X85935449Y-71490762D02*
G01*
X98519618Y-71500476D01*
X98537137Y-71501735D01*
X98559742Y-71504980D01*
X98570359Y-71502756D01*
X98580491Y-71502433D01*
X98593885Y-71501216D01*
X98836257Y-71507351D01*
X98850370Y-71508518D01*
X99117420Y-71546093D01*
X99131301Y-71548864D01*
X99290005Y-71590110D01*
X99392278Y-71616691D01*
X99405783Y-71621039D01*
X99657302Y-71718232D01*
X99670222Y-71724095D01*
X99908987Y-71849381D01*
X99921152Y-71856681D01*
X100144042Y-72008420D01*
X100155294Y-72017063D01*
X100359390Y-72193269D01*
X100369581Y-72203139D01*
X100552224Y-72401517D01*
X100561215Y-72412479D01*
X100720004Y-72630426D01*
X100727667Y-72642317D01*
X100860528Y-72876990D01*
X100866794Y-72889703D01*
X100971970Y-73137994D01*
X100976745Y-73151348D01*
X101052871Y-73410032D01*
X101056087Y-73423833D01*
X101072550Y-73518760D01*
X101102163Y-73689510D01*
X101103784Y-73703605D01*
X101117650Y-73945577D01*
X101116849Y-73959222D01*
X101116849Y-73969214D01*
X101114965Y-73979899D01*
X101116849Y-73990583D01*
X101117621Y-73994962D01*
X101119504Y-74016813D01*
X101090019Y-85381698D01*
X101049580Y-100969234D01*
X101049579Y-100969478D01*
X101048322Y-100986765D01*
X101045021Y-101009779D01*
X101047245Y-101020393D01*
X101047568Y-101030466D01*
X101048793Y-101043930D01*
X101047602Y-101091400D01*
X101042772Y-101283970D01*
X101042644Y-101289055D01*
X101041481Y-101303168D01*
X101017788Y-101472081D01*
X101003639Y-101572953D01*
X101000874Y-101586842D01*
X100932518Y-101850550D01*
X100928187Y-101864033D01*
X100845824Y-102077714D01*
X100830210Y-102118221D01*
X100824373Y-102131118D01*
X100706134Y-102357034D01*
X100698048Y-102372484D01*
X100690775Y-102384637D01*
X100681497Y-102398302D01*
X100540087Y-102606586D01*
X100537751Y-102610026D01*
X100529139Y-102621269D01*
X100351416Y-102827735D01*
X100341580Y-102837923D01*
X100141479Y-103022775D01*
X100130544Y-103031775D01*
X99910661Y-103192611D01*
X99898777Y-103200303D01*
X99661986Y-103335020D01*
X99649313Y-103341301D01*
X99398698Y-103448143D01*
X99385384Y-103452940D01*
X99124222Y-103530508D01*
X99110454Y-103533754D01*
X98946430Y-103562661D01*
X98842166Y-103581035D01*
X98828101Y-103582693D01*
X98730843Y-103588552D01*
X98583333Y-103597438D01*
X98569844Y-103596685D01*
X98559761Y-103596716D01*
X98549075Y-103594865D01*
X98538399Y-103596781D01*
X98538397Y-103596781D01*
X98534658Y-103597452D01*
X98512436Y-103599402D01*
X90776058Y-103579437D01*
X59837357Y-103499596D01*
X59816157Y-103497713D01*
X59800000Y-103494864D01*
X59789316Y-103496748D01*
X59778466Y-103496748D01*
X59778466Y-103496710D01*
X59765816Y-103497432D01*
X59568691Y-103485508D01*
X59506204Y-103481729D01*
X59491341Y-103479924D01*
X59344106Y-103452942D01*
X59209202Y-103428220D01*
X59194668Y-103424637D01*
X58920831Y-103339306D01*
X58906831Y-103333997D01*
X58645263Y-103216275D01*
X58632004Y-103209316D01*
X58604371Y-103192611D01*
X58386538Y-103060927D01*
X58374217Y-103052422D01*
X58342522Y-103027590D01*
X58148426Y-102875526D01*
X58137219Y-102865597D01*
X57934403Y-102662781D01*
X57924473Y-102651573D01*
X57923632Y-102650500D01*
X57747576Y-102425780D01*
X57739072Y-102413460D01*
X57731238Y-102400500D01*
X57590684Y-102167996D01*
X57583725Y-102154737D01*
X57466003Y-101893169D01*
X57460694Y-101879169D01*
X57426591Y-101769730D01*
X57375363Y-101605332D01*
X57371780Y-101590798D01*
X57320076Y-101308659D01*
X57318271Y-101293794D01*
X57302568Y-101034184D01*
X57303290Y-101021534D01*
X57303252Y-101021534D01*
X57303252Y-101010684D01*
X57305136Y-101000000D01*
X57302384Y-100984391D01*
X57300500Y-100962861D01*
X57300500Y-100933789D01*
X59595996Y-100933789D01*
X59604913Y-101171295D01*
X59605990Y-101176430D01*
X59605991Y-101176435D01*
X59646356Y-101368814D01*
X59653719Y-101403904D01*
X59655648Y-101408788D01*
X59655649Y-101408792D01*
X59691669Y-101500000D01*
X59741020Y-101624963D01*
X59743741Y-101629447D01*
X59743743Y-101629451D01*
X59825452Y-101764103D01*
X59864319Y-101828153D01*
X60020090Y-102007664D01*
X60203880Y-102158362D01*
X60208441Y-102160958D01*
X60208442Y-102160959D01*
X60405875Y-102273345D01*
X60405880Y-102273347D01*
X60410433Y-102275939D01*
X60633844Y-102357034D01*
X60867725Y-102399326D01*
X60892619Y-102400500D01*
X61059680Y-102400500D01*
X61062296Y-102400278D01*
X61062297Y-102400278D01*
X61128671Y-102394646D01*
X72019500Y-102394646D01*
X72022618Y-102420846D01*
X72068061Y-102523153D01*
X72147287Y-102602241D01*
X72157758Y-102606870D01*
X72157759Y-102606871D01*
X72241147Y-102643737D01*
X72241149Y-102643738D01*
X72249673Y-102647506D01*
X72275354Y-102650500D01*
X74064646Y-102650500D01*
X74068300Y-102650065D01*
X74068302Y-102650065D01*
X74073266Y-102649474D01*
X74090846Y-102647382D01*
X74193153Y-102601939D01*
X74272241Y-102522713D01*
X74317506Y-102420327D01*
X74320500Y-102394646D01*
X74320500Y-101680300D01*
X74340185Y-101613261D01*
X74392989Y-101567506D01*
X74462147Y-101557562D01*
X74525703Y-101586587D01*
X74563477Y-101645365D01*
X74568234Y-101672190D01*
X74568423Y-101675072D01*
X74568425Y-101675082D01*
X74568796Y-101680749D01*
X74620845Y-101885690D01*
X74623219Y-101890841D01*
X74623221Y-101890845D01*
X74678611Y-102010995D01*
X74709369Y-102077714D01*
X74712647Y-102082352D01*
X74815682Y-102228143D01*
X74831405Y-102250391D01*
X74835476Y-102254357D01*
X74835477Y-102254358D01*
X74895310Y-102312645D01*
X74982865Y-102397937D01*
X74987588Y-102401093D01*
X74987592Y-102401096D01*
X75058663Y-102448584D01*
X75158677Y-102515411D01*
X75352953Y-102598878D01*
X75388277Y-102606871D01*
X75553638Y-102644289D01*
X75553642Y-102644290D01*
X75559186Y-102645544D01*
X75685315Y-102650500D01*
X75764789Y-102653623D01*
X75764791Y-102653623D01*
X75770470Y-102653846D01*
X75776090Y-102653031D01*
X75776092Y-102653031D01*
X75974103Y-102624320D01*
X75974104Y-102624320D01*
X75979730Y-102623504D01*
X76019435Y-102610026D01*
X76174565Y-102557367D01*
X76174568Y-102557366D01*
X76179955Y-102555537D01*
X76184916Y-102552759D01*
X76184922Y-102552756D01*
X76291530Y-102493052D01*
X76364442Y-102452219D01*
X76402165Y-102420846D01*
X76522645Y-102320644D01*
X76527012Y-102317012D01*
X76572084Y-102262818D01*
X76658584Y-102158813D01*
X76658585Y-102158811D01*
X76662219Y-102154442D01*
X76708078Y-102072556D01*
X76762756Y-101974922D01*
X76762759Y-101974916D01*
X76765537Y-101969955D01*
X76769113Y-101959422D01*
X76831675Y-101775118D01*
X76833504Y-101769730D01*
X76835726Y-101754404D01*
X76857820Y-101602033D01*
X76886921Y-101538512D01*
X76940225Y-101504346D01*
X77020974Y-101504346D01*
X77074347Y-101538736D01*
X77103296Y-101602327D01*
X77104271Y-101611707D01*
X77108796Y-101680749D01*
X77160845Y-101885690D01*
X77163219Y-101890841D01*
X77163221Y-101890845D01*
X77218611Y-102010995D01*
X77249369Y-102077714D01*
X77252647Y-102082352D01*
X77355682Y-102228143D01*
X77371405Y-102250391D01*
X77375476Y-102254357D01*
X77375477Y-102254358D01*
X77435310Y-102312645D01*
X77522865Y-102397937D01*
X77527588Y-102401093D01*
X77527592Y-102401096D01*
X77598663Y-102448584D01*
X77698677Y-102515411D01*
X77892953Y-102598878D01*
X77928277Y-102606871D01*
X78093638Y-102644289D01*
X78093642Y-102644290D01*
X78099186Y-102645544D01*
X78225315Y-102650500D01*
X78304789Y-102653623D01*
X78304791Y-102653623D01*
X78310470Y-102653846D01*
X78316090Y-102653031D01*
X78316092Y-102653031D01*
X78514103Y-102624320D01*
X78514104Y-102624320D01*
X78519730Y-102623504D01*
X78559435Y-102610026D01*
X78714565Y-102557367D01*
X78714568Y-102557366D01*
X78719955Y-102555537D01*
X78724916Y-102552759D01*
X78724922Y-102552756D01*
X78831530Y-102493052D01*
X78904442Y-102452219D01*
X78942165Y-102420846D01*
X79062645Y-102320644D01*
X79067012Y-102317012D01*
X79112084Y-102262818D01*
X79198584Y-102158813D01*
X79198585Y-102158811D01*
X79202219Y-102154442D01*
X79304059Y-101972594D01*
X79353990Y-101923721D01*
X79422418Y-101909601D01*
X79487617Y-101934717D01*
X79524630Y-101980778D01*
X79614110Y-102172667D01*
X79619508Y-102182017D01*
X79748784Y-102366643D01*
X79755719Y-102374907D01*
X79915091Y-102534279D01*
X79923357Y-102541215D01*
X80107992Y-102670498D01*
X80117324Y-102675886D01*
X80321603Y-102771143D01*
X80331736Y-102774832D01*
X80522779Y-102826022D01*
X80536653Y-102825691D01*
X80540000Y-102817875D01*
X80540000Y-102812806D01*
X81040000Y-102812806D01*
X81043910Y-102826123D01*
X81052326Y-102827333D01*
X81248264Y-102774832D01*
X81258397Y-102771143D01*
X81462676Y-102675886D01*
X81472008Y-102670498D01*
X81656643Y-102541215D01*
X81664909Y-102534279D01*
X81824281Y-102374907D01*
X81831216Y-102366643D01*
X81960492Y-102182017D01*
X81965890Y-102172667D01*
X82061143Y-101968397D01*
X82064832Y-101958264D01*
X82116022Y-101767221D01*
X82115691Y-101753347D01*
X82107875Y-101750000D01*
X81057830Y-101750000D01*
X81042831Y-101754404D01*
X81041644Y-101755774D01*
X81040000Y-101763332D01*
X81040000Y-102812806D01*
X80540000Y-102812806D01*
X80540000Y-101232170D01*
X81040000Y-101232170D01*
X81044404Y-101247169D01*
X81045774Y-101248356D01*
X81053332Y-101250000D01*
X82102806Y-101250000D01*
X82116123Y-101246090D01*
X82117333Y-101237674D01*
X82064832Y-101041736D01*
X82061143Y-101031603D01*
X82015531Y-100933789D01*
X96595996Y-100933789D01*
X96604913Y-101171295D01*
X96605990Y-101176430D01*
X96605991Y-101176435D01*
X96646356Y-101368814D01*
X96653719Y-101403904D01*
X96655648Y-101408788D01*
X96655649Y-101408792D01*
X96691669Y-101500000D01*
X96741020Y-101624963D01*
X96743741Y-101629447D01*
X96743743Y-101629451D01*
X96825452Y-101764103D01*
X96864319Y-101828153D01*
X97020090Y-102007664D01*
X97203880Y-102158362D01*
X97208441Y-102160958D01*
X97208442Y-102160959D01*
X97405875Y-102273345D01*
X97405880Y-102273347D01*
X97410433Y-102275939D01*
X97633844Y-102357034D01*
X97867725Y-102399326D01*
X97892619Y-102400500D01*
X98059680Y-102400500D01*
X98062296Y-102400278D01*
X98062297Y-102400278D01*
X98231590Y-102385913D01*
X98236823Y-102385469D01*
X98466874Y-102325760D01*
X98683576Y-102228143D01*
X98880732Y-102095409D01*
X99052705Y-101931355D01*
X99194579Y-101740670D01*
X99225044Y-101680749D01*
X99299913Y-101533493D01*
X99299915Y-101533488D01*
X99302295Y-101528807D01*
X99309891Y-101504346D01*
X99371215Y-101306848D01*
X99372775Y-101301824D01*
X99373466Y-101296612D01*
X99403315Y-101071412D01*
X99403315Y-101071408D01*
X99404004Y-101066211D01*
X99395087Y-100828705D01*
X99392838Y-100817983D01*
X99347361Y-100601242D01*
X99347360Y-100601239D01*
X99346281Y-100596096D01*
X99341243Y-100583337D01*
X99294792Y-100465719D01*
X99258980Y-100375037D01*
X99244289Y-100350826D01*
X99138408Y-100176341D01*
X99135681Y-100171847D01*
X98979910Y-99992336D01*
X98796120Y-99841638D01*
X98678687Y-99774791D01*
X98594125Y-99726655D01*
X98594120Y-99726653D01*
X98589567Y-99724061D01*
X98366156Y-99642966D01*
X98132275Y-99600674D01*
X98107381Y-99599500D01*
X97940320Y-99599500D01*
X97937704Y-99599722D01*
X97937703Y-99599722D01*
X97926484Y-99600674D01*
X97763177Y-99614531D01*
X97533126Y-99674240D01*
X97316424Y-99771857D01*
X97119268Y-99904591D01*
X96947295Y-100068645D01*
X96805421Y-100259330D01*
X96803042Y-100264008D01*
X96803042Y-100264009D01*
X96703381Y-100460030D01*
X96697705Y-100471193D01*
X96696146Y-100476213D01*
X96696145Y-100476216D01*
X96654904Y-100609035D01*
X96627225Y-100698176D01*
X96626534Y-100703386D01*
X96626534Y-100703388D01*
X96604950Y-100866236D01*
X96595996Y-100933789D01*
X82015531Y-100933789D01*
X81965890Y-100827333D01*
X81960492Y-100817983D01*
X81831216Y-100633357D01*
X81824281Y-100625093D01*
X81664909Y-100465721D01*
X81656643Y-100458785D01*
X81472008Y-100329502D01*
X81462676Y-100324114D01*
X81258397Y-100228857D01*
X81248264Y-100225168D01*
X81057221Y-100173978D01*
X81043347Y-100174309D01*
X81040000Y-100182125D01*
X81040000Y-101232170D01*
X80540000Y-101232170D01*
X80540000Y-100187194D01*
X80536090Y-100173877D01*
X80527674Y-100172667D01*
X80331736Y-100225168D01*
X80321603Y-100228857D01*
X80117333Y-100324110D01*
X80107983Y-100329508D01*
X79923357Y-100458784D01*
X79915093Y-100465719D01*
X79755719Y-100625093D01*
X79748784Y-100633357D01*
X79619508Y-100817983D01*
X79614110Y-100827333D01*
X79522664Y-101023438D01*
X79476491Y-101075877D01*
X79409298Y-101095029D01*
X79342417Y-101074813D01*
X79299071Y-101025878D01*
X79235165Y-100896290D01*
X79108651Y-100726867D01*
X79104481Y-100723012D01*
X79104478Y-100723009D01*
X78998552Y-100625093D01*
X78953381Y-100583337D01*
X78947574Y-100579673D01*
X78779363Y-100473539D01*
X78779361Y-100473538D01*
X78774554Y-100470505D01*
X78578160Y-100392152D01*
X78572579Y-100391042D01*
X78572576Y-100391041D01*
X78469553Y-100370549D01*
X78370775Y-100350901D01*
X78365088Y-100350827D01*
X78365083Y-100350826D01*
X78165034Y-100348207D01*
X78165029Y-100348207D01*
X78159346Y-100348133D01*
X78153742Y-100349096D01*
X78153741Y-100349096D01*
X77956550Y-100382979D01*
X77956547Y-100382980D01*
X77950953Y-100383941D01*
X77752575Y-100457127D01*
X77747697Y-100460029D01*
X77747695Y-100460030D01*
X77575740Y-100562332D01*
X77575737Y-100562334D01*
X77570856Y-100565238D01*
X77411881Y-100704655D01*
X77408362Y-100709119D01*
X77408359Y-100709122D01*
X77390782Y-100731419D01*
X77280976Y-100870708D01*
X77182523Y-101057836D01*
X77180837Y-101063267D01*
X77180835Y-101063271D01*
X77176921Y-101075877D01*
X77119820Y-101259773D01*
X77102851Y-101403140D01*
X77075425Y-101467398D01*
X77020974Y-101504346D01*
X76940225Y-101504346D01*
X76940667Y-101504063D01*
X76888057Y-101472081D01*
X76857453Y-101409271D01*
X76856232Y-101399909D01*
X76846601Y-101295100D01*
X76846081Y-101289440D01*
X76788686Y-101085931D01*
X76695165Y-100896290D01*
X76568651Y-100726867D01*
X76564481Y-100723012D01*
X76564478Y-100723009D01*
X76458552Y-100625093D01*
X76413381Y-100583337D01*
X76407574Y-100579673D01*
X76239363Y-100473539D01*
X76239361Y-100473538D01*
X76234554Y-100470505D01*
X76038160Y-100392152D01*
X76032579Y-100391042D01*
X76032576Y-100391041D01*
X75929553Y-100370549D01*
X75830775Y-100350901D01*
X75825088Y-100350827D01*
X75825083Y-100350826D01*
X75625034Y-100348207D01*
X75625029Y-100348207D01*
X75619346Y-100348133D01*
X75613742Y-100349096D01*
X75613741Y-100349096D01*
X75416550Y-100382979D01*
X75416547Y-100382980D01*
X75410953Y-100383941D01*
X75212575Y-100457127D01*
X75207697Y-100460029D01*
X75207695Y-100460030D01*
X75035740Y-100562332D01*
X75035737Y-100562334D01*
X75030856Y-100565238D01*
X74871881Y-100704655D01*
X74868362Y-100709119D01*
X74868359Y-100709122D01*
X74850782Y-100731419D01*
X74740976Y-100870708D01*
X74642523Y-101057836D01*
X74640837Y-101063267D01*
X74640835Y-101063271D01*
X74636921Y-101075877D01*
X74579820Y-101259773D01*
X74579152Y-101265418D01*
X74579151Y-101265422D01*
X74567640Y-101362681D01*
X74540213Y-101426942D01*
X74482397Y-101466173D01*
X74412549Y-101467919D01*
X74352845Y-101431625D01*
X74322241Y-101368814D01*
X74320500Y-101348106D01*
X74320500Y-100605354D01*
X74317382Y-100579154D01*
X74271939Y-100476847D01*
X74192713Y-100397759D01*
X74182242Y-100393130D01*
X74182241Y-100393129D01*
X74098853Y-100356263D01*
X74098851Y-100356262D01*
X74090327Y-100352494D01*
X74064646Y-100349500D01*
X72275354Y-100349500D01*
X72271700Y-100349935D01*
X72271698Y-100349935D01*
X72266734Y-100350526D01*
X72249154Y-100352618D01*
X72146847Y-100398061D01*
X72067759Y-100477287D01*
X72063130Y-100487758D01*
X72063129Y-100487759D01*
X72028876Y-100565238D01*
X72022494Y-100579673D01*
X72019500Y-100605354D01*
X72019500Y-102394646D01*
X61128671Y-102394646D01*
X61231590Y-102385913D01*
X61236823Y-102385469D01*
X61466874Y-102325760D01*
X61683576Y-102228143D01*
X61880732Y-102095409D01*
X62052705Y-101931355D01*
X62194579Y-101740670D01*
X62225044Y-101680749D01*
X62299913Y-101533493D01*
X62299915Y-101533488D01*
X62302295Y-101528807D01*
X62309891Y-101504346D01*
X62371215Y-101306848D01*
X62372775Y-101301824D01*
X62373466Y-101296612D01*
X62403315Y-101071412D01*
X62403315Y-101071408D01*
X62404004Y-101066211D01*
X62395087Y-100828705D01*
X62392838Y-100817983D01*
X62347361Y-100601242D01*
X62347360Y-100601239D01*
X62346281Y-100596096D01*
X62341243Y-100583337D01*
X62294792Y-100465719D01*
X62258980Y-100375037D01*
X62244289Y-100350826D01*
X62138408Y-100176341D01*
X62135681Y-100171847D01*
X61979910Y-99992336D01*
X61796120Y-99841638D01*
X61678687Y-99774791D01*
X61594125Y-99726655D01*
X61594120Y-99726653D01*
X61589567Y-99724061D01*
X61366156Y-99642966D01*
X61132275Y-99600674D01*
X61107381Y-99599500D01*
X60940320Y-99599500D01*
X60937704Y-99599722D01*
X60937703Y-99599722D01*
X60926484Y-99600674D01*
X60763177Y-99614531D01*
X60533126Y-99674240D01*
X60316424Y-99771857D01*
X60119268Y-99904591D01*
X59947295Y-100068645D01*
X59805421Y-100259330D01*
X59803042Y-100264008D01*
X59803042Y-100264009D01*
X59703381Y-100460030D01*
X59697705Y-100471193D01*
X59696146Y-100476213D01*
X59696145Y-100476216D01*
X59654904Y-100609035D01*
X59627225Y-100698176D01*
X59626534Y-100703386D01*
X59626534Y-100703388D01*
X59604950Y-100866236D01*
X59595996Y-100933789D01*
X57300500Y-100933789D01*
X57300500Y-96702326D01*
X60297667Y-96702326D01*
X60350168Y-96898264D01*
X60353857Y-96908397D01*
X60449110Y-97112667D01*
X60454508Y-97122017D01*
X60583784Y-97306643D01*
X60590719Y-97314907D01*
X60750091Y-97474279D01*
X60758357Y-97481215D01*
X60942992Y-97610498D01*
X60952324Y-97615886D01*
X61156603Y-97711143D01*
X61166736Y-97714832D01*
X61357779Y-97766022D01*
X61371653Y-97765691D01*
X61375000Y-97757875D01*
X61375000Y-97752806D01*
X61875000Y-97752806D01*
X61878910Y-97766123D01*
X61887326Y-97767333D01*
X62083264Y-97714832D01*
X62093397Y-97711143D01*
X62297676Y-97615886D01*
X62307008Y-97610498D01*
X62491643Y-97481215D01*
X62499909Y-97474279D01*
X62659281Y-97314907D01*
X62666216Y-97306643D01*
X62795492Y-97122017D01*
X62800890Y-97112667D01*
X62896143Y-96908397D01*
X62899832Y-96898264D01*
X62951022Y-96707221D01*
X62950691Y-96693347D01*
X62942875Y-96690000D01*
X61892830Y-96690000D01*
X61877831Y-96694404D01*
X61876644Y-96695774D01*
X61875000Y-96703332D01*
X61875000Y-97752806D01*
X61375000Y-97752806D01*
X61375000Y-96707830D01*
X61370596Y-96692831D01*
X61369226Y-96691644D01*
X61361668Y-96690000D01*
X60312194Y-96690000D01*
X60298877Y-96693910D01*
X60297667Y-96702326D01*
X57300500Y-96702326D01*
X57300500Y-96652215D01*
X72635258Y-96652215D01*
X72636078Y-96659643D01*
X72636078Y-96659645D01*
X72641398Y-96707830D01*
X72652535Y-96808710D01*
X72706643Y-96956567D01*
X72710814Y-96962774D01*
X72784188Y-97071965D01*
X72794458Y-97087249D01*
X72822392Y-97112667D01*
X72905378Y-97188179D01*
X72905382Y-97188182D01*
X72910910Y-97193212D01*
X72917480Y-97196779D01*
X72917481Y-97196780D01*
X73042708Y-97264773D01*
X73049276Y-97268339D01*
X73151531Y-97295165D01*
X73194341Y-97306396D01*
X73194343Y-97306396D01*
X73201569Y-97308292D01*
X73278627Y-97309502D01*
X73351525Y-97310648D01*
X73351528Y-97310648D01*
X73358995Y-97310765D01*
X73366276Y-97309097D01*
X73366280Y-97309097D01*
X73505181Y-97277284D01*
X73512468Y-97275615D01*
X73635528Y-97213722D01*
X73691244Y-97200500D01*
X74419058Y-97200500D01*
X74478226Y-97215527D01*
X74558776Y-97259262D01*
X74661031Y-97286088D01*
X74703841Y-97297319D01*
X74703843Y-97297319D01*
X74711069Y-97299215D01*
X74788127Y-97300425D01*
X74861025Y-97301571D01*
X74861028Y-97301571D01*
X74868495Y-97301688D01*
X74875776Y-97300020D01*
X74875780Y-97300020D01*
X75014681Y-97268207D01*
X75021968Y-97266538D01*
X75162625Y-97195795D01*
X75168306Y-97190943D01*
X75168309Y-97190941D01*
X75276666Y-97098395D01*
X75276667Y-97098394D01*
X75282348Y-97093542D01*
X75293393Y-97078172D01*
X75313798Y-97049775D01*
X75374224Y-96965683D01*
X75432950Y-96819598D01*
X75435557Y-96801282D01*
X75454562Y-96667744D01*
X75454562Y-96667740D01*
X75455134Y-96663723D01*
X75455278Y-96650000D01*
X75454448Y-96643138D01*
X75895258Y-96643138D01*
X75896078Y-96650566D01*
X75896078Y-96650568D01*
X75900613Y-96691644D01*
X75912535Y-96799633D01*
X75915101Y-96806645D01*
X75915102Y-96806649D01*
X75917134Y-96812201D01*
X75966643Y-96947490D01*
X76054458Y-97078172D01*
X76076683Y-97098395D01*
X76165378Y-97179102D01*
X76165382Y-97179105D01*
X76170910Y-97184135D01*
X76177480Y-97187702D01*
X76177481Y-97187703D01*
X76302708Y-97255696D01*
X76309276Y-97259262D01*
X76411531Y-97286088D01*
X76454341Y-97297319D01*
X76454343Y-97297319D01*
X76461569Y-97299215D01*
X76538627Y-97300425D01*
X76611525Y-97301571D01*
X76611528Y-97301571D01*
X76618995Y-97301688D01*
X76626276Y-97300020D01*
X76626280Y-97300020D01*
X76765177Y-97268208D01*
X76765178Y-97268208D01*
X76772468Y-97266538D01*
X76877481Y-97213722D01*
X76933197Y-97200500D01*
X77568558Y-97200500D01*
X77627726Y-97215527D01*
X77708276Y-97259262D01*
X77810531Y-97286088D01*
X77853341Y-97297319D01*
X77853343Y-97297319D01*
X77860569Y-97299215D01*
X77937627Y-97300425D01*
X78010525Y-97301571D01*
X78010528Y-97301571D01*
X78017995Y-97301688D01*
X78025276Y-97300020D01*
X78025280Y-97300020D01*
X78164181Y-97268207D01*
X78171468Y-97266538D01*
X78312125Y-97195795D01*
X78317806Y-97190943D01*
X78317809Y-97190941D01*
X78426166Y-97098395D01*
X78426167Y-97098394D01*
X78431848Y-97093542D01*
X78442893Y-97078172D01*
X78463298Y-97049775D01*
X78523724Y-96965683D01*
X78582450Y-96819598D01*
X78585057Y-96801282D01*
X78604062Y-96667744D01*
X78604062Y-96667740D01*
X78604634Y-96663723D01*
X78604778Y-96650000D01*
X78603051Y-96635727D01*
X78586762Y-96501119D01*
X78586761Y-96501115D01*
X78585863Y-96493694D01*
X78530210Y-96346412D01*
X78521837Y-96334229D01*
X78445268Y-96222821D01*
X78445265Y-96222818D01*
X78441031Y-96216657D01*
X78391784Y-96172779D01*
X78329059Y-96116893D01*
X78329058Y-96116892D01*
X78323476Y-96111919D01*
X78184331Y-96038245D01*
X78071428Y-96009886D01*
X78038878Y-96001710D01*
X78031628Y-95999889D01*
X77949829Y-95999461D01*
X77881658Y-95999104D01*
X77881657Y-95999104D01*
X77874184Y-95999065D01*
X77866921Y-96000809D01*
X77866918Y-96000809D01*
X77825358Y-96010787D01*
X77721088Y-96035820D01*
X77696862Y-96048324D01*
X77624468Y-96085689D01*
X77567596Y-96099500D01*
X76931824Y-96099500D01*
X76873801Y-96085087D01*
X76791943Y-96041745D01*
X76791937Y-96041743D01*
X76785331Y-96038245D01*
X76672428Y-96009886D01*
X76639878Y-96001710D01*
X76632628Y-95999889D01*
X76550829Y-95999461D01*
X76482658Y-95999104D01*
X76482657Y-95999104D01*
X76475184Y-95999065D01*
X76467921Y-96000809D01*
X76467918Y-96000809D01*
X76426358Y-96010787D01*
X76322088Y-96035820D01*
X76182179Y-96108032D01*
X76063534Y-96211533D01*
X75973001Y-96340348D01*
X75915809Y-96487039D01*
X75895258Y-96643138D01*
X75454448Y-96643138D01*
X75453551Y-96635727D01*
X75437262Y-96501119D01*
X75437261Y-96501115D01*
X75436363Y-96493694D01*
X75380710Y-96346412D01*
X75372337Y-96334229D01*
X75295768Y-96222821D01*
X75295765Y-96222818D01*
X75291531Y-96216657D01*
X75242284Y-96172779D01*
X75179559Y-96116893D01*
X75179558Y-96116892D01*
X75173976Y-96111919D01*
X75034831Y-96038245D01*
X74921928Y-96009886D01*
X74889378Y-96001710D01*
X74882128Y-95999889D01*
X74800329Y-95999461D01*
X74732158Y-95999104D01*
X74732157Y-95999104D01*
X74724684Y-95999065D01*
X74717421Y-96000809D01*
X74717418Y-96000809D01*
X74675858Y-96010787D01*
X74571588Y-96035820D01*
X74547362Y-96048324D01*
X74474968Y-96085689D01*
X74418096Y-96099500D01*
X73654680Y-96099500D01*
X73596656Y-96085087D01*
X73531939Y-96050821D01*
X73525331Y-96047322D01*
X73372628Y-96008966D01*
X73290829Y-96008538D01*
X73222658Y-96008181D01*
X73222657Y-96008181D01*
X73215184Y-96008142D01*
X73207921Y-96009886D01*
X73207918Y-96009886D01*
X73138636Y-96026520D01*
X73062088Y-96044897D01*
X72922179Y-96117109D01*
X72803534Y-96220610D01*
X72713001Y-96349425D01*
X72655809Y-96496116D01*
X72635258Y-96652215D01*
X57300500Y-96652215D01*
X57300500Y-96172779D01*
X60298978Y-96172779D01*
X60299309Y-96186653D01*
X60307125Y-96190000D01*
X62937806Y-96190000D01*
X62951123Y-96186090D01*
X62952333Y-96177674D01*
X62899832Y-95981736D01*
X62896143Y-95971603D01*
X62800890Y-95767333D01*
X62795492Y-95757983D01*
X62666216Y-95573357D01*
X62659281Y-95565093D01*
X62499909Y-95405721D01*
X62491643Y-95398785D01*
X62307008Y-95269502D01*
X62297676Y-95264114D01*
X62105778Y-95174630D01*
X62053339Y-95128458D01*
X62034187Y-95061264D01*
X62054403Y-94994383D01*
X62097594Y-94954059D01*
X62279442Y-94852219D01*
X62442012Y-94717012D01*
X62445644Y-94712645D01*
X62573584Y-94558813D01*
X62573585Y-94558811D01*
X62577219Y-94554442D01*
X62623078Y-94472556D01*
X62677756Y-94374922D01*
X62677759Y-94374916D01*
X62680537Y-94369955D01*
X62711009Y-94280189D01*
X62746675Y-94175118D01*
X62748504Y-94169730D01*
X62778846Y-93960470D01*
X62780429Y-93900000D01*
X62761081Y-93689440D01*
X62703686Y-93485931D01*
X62610165Y-93296290D01*
X62495801Y-93143138D01*
X63094758Y-93143138D01*
X63112035Y-93299633D01*
X63166143Y-93447490D01*
X63253958Y-93578172D01*
X63279748Y-93601639D01*
X63364878Y-93679102D01*
X63364882Y-93679105D01*
X63370410Y-93684135D01*
X63376980Y-93687702D01*
X63376981Y-93687703D01*
X63391885Y-93695795D01*
X63508776Y-93759262D01*
X63611031Y-93786088D01*
X63653841Y-93797319D01*
X63653843Y-93797319D01*
X63661069Y-93799215D01*
X63738127Y-93800425D01*
X63811025Y-93801571D01*
X63811028Y-93801571D01*
X63818495Y-93801688D01*
X63825776Y-93800020D01*
X63825780Y-93800020D01*
X63964681Y-93768207D01*
X63971968Y-93766538D01*
X64112625Y-93695795D01*
X64118306Y-93690943D01*
X64118309Y-93690941D01*
X64189415Y-93630210D01*
X64253177Y-93601639D01*
X64269947Y-93600500D01*
X64765897Y-93600500D01*
X64780471Y-93601359D01*
X64805105Y-93604275D01*
X64805108Y-93604275D01*
X64814310Y-93605364D01*
X64850975Y-93598668D01*
X64872022Y-93594824D01*
X64875864Y-93594184D01*
X64909017Y-93589199D01*
X64933962Y-93585449D01*
X64940475Y-93582321D01*
X64947573Y-93581025D01*
X64955799Y-93576752D01*
X64999663Y-93553967D01*
X65003146Y-93552227D01*
X65056079Y-93526809D01*
X65061299Y-93521984D01*
X65061520Y-93521835D01*
X65067788Y-93518579D01*
X65072828Y-93514275D01*
X65110097Y-93477006D01*
X65113607Y-93473631D01*
X65148749Y-93441147D01*
X65148751Y-93441144D01*
X65155556Y-93434854D01*
X65159237Y-93428516D01*
X65164828Y-93422275D01*
X66850773Y-91736330D01*
X66912096Y-91702845D01*
X66938454Y-91700011D01*
X77316386Y-91700011D01*
X77330960Y-91700870D01*
X77355594Y-91703786D01*
X77355597Y-91703786D01*
X77364799Y-91704875D01*
X77401463Y-91698179D01*
X77422511Y-91694335D01*
X77426353Y-91693695D01*
X77459506Y-91688710D01*
X77484451Y-91684960D01*
X77490964Y-91681832D01*
X77498062Y-91680536D01*
X77549730Y-91653697D01*
X77550152Y-91653478D01*
X77553635Y-91651738D01*
X77606568Y-91626320D01*
X77611788Y-91621495D01*
X77612009Y-91621346D01*
X77618277Y-91618090D01*
X77623317Y-91613786D01*
X77657185Y-91579918D01*
X93628359Y-91579918D01*
X93684573Y-91732704D01*
X93690052Y-91743939D01*
X93785132Y-91897287D01*
X93792760Y-91907192D01*
X93916730Y-92038287D01*
X93926199Y-92046460D01*
X94073994Y-92149947D01*
X94084912Y-92156049D01*
X94250497Y-92227704D01*
X94262418Y-92231486D01*
X94440521Y-92268693D01*
X94449940Y-92269917D01*
X94453126Y-92270000D01*
X94827170Y-92270000D01*
X94842169Y-92265596D01*
X94843356Y-92264226D01*
X94845000Y-92256668D01*
X94845000Y-92252170D01*
X95345000Y-92252170D01*
X95349404Y-92267169D01*
X95350774Y-92268356D01*
X95358332Y-92270000D01*
X95690091Y-92270000D01*
X95696353Y-92269683D01*
X95830755Y-92256030D01*
X95843005Y-92253516D01*
X96015184Y-92199558D01*
X96026667Y-92194637D01*
X96184482Y-92107159D01*
X96194744Y-92100027D01*
X96331739Y-91982607D01*
X96340363Y-91973551D01*
X96450947Y-91830987D01*
X96457575Y-91820380D01*
X96537235Y-91658490D01*
X96541594Y-91646770D01*
X96557097Y-91587251D01*
X96556871Y-91579918D01*
X97948359Y-91579918D01*
X98004573Y-91732704D01*
X98010052Y-91743939D01*
X98105132Y-91897287D01*
X98112760Y-91907192D01*
X98236730Y-92038287D01*
X98246199Y-92046460D01*
X98393994Y-92149947D01*
X98404912Y-92156049D01*
X98570497Y-92227704D01*
X98582418Y-92231486D01*
X98760521Y-92268693D01*
X98769940Y-92269917D01*
X98773126Y-92270000D01*
X98997170Y-92270000D01*
X99012169Y-92265596D01*
X99013356Y-92264226D01*
X99015000Y-92256668D01*
X99015000Y-92252170D01*
X99515000Y-92252170D01*
X99519404Y-92267169D01*
X99520774Y-92268356D01*
X99528332Y-92270000D01*
X99710091Y-92270000D01*
X99716353Y-92269683D01*
X99850755Y-92256030D01*
X99863005Y-92253516D01*
X100035184Y-92199558D01*
X100046667Y-92194637D01*
X100204482Y-92107159D01*
X100214744Y-92100027D01*
X100351739Y-91982607D01*
X100360363Y-91973551D01*
X100470947Y-91830987D01*
X100477575Y-91820380D01*
X100557235Y-91658490D01*
X100561594Y-91646770D01*
X100577097Y-91587251D01*
X100576670Y-91573381D01*
X100568621Y-91570000D01*
X99532830Y-91570000D01*
X99517831Y-91574404D01*
X99516644Y-91575774D01*
X99515000Y-91583332D01*
X99515000Y-92252170D01*
X99015000Y-92252170D01*
X99015000Y-91587830D01*
X99010596Y-91572831D01*
X99009226Y-91571644D01*
X99001668Y-91570000D01*
X97962540Y-91570000D01*
X97949223Y-91573910D01*
X97948359Y-91579918D01*
X96556871Y-91579918D01*
X96556670Y-91573381D01*
X96548621Y-91570000D01*
X95362830Y-91570000D01*
X95347831Y-91574404D01*
X95346644Y-91575774D01*
X95345000Y-91583332D01*
X95345000Y-92252170D01*
X94845000Y-92252170D01*
X94845000Y-91587830D01*
X94840596Y-91572831D01*
X94839226Y-91571644D01*
X94831668Y-91570000D01*
X93642540Y-91570000D01*
X93629223Y-91573910D01*
X93628359Y-91579918D01*
X77657185Y-91579918D01*
X77660586Y-91576517D01*
X77664096Y-91573142D01*
X77699238Y-91540658D01*
X77699240Y-91540655D01*
X77706045Y-91534365D01*
X77709726Y-91528027D01*
X77715317Y-91521786D01*
X78184354Y-91052749D01*
X93632903Y-91052749D01*
X93633330Y-91066619D01*
X93641379Y-91070000D01*
X96547460Y-91070000D01*
X96560777Y-91066090D01*
X96561641Y-91060082D01*
X96558943Y-91052749D01*
X97952903Y-91052749D01*
X97953330Y-91066619D01*
X97961379Y-91070000D01*
X98997170Y-91070000D01*
X99012169Y-91065596D01*
X99013356Y-91064226D01*
X99015000Y-91056668D01*
X99015000Y-91052170D01*
X99515000Y-91052170D01*
X99519404Y-91067169D01*
X99520774Y-91068356D01*
X99528332Y-91070000D01*
X100567460Y-91070000D01*
X100580777Y-91066090D01*
X100581641Y-91060082D01*
X100525427Y-90907296D01*
X100519948Y-90896061D01*
X100424868Y-90742713D01*
X100417240Y-90732808D01*
X100293270Y-90601713D01*
X100283801Y-90593540D01*
X100136006Y-90490053D01*
X100125088Y-90483951D01*
X99959503Y-90412296D01*
X99947582Y-90408514D01*
X99769479Y-90371307D01*
X99760060Y-90370083D01*
X99756874Y-90370000D01*
X99532830Y-90370000D01*
X99517831Y-90374404D01*
X99516644Y-90375774D01*
X99515000Y-90383332D01*
X99515000Y-91052170D01*
X99015000Y-91052170D01*
X99015000Y-90387830D01*
X99010596Y-90372831D01*
X99009226Y-90371644D01*
X99001668Y-90370000D01*
X98819909Y-90370000D01*
X98813647Y-90370317D01*
X98679245Y-90383970D01*
X98666995Y-90386484D01*
X98494816Y-90440442D01*
X98483333Y-90445363D01*
X98325518Y-90532841D01*
X98315256Y-90539973D01*
X98178261Y-90657393D01*
X98169637Y-90666449D01*
X98059053Y-90809013D01*
X98052425Y-90819620D01*
X97972765Y-90981510D01*
X97968406Y-90993230D01*
X97952903Y-91052749D01*
X96558943Y-91052749D01*
X96505427Y-90907296D01*
X96499948Y-90896061D01*
X96404868Y-90742713D01*
X96397240Y-90732808D01*
X96273270Y-90601713D01*
X96263801Y-90593540D01*
X96116006Y-90490053D01*
X96105093Y-90483954D01*
X96079148Y-90472727D01*
X96025440Y-90428037D01*
X96004419Y-90361404D01*
X96022759Y-90293985D01*
X96030018Y-90283439D01*
X96094589Y-90199288D01*
X96099536Y-90192841D01*
X96126986Y-90126571D01*
X96156934Y-90054271D01*
X96156935Y-90054269D01*
X96160044Y-90046762D01*
X96180682Y-89890000D01*
X96160044Y-89733238D01*
X96122914Y-89643597D01*
X96102646Y-89594667D01*
X96099536Y-89587159D01*
X96038820Y-89508032D01*
X96008229Y-89468165D01*
X96003282Y-89461718D01*
X95981069Y-89444673D01*
X95930250Y-89405679D01*
X95877841Y-89365464D01*
X95851625Y-89354605D01*
X95739271Y-89308066D01*
X95739269Y-89308065D01*
X95731762Y-89304956D01*
X95723703Y-89303895D01*
X95618381Y-89290029D01*
X95618377Y-89290029D01*
X95614361Y-89289500D01*
X95535639Y-89289500D01*
X95531623Y-89290029D01*
X95531619Y-89290029D01*
X95426297Y-89303895D01*
X95418238Y-89304956D01*
X95410731Y-89308065D01*
X95410729Y-89308066D01*
X95298375Y-89354605D01*
X95272159Y-89365464D01*
X95219750Y-89405679D01*
X95168932Y-89444673D01*
X95146718Y-89461718D01*
X95141771Y-89468165D01*
X95111180Y-89508032D01*
X95050464Y-89587159D01*
X95047354Y-89594667D01*
X95027087Y-89643597D01*
X94989956Y-89733238D01*
X94969318Y-89890000D01*
X94989956Y-90046762D01*
X94993065Y-90054269D01*
X94993066Y-90054271D01*
X95050464Y-90192841D01*
X95048888Y-90193494D01*
X95063056Y-90251906D01*
X95040201Y-90317932D01*
X94985278Y-90361120D01*
X94939197Y-90370000D01*
X94499909Y-90370000D01*
X94493647Y-90370317D01*
X94359245Y-90383970D01*
X94346995Y-90386484D01*
X94174816Y-90440442D01*
X94163333Y-90445363D01*
X94005518Y-90532841D01*
X93995256Y-90539973D01*
X93858261Y-90657393D01*
X93849637Y-90666449D01*
X93739053Y-90809013D01*
X93732425Y-90819620D01*
X93652765Y-90981510D01*
X93648406Y-90993230D01*
X93632903Y-91052749D01*
X78184354Y-91052749D01*
X78499571Y-90737532D01*
X78560894Y-90704047D01*
X78589199Y-90701228D01*
X78611024Y-90701571D01*
X78611027Y-90701571D01*
X78618495Y-90701688D01*
X78625776Y-90700020D01*
X78625780Y-90700020D01*
X78764681Y-90668207D01*
X78771968Y-90666538D01*
X78912625Y-90595795D01*
X78918306Y-90590943D01*
X78918309Y-90590941D01*
X79026666Y-90498395D01*
X79026667Y-90498394D01*
X79032348Y-90493542D01*
X79124224Y-90365683D01*
X79182950Y-90219598D01*
X79184030Y-90212011D01*
X79204562Y-90067744D01*
X79204562Y-90067740D01*
X79205134Y-90063723D01*
X79205278Y-90050000D01*
X79201744Y-90020795D01*
X79187262Y-89901119D01*
X79187261Y-89901115D01*
X79186363Y-89893694D01*
X79172052Y-89855820D01*
X79133354Y-89753408D01*
X79133352Y-89753405D01*
X79130710Y-89746412D01*
X79113311Y-89721096D01*
X79045768Y-89622821D01*
X79045765Y-89622818D01*
X79041531Y-89616657D01*
X78944733Y-89530413D01*
X78929559Y-89516893D01*
X78929558Y-89516892D01*
X78923976Y-89511919D01*
X78784831Y-89438245D01*
X78632128Y-89399889D01*
X78550329Y-89399461D01*
X78482158Y-89399104D01*
X78482157Y-89399104D01*
X78474684Y-89399065D01*
X78467421Y-89400809D01*
X78467418Y-89400809D01*
X78413837Y-89413673D01*
X78321588Y-89435820D01*
X78181679Y-89508032D01*
X78063034Y-89611533D01*
X77972501Y-89740348D01*
X77915309Y-89887039D01*
X77897258Y-90024154D01*
X77896462Y-90030197D01*
X77868196Y-90094094D01*
X77861204Y-90101693D01*
X77200205Y-90762692D01*
X77138882Y-90796177D01*
X77112524Y-90799011D01*
X73472844Y-90799011D01*
X73457496Y-90794504D01*
X73457467Y-90794522D01*
X73424405Y-90799011D01*
X67037454Y-90799011D01*
X66970415Y-90779326D01*
X66924660Y-90726522D01*
X66914716Y-90657364D01*
X66943741Y-90593808D01*
X66949773Y-90587330D01*
X67199784Y-90337319D01*
X67261107Y-90303834D01*
X67287465Y-90301000D01*
X72826125Y-90301000D01*
X72893164Y-90320685D01*
X72909578Y-90333286D01*
X73014878Y-90429102D01*
X73014882Y-90429105D01*
X73020410Y-90434135D01*
X73026980Y-90437702D01*
X73026981Y-90437703D01*
X73152208Y-90505696D01*
X73158776Y-90509262D01*
X73248655Y-90532841D01*
X73303841Y-90547319D01*
X73303843Y-90547319D01*
X73311069Y-90549215D01*
X73424012Y-90550989D01*
X73426353Y-90551026D01*
X73440696Y-90555483D01*
X73459880Y-90551691D01*
X73461025Y-90551571D01*
X73468495Y-90551688D01*
X73621968Y-90516538D01*
X73762625Y-90445795D01*
X73768306Y-90440943D01*
X73768309Y-90440941D01*
X73876666Y-90348395D01*
X73876667Y-90348394D01*
X73882348Y-90343542D01*
X73893393Y-90328172D01*
X73948195Y-90251906D01*
X73974224Y-90215683D01*
X74032950Y-90069598D01*
X74034003Y-90062201D01*
X74054562Y-89917744D01*
X74054562Y-89917740D01*
X74055134Y-89913723D01*
X74055183Y-89909127D01*
X74055235Y-89904064D01*
X74055278Y-89900000D01*
X74052733Y-89878967D01*
X74037262Y-89751119D01*
X74037261Y-89751115D01*
X74036363Y-89743694D01*
X74000191Y-89647966D01*
X73983354Y-89603408D01*
X73983352Y-89603405D01*
X73980710Y-89596412D01*
X73945672Y-89545432D01*
X73895768Y-89472821D01*
X73895765Y-89472818D01*
X73891531Y-89466657D01*
X73838072Y-89419027D01*
X73779559Y-89366893D01*
X73779558Y-89366892D01*
X73773976Y-89361919D01*
X73634831Y-89288245D01*
X73482128Y-89249889D01*
X73400329Y-89249461D01*
X73332158Y-89249104D01*
X73332157Y-89249104D01*
X73324684Y-89249065D01*
X73317421Y-89250809D01*
X73317418Y-89250809D01*
X73248136Y-89267442D01*
X73171588Y-89285820D01*
X73109178Y-89318032D01*
X73038318Y-89354605D01*
X73038316Y-89354607D01*
X73031679Y-89358032D01*
X73020352Y-89367913D01*
X73018598Y-89369443D01*
X72955139Y-89398679D01*
X72937085Y-89400000D01*
X67083602Y-89400000D01*
X67069028Y-89399141D01*
X67044394Y-89396225D01*
X67044391Y-89396225D01*
X67035189Y-89395136D01*
X66999196Y-89401710D01*
X66977465Y-89405679D01*
X66973624Y-89406318D01*
X66915538Y-89415051D01*
X66909025Y-89418179D01*
X66901927Y-89419475D01*
X66893701Y-89423748D01*
X66849831Y-89446536D01*
X66846357Y-89448271D01*
X66793421Y-89473691D01*
X66788199Y-89478518D01*
X66787986Y-89478661D01*
X66781711Y-89481921D01*
X66776672Y-89486225D01*
X66739403Y-89523494D01*
X66735893Y-89526869D01*
X66700751Y-89559353D01*
X66700749Y-89559356D01*
X66693944Y-89565646D01*
X66690263Y-89571984D01*
X66684672Y-89578225D01*
X65399716Y-90863181D01*
X65338393Y-90896666D01*
X65312035Y-90899500D01*
X64269502Y-90899500D01*
X64202463Y-90879815D01*
X64187013Y-90868083D01*
X64129559Y-90816893D01*
X64129557Y-90816892D01*
X64123976Y-90811919D01*
X63984831Y-90738245D01*
X63832128Y-90699889D01*
X63750329Y-90699461D01*
X63682158Y-90699104D01*
X63682157Y-90699104D01*
X63674684Y-90699065D01*
X63667421Y-90700809D01*
X63667418Y-90700809D01*
X63598136Y-90717443D01*
X63521588Y-90735820D01*
X63381679Y-90808032D01*
X63263034Y-90911533D01*
X63172501Y-91040348D01*
X63115309Y-91187039D01*
X63094758Y-91343138D01*
X63095578Y-91350566D01*
X63095578Y-91350568D01*
X63097023Y-91363653D01*
X63112035Y-91499633D01*
X63114601Y-91506645D01*
X63114602Y-91506649D01*
X63141415Y-91579918D01*
X63166143Y-91647490D01*
X63253958Y-91778172D01*
X63279748Y-91801639D01*
X63364878Y-91879102D01*
X63364882Y-91879105D01*
X63370410Y-91884135D01*
X63376980Y-91887702D01*
X63376981Y-91887703D01*
X63477254Y-91942147D01*
X63508776Y-91959262D01*
X63597763Y-91982607D01*
X63653841Y-91997319D01*
X63653843Y-91997319D01*
X63661069Y-91999215D01*
X63738127Y-92000425D01*
X63811025Y-92001571D01*
X63811028Y-92001571D01*
X63818495Y-92001688D01*
X63825776Y-92000020D01*
X63825780Y-92000020D01*
X63964681Y-91968207D01*
X63971968Y-91966538D01*
X64112625Y-91895795D01*
X64118306Y-91890943D01*
X64118309Y-91890941D01*
X64189415Y-91830210D01*
X64253177Y-91801639D01*
X64269947Y-91800500D01*
X65213035Y-91800500D01*
X65280074Y-91820185D01*
X65325829Y-91872989D01*
X65335773Y-91942147D01*
X65306748Y-92005703D01*
X65300716Y-92012181D01*
X64649716Y-92663181D01*
X64588393Y-92696666D01*
X64562035Y-92699500D01*
X64269502Y-92699500D01*
X64202463Y-92679815D01*
X64187013Y-92668083D01*
X64129559Y-92616893D01*
X64129557Y-92616892D01*
X64123976Y-92611919D01*
X63984831Y-92538245D01*
X63855530Y-92505767D01*
X63839378Y-92501710D01*
X63832128Y-92499889D01*
X63750329Y-92499461D01*
X63682158Y-92499104D01*
X63682157Y-92499104D01*
X63674684Y-92499065D01*
X63667421Y-92500809D01*
X63667418Y-92500809D01*
X63598136Y-92517443D01*
X63521588Y-92535820D01*
X63381679Y-92608032D01*
X63263034Y-92711533D01*
X63172501Y-92840348D01*
X63115309Y-92987039D01*
X63094758Y-93143138D01*
X62495801Y-93143138D01*
X62483651Y-93126867D01*
X62479481Y-93123012D01*
X62479478Y-93123009D01*
X62340407Y-92994454D01*
X62328381Y-92983337D01*
X62149554Y-92870505D01*
X61953160Y-92792152D01*
X61947579Y-92791042D01*
X61947576Y-92791041D01*
X61751355Y-92752011D01*
X61751356Y-92752011D01*
X61745775Y-92750901D01*
X61745744Y-92750901D01*
X61682828Y-92725019D01*
X61642841Y-92667723D01*
X61640178Y-92597904D01*
X61675684Y-92537729D01*
X61742606Y-92505562D01*
X61889103Y-92484320D01*
X61889104Y-92484320D01*
X61894730Y-92483504D01*
X61973890Y-92456633D01*
X62089565Y-92417367D01*
X62089568Y-92417366D01*
X62094955Y-92415537D01*
X62099916Y-92412759D01*
X62099922Y-92412756D01*
X62206530Y-92353052D01*
X62279442Y-92312219D01*
X62330587Y-92269683D01*
X62437645Y-92180644D01*
X62442012Y-92177012D01*
X62464522Y-92149947D01*
X62573584Y-92018813D01*
X62573585Y-92018811D01*
X62577219Y-92014442D01*
X62646383Y-91890941D01*
X62677756Y-91834922D01*
X62677759Y-91834916D01*
X62680537Y-91829955D01*
X62683788Y-91820380D01*
X62746675Y-91635118D01*
X62748504Y-91629730D01*
X62778846Y-91420470D01*
X62780429Y-91360000D01*
X62761081Y-91149440D01*
X62703686Y-90945931D01*
X62610165Y-90756290D01*
X62483651Y-90586867D01*
X62479481Y-90583012D01*
X62479478Y-90583009D01*
X62399698Y-90509262D01*
X62328381Y-90443337D01*
X62295090Y-90422332D01*
X62154363Y-90333539D01*
X62154361Y-90333538D01*
X62149554Y-90330505D01*
X61953160Y-90252152D01*
X61947579Y-90251042D01*
X61947576Y-90251041D01*
X61753356Y-90212409D01*
X61745775Y-90210901D01*
X61745744Y-90210901D01*
X61682828Y-90185019D01*
X61642841Y-90127723D01*
X61640178Y-90057904D01*
X61675684Y-89997729D01*
X61742606Y-89965562D01*
X61889103Y-89944320D01*
X61889104Y-89944320D01*
X61894730Y-89943504D01*
X61933439Y-89930364D01*
X62089565Y-89877367D01*
X62089568Y-89877366D01*
X62094955Y-89875537D01*
X62099916Y-89872759D01*
X62099922Y-89872756D01*
X62206530Y-89813052D01*
X62279442Y-89772219D01*
X62294310Y-89759854D01*
X62437645Y-89640644D01*
X62442012Y-89637012D01*
X62460747Y-89614485D01*
X62573584Y-89478813D01*
X62573585Y-89478811D01*
X62577219Y-89474442D01*
X62580749Y-89468138D01*
X63094758Y-89468138D01*
X63095578Y-89475566D01*
X63095578Y-89475568D01*
X63105791Y-89568076D01*
X63112035Y-89624633D01*
X63114601Y-89631645D01*
X63114602Y-89631649D01*
X63144206Y-89712544D01*
X63166143Y-89772490D01*
X63253958Y-89903172D01*
X63299179Y-89944320D01*
X63364878Y-90004102D01*
X63364882Y-90004105D01*
X63370410Y-90009135D01*
X63376980Y-90012702D01*
X63376981Y-90012703D01*
X63502208Y-90080696D01*
X63508776Y-90084262D01*
X63575220Y-90101693D01*
X63653841Y-90122319D01*
X63653843Y-90122319D01*
X63661069Y-90124215D01*
X63738127Y-90125425D01*
X63811025Y-90126571D01*
X63811028Y-90126571D01*
X63818495Y-90126688D01*
X63825776Y-90125020D01*
X63825780Y-90125020D01*
X63964681Y-90093207D01*
X63971968Y-90091538D01*
X64112625Y-90020795D01*
X64118306Y-90015943D01*
X64118309Y-90015941D01*
X64189415Y-89955210D01*
X64253177Y-89926639D01*
X64269947Y-89925500D01*
X64730156Y-89925500D01*
X64744730Y-89926359D01*
X64769364Y-89929275D01*
X64769367Y-89929275D01*
X64778569Y-89930364D01*
X64815234Y-89923668D01*
X64836281Y-89919824D01*
X64840123Y-89919184D01*
X64876445Y-89913723D01*
X64898221Y-89910449D01*
X64904734Y-89907321D01*
X64911832Y-89906025D01*
X64927167Y-89898059D01*
X64963922Y-89878967D01*
X64967405Y-89877227D01*
X65020338Y-89851809D01*
X65025558Y-89846984D01*
X65025779Y-89846835D01*
X65032047Y-89843579D01*
X65037087Y-89839275D01*
X65074356Y-89802006D01*
X65077866Y-89798631D01*
X65113008Y-89766147D01*
X65113010Y-89766144D01*
X65119815Y-89759854D01*
X65123496Y-89753516D01*
X65129087Y-89747275D01*
X66539054Y-88337308D01*
X66600377Y-88303823D01*
X66626735Y-88300989D01*
X76201783Y-88300989D01*
X76268822Y-88320674D01*
X76289464Y-88337308D01*
X76397536Y-88445380D01*
X76431021Y-88506703D01*
X76426037Y-88576395D01*
X76411307Y-88604358D01*
X76403757Y-88615101D01*
X76357788Y-88680507D01*
X76357786Y-88680510D01*
X76353488Y-88686626D01*
X76296296Y-88833317D01*
X76275745Y-88989416D01*
X76276565Y-88996844D01*
X76276565Y-88996846D01*
X76278461Y-89014022D01*
X76293022Y-89145911D01*
X76295588Y-89152923D01*
X76295589Y-89152927D01*
X76300135Y-89165348D01*
X76347130Y-89293768D01*
X76351301Y-89299975D01*
X76415979Y-89396225D01*
X76434945Y-89424450D01*
X76475902Y-89461718D01*
X76545865Y-89525380D01*
X76545869Y-89525383D01*
X76551397Y-89530413D01*
X76557967Y-89533980D01*
X76557968Y-89533981D01*
X76672951Y-89596412D01*
X76689763Y-89605540D01*
X76755635Y-89622821D01*
X76834828Y-89643597D01*
X76834830Y-89643597D01*
X76842056Y-89645493D01*
X76919114Y-89646703D01*
X76992012Y-89647849D01*
X76992015Y-89647849D01*
X76999482Y-89647966D01*
X77006763Y-89646298D01*
X77006767Y-89646298D01*
X77145668Y-89614485D01*
X77152955Y-89612816D01*
X77293612Y-89542073D01*
X77299293Y-89537221D01*
X77299296Y-89537219D01*
X77407653Y-89444673D01*
X77407654Y-89444672D01*
X77413335Y-89439820D01*
X77420763Y-89429484D01*
X77469000Y-89362354D01*
X77505211Y-89311961D01*
X77563937Y-89165876D01*
X77565780Y-89152927D01*
X77585549Y-89014022D01*
X77585549Y-89014018D01*
X77586121Y-89010001D01*
X77586176Y-89004815D01*
X77586222Y-89000342D01*
X77586265Y-88996278D01*
X77578659Y-88933421D01*
X77568249Y-88847397D01*
X77568248Y-88847393D01*
X77567350Y-88839972D01*
X77511697Y-88692690D01*
X77458371Y-88615101D01*
X77426755Y-88569099D01*
X77426752Y-88569096D01*
X77422518Y-88562935D01*
X77416932Y-88557958D01*
X77412475Y-88552903D01*
X77382905Y-88489599D01*
X77381487Y-88470898D01*
X77381487Y-88375831D01*
X77382346Y-88361257D01*
X77385262Y-88336621D01*
X77385262Y-88336620D01*
X77386351Y-88327418D01*
X77384686Y-88318302D01*
X77384686Y-88318295D01*
X77375805Y-88269666D01*
X77375165Y-88265825D01*
X77367814Y-88216930D01*
X77367814Y-88216929D01*
X77366436Y-88207766D01*
X77363310Y-88201256D01*
X77362013Y-88194155D01*
X77355691Y-88181984D01*
X77334948Y-88142050D01*
X77333208Y-88138568D01*
X77311809Y-88094005D01*
X77311808Y-88094003D01*
X77307796Y-88085649D01*
X77302970Y-88080429D01*
X77302827Y-88080216D01*
X77299567Y-88073940D01*
X77295262Y-88068900D01*
X77257993Y-88031631D01*
X77254618Y-88028121D01*
X77222134Y-87992979D01*
X77222131Y-87992977D01*
X77215841Y-87986172D01*
X77209503Y-87982491D01*
X77203262Y-87976900D01*
X76782415Y-87556053D01*
X76772717Y-87545140D01*
X76757359Y-87525659D01*
X76751620Y-87518379D01*
X76703302Y-87484984D01*
X76700202Y-87482770D01*
X76652932Y-87447855D01*
X76646116Y-87445462D01*
X76640179Y-87441358D01*
X76584229Y-87423663D01*
X76580539Y-87422432D01*
X76533864Y-87406041D01*
X76533860Y-87406040D01*
X76525117Y-87402970D01*
X76518013Y-87402691D01*
X76517762Y-87402642D01*
X76511018Y-87400509D01*
X76504411Y-87399989D01*
X76451680Y-87399989D01*
X76446811Y-87399893D01*
X76399021Y-87398015D01*
X76399020Y-87398015D01*
X76389754Y-87397651D01*
X76382670Y-87399529D01*
X76374310Y-87399989D01*
X66422872Y-87399989D01*
X66408298Y-87399130D01*
X66383664Y-87396214D01*
X66383661Y-87396214D01*
X66374459Y-87395125D01*
X66321272Y-87404839D01*
X66316733Y-87405668D01*
X66312889Y-87406308D01*
X66263972Y-87413662D01*
X66263970Y-87413663D01*
X66254808Y-87415040D01*
X66248295Y-87418167D01*
X66241196Y-87419464D01*
X66232972Y-87423736D01*
X66189106Y-87446522D01*
X66185623Y-87448262D01*
X66181256Y-87450359D01*
X66132691Y-87473680D01*
X66127468Y-87478508D01*
X66127258Y-87478649D01*
X66120981Y-87481910D01*
X66115942Y-87486214D01*
X66078673Y-87523483D01*
X66075163Y-87526858D01*
X66040021Y-87559342D01*
X66040019Y-87559345D01*
X66033214Y-87565635D01*
X66029533Y-87571973D01*
X66023942Y-87578214D01*
X64613975Y-88988181D01*
X64552652Y-89021666D01*
X64526294Y-89024500D01*
X64269502Y-89024500D01*
X64202463Y-89004815D01*
X64187013Y-88993083D01*
X64129559Y-88941893D01*
X64129557Y-88941892D01*
X64123976Y-88936919D01*
X63984831Y-88863245D01*
X63895202Y-88840732D01*
X63839378Y-88826710D01*
X63832128Y-88824889D01*
X63750329Y-88824461D01*
X63682158Y-88824104D01*
X63682157Y-88824104D01*
X63674684Y-88824065D01*
X63667421Y-88825809D01*
X63667418Y-88825809D01*
X63608426Y-88839972D01*
X63521588Y-88860820D01*
X63381679Y-88933032D01*
X63263034Y-89036533D01*
X63172501Y-89165348D01*
X63115309Y-89312039D01*
X63094758Y-89468138D01*
X62580749Y-89468138D01*
X62623078Y-89392556D01*
X62677756Y-89294922D01*
X62677759Y-89294916D01*
X62680537Y-89289955D01*
X62693520Y-89251710D01*
X62746675Y-89095118D01*
X62748504Y-89089730D01*
X62778846Y-88880470D01*
X62780429Y-88820000D01*
X62761081Y-88609440D01*
X62703686Y-88405931D01*
X62610165Y-88216290D01*
X62483651Y-88046867D01*
X62479481Y-88043012D01*
X62479478Y-88043009D01*
X62407961Y-87976900D01*
X62328381Y-87903337D01*
X62149554Y-87790505D01*
X61953160Y-87712152D01*
X61947579Y-87711042D01*
X61947576Y-87711041D01*
X61771998Y-87676117D01*
X61710087Y-87643732D01*
X61675513Y-87583017D01*
X61679252Y-87513247D01*
X61720118Y-87456575D01*
X61785136Y-87430994D01*
X61796189Y-87430500D01*
X62519646Y-87430500D01*
X62523300Y-87430065D01*
X62523302Y-87430065D01*
X62528266Y-87429474D01*
X62545846Y-87427382D01*
X62648153Y-87381939D01*
X62727241Y-87302713D01*
X62772506Y-87200327D01*
X62775500Y-87174646D01*
X62775500Y-85385354D01*
X62772382Y-85359154D01*
X62726939Y-85256847D01*
X62647713Y-85177759D01*
X62637242Y-85173130D01*
X62637241Y-85173129D01*
X62553853Y-85136263D01*
X62553851Y-85136262D01*
X62545327Y-85132494D01*
X62519646Y-85129500D01*
X60730354Y-85129500D01*
X60726700Y-85129935D01*
X60726698Y-85129935D01*
X60721734Y-85130526D01*
X60704154Y-85132618D01*
X60601847Y-85178061D01*
X60522759Y-85257287D01*
X60518130Y-85267758D01*
X60518129Y-85267759D01*
X60481762Y-85350020D01*
X60477494Y-85359673D01*
X60474500Y-85385354D01*
X60474500Y-87174646D01*
X60477618Y-87200846D01*
X60523061Y-87303153D01*
X60602287Y-87382241D01*
X60612758Y-87386870D01*
X60612759Y-87386871D01*
X60696147Y-87423737D01*
X60696149Y-87423738D01*
X60704673Y-87427506D01*
X60730354Y-87430500D01*
X61463437Y-87430500D01*
X61530476Y-87450185D01*
X61576231Y-87502989D01*
X61586175Y-87572147D01*
X61557150Y-87635703D01*
X61498372Y-87673477D01*
X61484436Y-87676709D01*
X61331550Y-87702979D01*
X61331547Y-87702980D01*
X61325953Y-87703941D01*
X61127575Y-87777127D01*
X61122697Y-87780029D01*
X61122695Y-87780030D01*
X60950740Y-87882332D01*
X60950737Y-87882334D01*
X60945856Y-87885238D01*
X60786881Y-88024655D01*
X60783362Y-88029119D01*
X60783359Y-88029122D01*
X60738797Y-88085649D01*
X60655976Y-88190708D01*
X60557523Y-88377836D01*
X60555837Y-88383267D01*
X60555835Y-88383271D01*
X60511180Y-88527086D01*
X60494820Y-88579773D01*
X60494152Y-88585418D01*
X60494151Y-88585422D01*
X60480627Y-88699686D01*
X60469967Y-88789754D01*
X60470338Y-88795416D01*
X60470338Y-88795420D01*
X60472389Y-88826710D01*
X60483796Y-89000749D01*
X60535845Y-89205690D01*
X60538219Y-89210841D01*
X60538221Y-89210845D01*
X60610160Y-89366893D01*
X60624369Y-89397714D01*
X60653722Y-89439247D01*
X60743052Y-89565646D01*
X60746405Y-89570391D01*
X60897865Y-89717937D01*
X60902588Y-89721093D01*
X60902592Y-89721096D01*
X60970016Y-89766147D01*
X61073677Y-89835411D01*
X61267953Y-89918878D01*
X61297218Y-89925500D01*
X61468638Y-89964289D01*
X61468642Y-89964290D01*
X61474186Y-89965544D01*
X61493328Y-89966296D01*
X61559543Y-89988596D01*
X61603190Y-90043156D01*
X61610412Y-90112651D01*
X61578914Y-90175018D01*
X61518699Y-90210457D01*
X61509460Y-90212409D01*
X61331550Y-90242979D01*
X61331547Y-90242980D01*
X61325953Y-90243941D01*
X61127575Y-90317127D01*
X61122697Y-90320029D01*
X61122695Y-90320030D01*
X60950740Y-90422332D01*
X60950737Y-90422334D01*
X60945856Y-90425238D01*
X60786881Y-90564655D01*
X60783362Y-90569119D01*
X60783359Y-90569122D01*
X60762332Y-90595795D01*
X60655976Y-90730708D01*
X60557523Y-90917836D01*
X60555837Y-90923267D01*
X60555835Y-90923271D01*
X60512068Y-91064226D01*
X60494820Y-91119773D01*
X60494152Y-91125418D01*
X60494151Y-91125422D01*
X60485981Y-91194454D01*
X60469967Y-91329754D01*
X60470338Y-91335416D01*
X60470338Y-91335420D01*
X60471949Y-91360000D01*
X60483796Y-91540749D01*
X60535845Y-91745690D01*
X60538219Y-91750841D01*
X60538221Y-91750845D01*
X60610298Y-91907192D01*
X60624369Y-91937714D01*
X60639598Y-91959262D01*
X60668403Y-92000020D01*
X60746405Y-92110391D01*
X60897865Y-92257937D01*
X60902588Y-92261093D01*
X60902592Y-92261096D01*
X60973663Y-92308584D01*
X61073677Y-92375411D01*
X61267953Y-92458878D01*
X61331283Y-92473208D01*
X61468638Y-92504289D01*
X61468642Y-92504290D01*
X61474186Y-92505544D01*
X61493328Y-92506296D01*
X61559543Y-92528596D01*
X61603190Y-92583156D01*
X61610412Y-92652651D01*
X61578914Y-92715018D01*
X61518699Y-92750457D01*
X61509460Y-92752409D01*
X61331550Y-92782979D01*
X61331547Y-92782980D01*
X61325953Y-92783941D01*
X61127575Y-92857127D01*
X61122697Y-92860029D01*
X61122695Y-92860030D01*
X60950740Y-92962332D01*
X60950737Y-92962334D01*
X60945856Y-92965238D01*
X60786881Y-93104655D01*
X60783362Y-93109119D01*
X60783359Y-93109122D01*
X60750686Y-93150568D01*
X60655976Y-93270708D01*
X60557523Y-93457836D01*
X60555837Y-93463267D01*
X60555835Y-93463271D01*
X60511714Y-93605364D01*
X60494820Y-93659773D01*
X60494152Y-93665418D01*
X60494151Y-93665422D01*
X60478037Y-93801571D01*
X60469967Y-93869754D01*
X60470338Y-93875416D01*
X60470338Y-93875420D01*
X60471949Y-93900000D01*
X60483796Y-94080749D01*
X60535845Y-94285690D01*
X60538219Y-94290841D01*
X60538221Y-94290845D01*
X60576981Y-94374922D01*
X60624369Y-94477714D01*
X60746405Y-94650391D01*
X60897865Y-94797937D01*
X60902588Y-94801093D01*
X60902592Y-94801096D01*
X60973663Y-94848584D01*
X61073677Y-94915411D01*
X61078903Y-94917656D01*
X61078908Y-94917659D01*
X61145322Y-94946192D01*
X61199148Y-94990741D01*
X61220343Y-95057318D01*
X61202180Y-95124785D01*
X61148780Y-95172504D01*
X60952333Y-95264110D01*
X60942983Y-95269508D01*
X60758357Y-95398784D01*
X60750093Y-95405719D01*
X60590719Y-95565093D01*
X60583784Y-95573357D01*
X60454508Y-95757983D01*
X60449110Y-95767333D01*
X60353857Y-95971603D01*
X60350168Y-95981736D01*
X60298978Y-96172779D01*
X57300500Y-96172779D01*
X57300500Y-84693138D01*
X80694758Y-84693138D01*
X80695578Y-84700566D01*
X80695578Y-84700568D01*
X80697474Y-84717744D01*
X80712035Y-84849633D01*
X80766143Y-84997490D01*
X80853958Y-85128172D01*
X80876183Y-85148395D01*
X80964878Y-85229102D01*
X80964882Y-85229105D01*
X80970410Y-85234135D01*
X80976980Y-85237702D01*
X80976981Y-85237703D01*
X81032337Y-85267759D01*
X81108776Y-85309262D01*
X81211031Y-85336088D01*
X81253841Y-85347319D01*
X81253843Y-85347319D01*
X81261069Y-85349215D01*
X81338127Y-85350425D01*
X81411025Y-85351571D01*
X81411028Y-85351571D01*
X81418495Y-85351688D01*
X81425776Y-85350020D01*
X81425780Y-85350020D01*
X81564681Y-85318207D01*
X81571968Y-85316538D01*
X81712625Y-85245795D01*
X81718306Y-85240943D01*
X81718309Y-85240941D01*
X81826666Y-85148395D01*
X81826667Y-85148394D01*
X81832348Y-85143542D01*
X81837485Y-85136394D01*
X81863798Y-85099775D01*
X81924224Y-85015683D01*
X81982950Y-84869598D01*
X81984793Y-84856649D01*
X82004562Y-84717744D01*
X82004562Y-84717740D01*
X82005134Y-84713723D01*
X82005278Y-84700000D01*
X82003551Y-84685727D01*
X81987262Y-84551119D01*
X81987261Y-84551115D01*
X81986363Y-84543694D01*
X81930710Y-84396412D01*
X81922337Y-84384229D01*
X81845768Y-84272821D01*
X81845765Y-84272818D01*
X81841531Y-84266657D01*
X81835945Y-84261680D01*
X81831488Y-84256625D01*
X81801918Y-84193321D01*
X81800500Y-84174620D01*
X81800500Y-82939918D01*
X93628359Y-82939918D01*
X93684573Y-83092704D01*
X93690052Y-83103939D01*
X93785132Y-83257287D01*
X93792760Y-83267192D01*
X93916730Y-83398287D01*
X93926199Y-83406460D01*
X94073994Y-83509947D01*
X94084912Y-83516049D01*
X94250497Y-83587704D01*
X94262418Y-83591486D01*
X94440521Y-83628693D01*
X94449940Y-83629917D01*
X94453126Y-83630000D01*
X94939197Y-83630000D01*
X95006236Y-83649685D01*
X95051991Y-83702489D01*
X95061935Y-83771647D01*
X95049748Y-83806862D01*
X95050464Y-83807159D01*
X95008379Y-83908762D01*
X94989956Y-83953238D01*
X94969318Y-84110000D01*
X94989956Y-84266762D01*
X94993065Y-84274269D01*
X94993066Y-84274271D01*
X95041105Y-84390247D01*
X95050464Y-84412841D01*
X95146718Y-84538282D01*
X95153165Y-84543229D01*
X95209438Y-84586409D01*
X95272159Y-84634536D01*
X95279667Y-84637646D01*
X95410729Y-84691934D01*
X95410731Y-84691935D01*
X95418238Y-84695044D01*
X95426297Y-84696105D01*
X95531619Y-84709971D01*
X95531623Y-84709971D01*
X95535639Y-84710500D01*
X95614361Y-84710500D01*
X95618377Y-84709971D01*
X95618381Y-84709971D01*
X95723703Y-84696105D01*
X95731762Y-84695044D01*
X95739269Y-84691935D01*
X95739271Y-84691934D01*
X95870333Y-84637646D01*
X95877841Y-84634536D01*
X95940562Y-84586409D01*
X95996835Y-84543229D01*
X96003282Y-84538282D01*
X96099536Y-84412841D01*
X96108895Y-84390247D01*
X96156934Y-84274271D01*
X96156935Y-84274269D01*
X96160044Y-84266762D01*
X96180682Y-84110000D01*
X96160044Y-83953238D01*
X96144636Y-83916038D01*
X96102646Y-83814667D01*
X96099536Y-83807159D01*
X96029451Y-83715822D01*
X96004258Y-83650655D01*
X96018296Y-83582211D01*
X96067712Y-83531885D01*
X96184482Y-83467159D01*
X96194744Y-83460027D01*
X96331739Y-83342607D01*
X96340363Y-83333551D01*
X96450947Y-83190987D01*
X96457575Y-83180380D01*
X96537235Y-83018490D01*
X96541594Y-83006770D01*
X96557097Y-82947251D01*
X96556871Y-82939918D01*
X97948359Y-82939918D01*
X98004573Y-83092704D01*
X98010052Y-83103939D01*
X98105132Y-83257287D01*
X98112760Y-83267192D01*
X98236730Y-83398287D01*
X98246199Y-83406460D01*
X98393994Y-83509947D01*
X98404912Y-83516049D01*
X98570497Y-83587704D01*
X98582418Y-83591486D01*
X98760521Y-83628693D01*
X98769940Y-83629917D01*
X98773126Y-83630000D01*
X98997170Y-83630000D01*
X99012169Y-83625596D01*
X99013356Y-83624226D01*
X99015000Y-83616668D01*
X99015000Y-83612170D01*
X99515000Y-83612170D01*
X99519404Y-83627169D01*
X99520774Y-83628356D01*
X99528332Y-83630000D01*
X99710091Y-83630000D01*
X99716353Y-83629683D01*
X99850755Y-83616030D01*
X99863005Y-83613516D01*
X100035184Y-83559558D01*
X100046667Y-83554637D01*
X100204482Y-83467159D01*
X100214744Y-83460027D01*
X100351739Y-83342607D01*
X100360363Y-83333551D01*
X100470947Y-83190987D01*
X100477575Y-83180380D01*
X100557235Y-83018490D01*
X100561594Y-83006770D01*
X100577097Y-82947251D01*
X100576670Y-82933381D01*
X100568621Y-82930000D01*
X99532830Y-82930000D01*
X99517831Y-82934404D01*
X99516644Y-82935774D01*
X99515000Y-82943332D01*
X99515000Y-83612170D01*
X99015000Y-83612170D01*
X99015000Y-82947830D01*
X99010596Y-82932831D01*
X99009226Y-82931644D01*
X99001668Y-82930000D01*
X97962540Y-82930000D01*
X97949223Y-82933910D01*
X97948359Y-82939918D01*
X96556871Y-82939918D01*
X96556670Y-82933381D01*
X96548621Y-82930000D01*
X93642540Y-82930000D01*
X93629223Y-82933910D01*
X93628359Y-82939918D01*
X81800500Y-82939918D01*
X81800500Y-82412749D01*
X93632903Y-82412749D01*
X93633330Y-82426619D01*
X93641379Y-82430000D01*
X94827170Y-82430000D01*
X94842169Y-82425596D01*
X94843356Y-82424226D01*
X94845000Y-82416668D01*
X94845000Y-82412170D01*
X95345000Y-82412170D01*
X95349404Y-82427169D01*
X95350774Y-82428356D01*
X95358332Y-82430000D01*
X96547460Y-82430000D01*
X96560777Y-82426090D01*
X96561641Y-82420082D01*
X96558943Y-82412749D01*
X97952903Y-82412749D01*
X97953330Y-82426619D01*
X97961379Y-82430000D01*
X98997170Y-82430000D01*
X99012169Y-82425596D01*
X99013356Y-82424226D01*
X99015000Y-82416668D01*
X99015000Y-82412170D01*
X99515000Y-82412170D01*
X99519404Y-82427169D01*
X99520774Y-82428356D01*
X99528332Y-82430000D01*
X100567460Y-82430000D01*
X100580777Y-82426090D01*
X100581641Y-82420082D01*
X100525427Y-82267296D01*
X100519948Y-82256061D01*
X100424868Y-82102713D01*
X100417240Y-82092808D01*
X100293270Y-81961713D01*
X100283801Y-81953540D01*
X100136006Y-81850053D01*
X100125088Y-81843951D01*
X99959503Y-81772296D01*
X99947582Y-81768514D01*
X99769479Y-81731307D01*
X99760060Y-81730083D01*
X99756874Y-81730000D01*
X99532830Y-81730000D01*
X99517831Y-81734404D01*
X99516644Y-81735774D01*
X99515000Y-81743332D01*
X99515000Y-82412170D01*
X99015000Y-82412170D01*
X99015000Y-81747830D01*
X99010596Y-81732831D01*
X99009226Y-81731644D01*
X99001668Y-81730000D01*
X98819909Y-81730000D01*
X98813647Y-81730317D01*
X98679245Y-81743970D01*
X98666995Y-81746484D01*
X98494816Y-81800442D01*
X98483333Y-81805363D01*
X98325518Y-81892841D01*
X98315256Y-81899973D01*
X98178261Y-82017393D01*
X98169637Y-82026449D01*
X98059053Y-82169013D01*
X98052425Y-82179620D01*
X97972765Y-82341510D01*
X97968406Y-82353230D01*
X97952903Y-82412749D01*
X96558943Y-82412749D01*
X96505427Y-82267296D01*
X96499948Y-82256061D01*
X96404868Y-82102713D01*
X96397240Y-82092808D01*
X96273270Y-81961713D01*
X96263801Y-81953540D01*
X96116006Y-81850053D01*
X96105088Y-81843951D01*
X95939503Y-81772296D01*
X95927582Y-81768514D01*
X95749479Y-81731307D01*
X95740060Y-81730083D01*
X95736874Y-81730000D01*
X95362830Y-81730000D01*
X95347831Y-81734404D01*
X95346644Y-81735774D01*
X95345000Y-81743332D01*
X95345000Y-82412170D01*
X94845000Y-82412170D01*
X94845000Y-81747830D01*
X94840596Y-81732831D01*
X94839226Y-81731644D01*
X94831668Y-81730000D01*
X94499909Y-81730000D01*
X94493647Y-81730317D01*
X94359245Y-81743970D01*
X94346995Y-81746484D01*
X94174816Y-81800442D01*
X94163333Y-81805363D01*
X94005518Y-81892841D01*
X93995256Y-81899973D01*
X93858261Y-82017393D01*
X93849637Y-82026449D01*
X93739053Y-82169013D01*
X93732425Y-82179620D01*
X93652765Y-82341510D01*
X93648406Y-82353230D01*
X93632903Y-82412749D01*
X81800500Y-82412749D01*
X81800500Y-81875195D01*
X81820185Y-81808156D01*
X81829756Y-81795756D01*
X81832348Y-81793542D01*
X81924224Y-81665683D01*
X81982950Y-81519598D01*
X81984793Y-81506649D01*
X82004562Y-81367744D01*
X82004562Y-81367740D01*
X82005134Y-81363723D01*
X82005185Y-81358921D01*
X82005235Y-81354064D01*
X82005278Y-81350000D01*
X81997987Y-81289747D01*
X81987262Y-81201119D01*
X81987261Y-81201115D01*
X81986363Y-81193694D01*
X81930710Y-81046412D01*
X81922337Y-81034229D01*
X81845768Y-80922821D01*
X81845765Y-80922818D01*
X81841531Y-80916657D01*
X81723976Y-80811919D01*
X81584831Y-80738245D01*
X81432128Y-80699889D01*
X81350329Y-80699461D01*
X81282158Y-80699104D01*
X81282157Y-80699104D01*
X81274684Y-80699065D01*
X81267421Y-80700809D01*
X81267418Y-80700809D01*
X81198136Y-80717442D01*
X81121588Y-80735820D01*
X80981679Y-80808032D01*
X80863034Y-80911533D01*
X80772501Y-81040348D01*
X80715309Y-81187039D01*
X80694758Y-81343138D01*
X80695578Y-81350566D01*
X80695578Y-81350568D01*
X80697436Y-81367393D01*
X80712035Y-81499633D01*
X80766143Y-81647490D01*
X80853958Y-81778172D01*
X80859488Y-81783204D01*
X80864372Y-81788862D01*
X80863272Y-81789811D01*
X80895290Y-81842395D01*
X80899500Y-81874432D01*
X80899500Y-84174777D01*
X80879815Y-84241816D01*
X80868204Y-84257023D01*
X80863034Y-84261533D01*
X80772501Y-84390348D01*
X80715309Y-84537039D01*
X80694758Y-84693138D01*
X57300500Y-84693138D01*
X57300500Y-83292638D01*
X64344758Y-83292638D01*
X64345578Y-83300066D01*
X64345578Y-83300068D01*
X64356422Y-83398287D01*
X64362035Y-83449133D01*
X64364601Y-83456145D01*
X64364602Y-83456149D01*
X64369341Y-83469098D01*
X64416143Y-83596990D01*
X64503958Y-83727672D01*
X64526183Y-83747895D01*
X64614878Y-83828602D01*
X64614882Y-83828605D01*
X64620410Y-83833635D01*
X64758776Y-83908762D01*
X64861031Y-83935588D01*
X64903841Y-83946819D01*
X64903843Y-83946819D01*
X64911069Y-83948715D01*
X64988127Y-83949925D01*
X65061025Y-83951071D01*
X65061028Y-83951071D01*
X65068495Y-83951188D01*
X65075776Y-83949520D01*
X65075780Y-83949520D01*
X65214681Y-83917707D01*
X65221968Y-83916038D01*
X65362625Y-83845295D01*
X65368306Y-83840443D01*
X65368309Y-83840441D01*
X65476666Y-83747895D01*
X65476667Y-83747894D01*
X65482348Y-83743042D01*
X65493393Y-83727672D01*
X65526414Y-83681718D01*
X65574224Y-83615183D01*
X65632950Y-83469098D01*
X65634793Y-83456149D01*
X65654562Y-83317244D01*
X65654562Y-83317240D01*
X65655134Y-83313223D01*
X65655278Y-83299500D01*
X65636363Y-83143194D01*
X65621530Y-83103939D01*
X65583354Y-83002908D01*
X65583352Y-83002905D01*
X65580710Y-82995912D01*
X65576476Y-82989751D01*
X65576473Y-82989746D01*
X65572310Y-82983690D01*
X65550500Y-82913454D01*
X65550500Y-82289130D01*
X65569382Y-82230520D01*
X65566261Y-82228804D01*
X65569864Y-82222250D01*
X65574224Y-82216183D01*
X65632950Y-82070098D01*
X65634793Y-82057149D01*
X65654562Y-81918244D01*
X65654562Y-81918240D01*
X65655134Y-81914223D01*
X65655278Y-81900500D01*
X65652216Y-81875195D01*
X65637262Y-81751619D01*
X65637261Y-81751615D01*
X65636363Y-81744194D01*
X65627276Y-81720146D01*
X65583354Y-81603908D01*
X65583352Y-81603905D01*
X65580710Y-81596912D01*
X65572337Y-81584729D01*
X65495768Y-81473321D01*
X65495765Y-81473318D01*
X65491531Y-81467157D01*
X65373976Y-81362419D01*
X65234831Y-81288745D01*
X65082128Y-81250389D01*
X65000329Y-81249961D01*
X64932158Y-81249604D01*
X64932157Y-81249604D01*
X64924684Y-81249565D01*
X64917421Y-81251309D01*
X64917418Y-81251309D01*
X64848136Y-81267943D01*
X64771588Y-81286320D01*
X64631679Y-81358532D01*
X64513034Y-81462033D01*
X64422501Y-81590848D01*
X64365309Y-81737539D01*
X64344758Y-81893638D01*
X64345578Y-81901066D01*
X64345578Y-81901068D01*
X64347474Y-81918244D01*
X64362035Y-82050133D01*
X64364601Y-82057145D01*
X64364602Y-82057149D01*
X64394206Y-82138044D01*
X64416143Y-82197990D01*
X64420315Y-82204198D01*
X64428420Y-82216260D01*
X64449500Y-82285422D01*
X64449500Y-82912216D01*
X64429164Y-82976519D01*
X64430331Y-82977145D01*
X64427004Y-82983350D01*
X64426952Y-82983514D01*
X64426800Y-82983730D01*
X64426798Y-82983735D01*
X64422501Y-82989848D01*
X64365309Y-83136539D01*
X64344758Y-83292638D01*
X57300500Y-83292638D01*
X57300500Y-78640862D01*
X67735497Y-78640862D01*
X67765134Y-78813340D01*
X67833654Y-78974373D01*
X67837921Y-78980171D01*
X67837922Y-78980173D01*
X67895092Y-79057857D01*
X67937383Y-79115324D01*
X67942874Y-79119989D01*
X67942875Y-79119990D01*
X68065261Y-79223965D01*
X68065264Y-79223967D01*
X68070755Y-79228632D01*
X68077172Y-79231909D01*
X68077174Y-79231910D01*
X68143616Y-79265837D01*
X68226616Y-79308219D01*
X68233612Y-79309931D01*
X68233615Y-79309932D01*
X68304763Y-79327341D01*
X68396606Y-79349815D01*
X68402114Y-79350157D01*
X68402116Y-79350157D01*
X68405744Y-79350382D01*
X68405748Y-79350382D01*
X68407648Y-79350500D01*
X68533822Y-79350500D01*
X68663828Y-79335343D01*
X68670595Y-79332887D01*
X68670598Y-79332886D01*
X68821557Y-79278090D01*
X68821558Y-79278089D01*
X68828331Y-79275631D01*
X68974685Y-79179677D01*
X68979637Y-79174449D01*
X68979640Y-79174447D01*
X69090087Y-79057857D01*
X69090089Y-79057855D01*
X69095040Y-79052628D01*
X69098656Y-79046403D01*
X69098658Y-79046400D01*
X69179322Y-78907525D01*
X69182939Y-78901298D01*
X69233667Y-78733807D01*
X69244503Y-78559138D01*
X69214866Y-78386660D01*
X69146346Y-78225627D01*
X69093340Y-78153600D01*
X69046888Y-78090479D01*
X69046886Y-78090477D01*
X69042617Y-78084676D01*
X68962216Y-78016370D01*
X68914739Y-77976035D01*
X68914736Y-77976033D01*
X68909245Y-77971368D01*
X68902828Y-77968091D01*
X68902826Y-77968090D01*
X68812388Y-77921910D01*
X68753384Y-77891781D01*
X68746388Y-77890069D01*
X68746385Y-77890068D01*
X68675237Y-77872659D01*
X68583394Y-77850185D01*
X68577886Y-77849843D01*
X68577884Y-77849843D01*
X68574256Y-77849618D01*
X68574252Y-77849618D01*
X68572352Y-77849500D01*
X68446178Y-77849500D01*
X68316172Y-77864657D01*
X68309405Y-77867113D01*
X68309402Y-77867114D01*
X68158443Y-77921910D01*
X68151669Y-77924369D01*
X68005315Y-78020323D01*
X68000363Y-78025551D01*
X68000360Y-78025553D01*
X67938855Y-78090479D01*
X67884960Y-78147372D01*
X67881344Y-78153597D01*
X67881342Y-78153600D01*
X67842875Y-78219827D01*
X67797061Y-78298702D01*
X67746333Y-78466193D01*
X67735497Y-78640862D01*
X57300500Y-78640862D01*
X57300500Y-75640862D01*
X67735497Y-75640862D01*
X67765134Y-75813340D01*
X67767957Y-75819973D01*
X67767957Y-75819975D01*
X67791805Y-75876022D01*
X67833654Y-75974373D01*
X67837921Y-75980171D01*
X67837922Y-75980173D01*
X67895092Y-76057857D01*
X67937383Y-76115324D01*
X67942874Y-76119989D01*
X67942875Y-76119990D01*
X68065261Y-76223965D01*
X68065264Y-76223967D01*
X68070755Y-76228632D01*
X68077172Y-76231909D01*
X68077174Y-76231910D01*
X68143616Y-76265837D01*
X68226616Y-76308219D01*
X68233612Y-76309931D01*
X68233615Y-76309932D01*
X68304763Y-76327341D01*
X68396606Y-76349815D01*
X68402114Y-76350157D01*
X68402116Y-76350157D01*
X68405744Y-76350382D01*
X68405748Y-76350382D01*
X68407648Y-76350500D01*
X68533822Y-76350500D01*
X68663828Y-76335343D01*
X68670595Y-76332887D01*
X68670598Y-76332886D01*
X68821557Y-76278090D01*
X68821558Y-76278089D01*
X68828331Y-76275631D01*
X68974685Y-76179677D01*
X68979637Y-76174449D01*
X68979640Y-76174447D01*
X69090087Y-76057857D01*
X69090089Y-76057855D01*
X69095040Y-76052628D01*
X69098656Y-76046403D01*
X69098658Y-76046400D01*
X69179322Y-75907525D01*
X69182939Y-75901298D01*
X69233667Y-75733807D01*
X69239229Y-75644153D01*
X69244057Y-75566332D01*
X69244057Y-75566329D01*
X69244503Y-75559138D01*
X69214866Y-75386660D01*
X69202658Y-75357968D01*
X69149166Y-75232255D01*
X69146346Y-75225627D01*
X69142078Y-75219827D01*
X69046888Y-75090479D01*
X69046886Y-75090477D01*
X69042617Y-75084676D01*
X69037125Y-75080010D01*
X68914739Y-74976035D01*
X68914736Y-74976033D01*
X68909245Y-74971368D01*
X68902828Y-74968091D01*
X68902826Y-74968090D01*
X68812388Y-74921910D01*
X68753384Y-74891781D01*
X68746388Y-74890069D01*
X68746385Y-74890068D01*
X68675237Y-74872659D01*
X68583394Y-74850185D01*
X68577886Y-74849843D01*
X68577884Y-74849843D01*
X68574256Y-74849618D01*
X68574252Y-74849618D01*
X68572352Y-74849500D01*
X68446178Y-74849500D01*
X68316172Y-74864657D01*
X68309405Y-74867113D01*
X68309402Y-74867114D01*
X68158443Y-74921910D01*
X68151669Y-74924369D01*
X68079984Y-74971368D01*
X68019543Y-75010995D01*
X68005315Y-75020323D01*
X68000363Y-75025551D01*
X68000360Y-75025553D01*
X67889913Y-75142143D01*
X67884960Y-75147372D01*
X67881344Y-75153597D01*
X67881342Y-75153600D01*
X67835656Y-75232255D01*
X67797061Y-75298702D01*
X67746333Y-75466193D01*
X67745887Y-75473385D01*
X67740347Y-75562691D01*
X67735497Y-75640862D01*
X57300500Y-75640862D01*
X57300500Y-74037139D01*
X57302384Y-74015606D01*
X57303252Y-74010683D01*
X57305136Y-74000000D01*
X57303252Y-73989316D01*
X57303252Y-73978466D01*
X57303287Y-73978466D01*
X57302563Y-73965813D01*
X57303434Y-73951393D01*
X57304496Y-73933789D01*
X59595996Y-73933789D01*
X59598128Y-73990583D01*
X59603261Y-74127281D01*
X59604913Y-74171295D01*
X59605990Y-74176430D01*
X59605991Y-74176435D01*
X59641381Y-74345101D01*
X59653719Y-74403904D01*
X59655648Y-74408788D01*
X59655649Y-74408792D01*
X59675780Y-74459766D01*
X59741020Y-74624963D01*
X59743741Y-74629447D01*
X59743743Y-74629451D01*
X59811233Y-74740670D01*
X59864319Y-74828153D01*
X60020090Y-75007664D01*
X60203880Y-75158362D01*
X60208441Y-75160958D01*
X60208442Y-75160959D01*
X60405875Y-75273345D01*
X60405880Y-75273347D01*
X60410433Y-75275939D01*
X60633844Y-75357034D01*
X60867725Y-75399326D01*
X60892619Y-75400500D01*
X61059680Y-75400500D01*
X61062296Y-75400278D01*
X61062297Y-75400278D01*
X61231590Y-75385913D01*
X61236823Y-75385469D01*
X61466874Y-75325760D01*
X61683576Y-75228143D01*
X61880732Y-75095409D01*
X62052705Y-74931355D01*
X62141265Y-74812326D01*
X74102667Y-74812326D01*
X74155168Y-75008264D01*
X74158857Y-75018397D01*
X74254110Y-75222667D01*
X74259508Y-75232017D01*
X74388784Y-75416643D01*
X74395719Y-75424907D01*
X74555091Y-75584279D01*
X74563357Y-75591215D01*
X74747992Y-75720498D01*
X74757324Y-75725886D01*
X74961603Y-75821143D01*
X74971736Y-75824832D01*
X75162779Y-75876022D01*
X75176653Y-75875691D01*
X75180000Y-75867875D01*
X75180000Y-75862806D01*
X75680000Y-75862806D01*
X75683910Y-75876123D01*
X75692326Y-75877333D01*
X75888264Y-75824832D01*
X75898397Y-75821143D01*
X76102676Y-75725886D01*
X76112008Y-75720498D01*
X76296643Y-75591215D01*
X76304909Y-75584279D01*
X76464281Y-75424907D01*
X76471216Y-75416643D01*
X76600492Y-75232017D01*
X76605890Y-75222667D01*
X76697656Y-75025876D01*
X76743829Y-74973437D01*
X76811022Y-74954285D01*
X76877903Y-74974501D01*
X76922648Y-75026368D01*
X76969369Y-75127714D01*
X76988677Y-75155034D01*
X77085811Y-75292475D01*
X77091405Y-75300391D01*
X77242865Y-75447937D01*
X77247588Y-75451093D01*
X77247592Y-75451096D01*
X77318663Y-75498584D01*
X77418677Y-75565411D01*
X77612953Y-75648878D01*
X77648277Y-75656871D01*
X77813638Y-75694289D01*
X77813642Y-75694290D01*
X77819186Y-75695544D01*
X77945315Y-75700500D01*
X78024789Y-75703623D01*
X78024791Y-75703623D01*
X78030470Y-75703846D01*
X78036090Y-75703031D01*
X78036092Y-75703031D01*
X78234103Y-75674320D01*
X78234104Y-75674320D01*
X78239730Y-75673504D01*
X78258588Y-75667103D01*
X78434565Y-75607367D01*
X78434568Y-75607366D01*
X78439955Y-75605537D01*
X78444916Y-75602759D01*
X78444922Y-75602756D01*
X78551530Y-75543052D01*
X78624442Y-75502219D01*
X78659112Y-75473385D01*
X78782645Y-75370644D01*
X78787012Y-75367012D01*
X78838089Y-75305598D01*
X78918584Y-75208813D01*
X78918585Y-75208811D01*
X78922219Y-75204442D01*
X78986042Y-75090479D01*
X79022756Y-75024922D01*
X79022759Y-75024916D01*
X79025537Y-75019955D01*
X79028579Y-75010995D01*
X79091675Y-74825118D01*
X79093504Y-74819730D01*
X79095954Y-74802831D01*
X79117820Y-74652033D01*
X79146921Y-74588512D01*
X79200225Y-74554346D01*
X79280974Y-74554346D01*
X79334347Y-74588736D01*
X79363296Y-74652327D01*
X79364271Y-74661707D01*
X79368796Y-74730749D01*
X79420845Y-74935690D01*
X79423219Y-74940841D01*
X79423221Y-74940845D01*
X79459861Y-75020323D01*
X79509369Y-75127714D01*
X79528677Y-75155034D01*
X79625811Y-75292475D01*
X79631405Y-75300391D01*
X79782865Y-75447937D01*
X79787588Y-75451093D01*
X79787592Y-75451096D01*
X79858663Y-75498584D01*
X79958677Y-75565411D01*
X80152953Y-75648878D01*
X80188277Y-75656871D01*
X80353638Y-75694289D01*
X80353642Y-75694290D01*
X80359186Y-75695544D01*
X80485315Y-75700500D01*
X80564789Y-75703623D01*
X80564791Y-75703623D01*
X80570470Y-75703846D01*
X80576090Y-75703031D01*
X80576092Y-75703031D01*
X80774103Y-75674320D01*
X80774104Y-75674320D01*
X80779730Y-75673504D01*
X80798588Y-75667103D01*
X80974565Y-75607367D01*
X80974568Y-75607366D01*
X80979955Y-75605537D01*
X80984916Y-75602759D01*
X80984922Y-75602756D01*
X81091530Y-75543052D01*
X81164442Y-75502219D01*
X81199112Y-75473385D01*
X81322645Y-75370644D01*
X81327012Y-75367012D01*
X81378089Y-75305598D01*
X81458584Y-75208813D01*
X81458585Y-75208811D01*
X81462219Y-75204442D01*
X81526042Y-75090479D01*
X81562756Y-75024922D01*
X81562759Y-75024916D01*
X81565537Y-75019955D01*
X81568579Y-75010995D01*
X81631675Y-74825118D01*
X81633504Y-74819730D01*
X81646406Y-74730749D01*
X81652783Y-74686769D01*
X81681884Y-74623248D01*
X81740707Y-74585543D01*
X81810577Y-74585627D01*
X81869310Y-74623471D01*
X81898259Y-74687061D01*
X81899500Y-74704562D01*
X81899500Y-75444646D01*
X81902618Y-75470846D01*
X81948061Y-75573153D01*
X82027287Y-75652241D01*
X82037758Y-75656870D01*
X82037759Y-75656871D01*
X82121147Y-75693737D01*
X82121149Y-75693738D01*
X82129673Y-75697506D01*
X82155354Y-75700500D01*
X83944646Y-75700500D01*
X83948300Y-75700065D01*
X83948302Y-75700065D01*
X83953266Y-75699474D01*
X83970846Y-75697382D01*
X84073153Y-75651939D01*
X84152241Y-75572713D01*
X84158243Y-75559138D01*
X84193737Y-75478853D01*
X84193738Y-75478851D01*
X84197506Y-75470327D01*
X84200500Y-75444646D01*
X84200500Y-73933789D01*
X96595996Y-73933789D01*
X96598128Y-73990583D01*
X96603261Y-74127281D01*
X96604913Y-74171295D01*
X96605990Y-74176430D01*
X96605991Y-74176435D01*
X96641381Y-74345101D01*
X96653719Y-74403904D01*
X96655648Y-74408788D01*
X96655649Y-74408792D01*
X96675780Y-74459766D01*
X96741020Y-74624963D01*
X96743741Y-74629447D01*
X96743743Y-74629451D01*
X96811233Y-74740670D01*
X96864319Y-74828153D01*
X97020090Y-75007664D01*
X97203880Y-75158362D01*
X97208441Y-75160958D01*
X97208442Y-75160959D01*
X97405875Y-75273345D01*
X97405880Y-75273347D01*
X97410433Y-75275939D01*
X97633844Y-75357034D01*
X97867725Y-75399326D01*
X97892619Y-75400500D01*
X98059680Y-75400500D01*
X98062296Y-75400278D01*
X98062297Y-75400278D01*
X98231590Y-75385913D01*
X98236823Y-75385469D01*
X98466874Y-75325760D01*
X98683576Y-75228143D01*
X98880732Y-75095409D01*
X99052705Y-74931355D01*
X99194579Y-74740670D01*
X99239644Y-74652033D01*
X99299913Y-74533493D01*
X99299915Y-74533488D01*
X99302295Y-74528807D01*
X99304384Y-74522081D01*
X99371215Y-74306848D01*
X99372775Y-74301824D01*
X99373466Y-74296612D01*
X99403315Y-74071412D01*
X99403315Y-74071408D01*
X99404004Y-74066211D01*
X99395087Y-73828705D01*
X99385166Y-73781419D01*
X99347361Y-73601242D01*
X99347360Y-73601239D01*
X99346281Y-73596096D01*
X99323243Y-73537759D01*
X99286318Y-73444262D01*
X99258980Y-73375037D01*
X99200617Y-73278857D01*
X99138408Y-73176341D01*
X99135681Y-73171847D01*
X98979910Y-72992336D01*
X98796120Y-72841638D01*
X98782256Y-72833746D01*
X98594125Y-72726655D01*
X98594120Y-72726653D01*
X98589567Y-72724061D01*
X98366156Y-72642966D01*
X98132275Y-72600674D01*
X98107381Y-72599500D01*
X97940320Y-72599500D01*
X97937704Y-72599722D01*
X97937703Y-72599722D01*
X97926484Y-72600674D01*
X97763177Y-72614531D01*
X97533126Y-72674240D01*
X97316424Y-72771857D01*
X97119268Y-72904591D01*
X96947295Y-73068645D01*
X96805421Y-73259330D01*
X96803042Y-73264008D01*
X96803042Y-73264009D01*
X96705347Y-73456163D01*
X96697705Y-73471193D01*
X96696146Y-73476213D01*
X96696145Y-73476216D01*
X96683047Y-73518398D01*
X96627225Y-73698176D01*
X96626534Y-73703386D01*
X96626534Y-73703388D01*
X96597730Y-73920708D01*
X96595996Y-73933789D01*
X84200500Y-73933789D01*
X84200500Y-73655354D01*
X84197382Y-73629154D01*
X84151939Y-73526847D01*
X84072713Y-73447759D01*
X84062242Y-73443130D01*
X84062241Y-73443129D01*
X83978853Y-73406263D01*
X83978851Y-73406262D01*
X83970327Y-73402494D01*
X83944646Y-73399500D01*
X82155354Y-73399500D01*
X82151700Y-73399935D01*
X82151698Y-73399935D01*
X82146734Y-73400526D01*
X82129154Y-73402618D01*
X82026847Y-73448061D01*
X81947759Y-73527287D01*
X81943130Y-73537758D01*
X81943129Y-73537759D01*
X81908876Y-73615238D01*
X81902494Y-73629673D01*
X81899500Y-73655354D01*
X81899500Y-74392727D01*
X81879815Y-74459766D01*
X81827011Y-74505521D01*
X81757853Y-74515465D01*
X81694297Y-74486440D01*
X81656523Y-74427662D01*
X81652020Y-74404073D01*
X81646601Y-74345101D01*
X81646601Y-74345100D01*
X81646081Y-74339440D01*
X81588686Y-74135931D01*
X81495165Y-73946290D01*
X81368651Y-73776867D01*
X81364481Y-73773012D01*
X81364478Y-73773009D01*
X81300319Y-73713702D01*
X81213381Y-73633337D01*
X81207574Y-73629673D01*
X81039363Y-73523539D01*
X81039361Y-73523538D01*
X81034554Y-73520505D01*
X80838160Y-73442152D01*
X80832579Y-73441042D01*
X80832576Y-73441041D01*
X80734467Y-73421526D01*
X80630775Y-73400901D01*
X80625088Y-73400827D01*
X80625083Y-73400826D01*
X80425034Y-73398207D01*
X80425029Y-73398207D01*
X80419346Y-73398133D01*
X80413742Y-73399096D01*
X80413741Y-73399096D01*
X80216550Y-73432979D01*
X80216547Y-73432980D01*
X80210953Y-73433941D01*
X80012575Y-73507127D01*
X80007697Y-73510029D01*
X80007695Y-73510030D01*
X79835740Y-73612332D01*
X79835737Y-73612334D01*
X79830856Y-73615238D01*
X79671881Y-73754655D01*
X79668362Y-73759119D01*
X79668359Y-73759122D01*
X79650782Y-73781419D01*
X79540976Y-73920708D01*
X79442523Y-74107836D01*
X79379820Y-74309773D01*
X79362851Y-74453140D01*
X79335425Y-74517398D01*
X79280974Y-74554346D01*
X79200225Y-74554346D01*
X79200667Y-74554063D01*
X79148057Y-74522081D01*
X79117453Y-74459271D01*
X79116232Y-74449909D01*
X79106601Y-74345100D01*
X79106081Y-74339440D01*
X79048686Y-74135931D01*
X78955165Y-73946290D01*
X78828651Y-73776867D01*
X78824481Y-73773012D01*
X78824478Y-73773009D01*
X78760319Y-73713702D01*
X78673381Y-73633337D01*
X78667574Y-73629673D01*
X78499363Y-73523539D01*
X78499361Y-73523538D01*
X78494554Y-73520505D01*
X78298160Y-73442152D01*
X78292579Y-73441042D01*
X78292576Y-73441041D01*
X78194467Y-73421526D01*
X78090775Y-73400901D01*
X78085088Y-73400827D01*
X78085083Y-73400826D01*
X77885034Y-73398207D01*
X77885029Y-73398207D01*
X77879346Y-73398133D01*
X77873742Y-73399096D01*
X77873741Y-73399096D01*
X77676550Y-73432979D01*
X77676547Y-73432980D01*
X77670953Y-73433941D01*
X77472575Y-73507127D01*
X77467697Y-73510029D01*
X77467695Y-73510030D01*
X77295740Y-73612332D01*
X77295737Y-73612334D01*
X77290856Y-73615238D01*
X77131881Y-73754655D01*
X77128362Y-73759119D01*
X77128359Y-73759122D01*
X77110782Y-73781419D01*
X77000976Y-73920708D01*
X76959258Y-74000000D01*
X76918685Y-74077117D01*
X76870050Y-74127281D01*
X76802015Y-74143187D01*
X76736181Y-74119786D01*
X76696565Y-74071786D01*
X76605890Y-73877333D01*
X76600492Y-73867983D01*
X76471216Y-73683357D01*
X76464281Y-73675093D01*
X76304909Y-73515721D01*
X76296643Y-73508785D01*
X76112008Y-73379502D01*
X76102676Y-73374114D01*
X75898397Y-73278857D01*
X75888264Y-73275168D01*
X75697221Y-73223978D01*
X75683347Y-73224309D01*
X75680000Y-73232125D01*
X75680000Y-75862806D01*
X75180000Y-75862806D01*
X75180000Y-74817830D01*
X75175596Y-74802831D01*
X75174226Y-74801644D01*
X75166668Y-74800000D01*
X74117194Y-74800000D01*
X74103877Y-74803910D01*
X74102667Y-74812326D01*
X62141265Y-74812326D01*
X62194579Y-74740670D01*
X62239644Y-74652033D01*
X62299913Y-74533493D01*
X62299915Y-74533488D01*
X62302295Y-74528807D01*
X62304384Y-74522081D01*
X62371215Y-74306848D01*
X62372775Y-74301824D01*
X62373466Y-74296612D01*
X62375299Y-74282779D01*
X74103978Y-74282779D01*
X74104309Y-74296653D01*
X74112125Y-74300000D01*
X75162170Y-74300000D01*
X75177169Y-74295596D01*
X75178356Y-74294226D01*
X75180000Y-74286668D01*
X75180000Y-73237194D01*
X75176090Y-73223877D01*
X75167674Y-73222667D01*
X74971736Y-73275168D01*
X74961603Y-73278857D01*
X74757333Y-73374110D01*
X74747983Y-73379508D01*
X74563357Y-73508784D01*
X74555093Y-73515719D01*
X74395719Y-73675093D01*
X74388784Y-73683357D01*
X74259508Y-73867983D01*
X74254110Y-73877333D01*
X74158857Y-74081603D01*
X74155168Y-74091736D01*
X74103978Y-74282779D01*
X62375299Y-74282779D01*
X62403315Y-74071412D01*
X62403315Y-74071408D01*
X62404004Y-74066211D01*
X62395087Y-73828705D01*
X62385166Y-73781419D01*
X62347361Y-73601242D01*
X62347360Y-73601239D01*
X62346281Y-73596096D01*
X62323243Y-73537759D01*
X62286318Y-73444262D01*
X62258980Y-73375037D01*
X62200617Y-73278857D01*
X62138408Y-73176341D01*
X62135681Y-73171847D01*
X61979910Y-72992336D01*
X61796120Y-72841638D01*
X61782256Y-72833746D01*
X61594125Y-72726655D01*
X61594120Y-72726653D01*
X61589567Y-72724061D01*
X61366156Y-72642966D01*
X61132275Y-72600674D01*
X61107381Y-72599500D01*
X60940320Y-72599500D01*
X60937704Y-72599722D01*
X60937703Y-72599722D01*
X60926484Y-72600674D01*
X60763177Y-72614531D01*
X60533126Y-72674240D01*
X60316424Y-72771857D01*
X60119268Y-72904591D01*
X59947295Y-73068645D01*
X59805421Y-73259330D01*
X59803042Y-73264008D01*
X59803042Y-73264009D01*
X59705347Y-73456163D01*
X59697705Y-73471193D01*
X59696146Y-73476213D01*
X59696145Y-73476216D01*
X59683047Y-73518398D01*
X59627225Y-73698176D01*
X59626534Y-73703386D01*
X59626534Y-73703388D01*
X59597730Y-73920708D01*
X59595996Y-73933789D01*
X57304496Y-73933789D01*
X57318410Y-73703251D01*
X57320207Y-73688421D01*
X57372332Y-73403345D01*
X57375900Y-73388836D01*
X57461933Y-73112098D01*
X57467220Y-73098124D01*
X57585910Y-72833746D01*
X57592839Y-72820509D01*
X57742470Y-72572319D01*
X57750941Y-72560012D01*
X57929334Y-72331621D01*
X57939224Y-72320422D01*
X58143785Y-72115151D01*
X58154950Y-72105222D01*
X58272919Y-72012419D01*
X58382726Y-71926036D01*
X58395004Y-71917523D01*
X58642669Y-71767038D01*
X58655882Y-71760063D01*
X58919845Y-71640458D01*
X58933801Y-71635122D01*
X59025356Y-71606311D01*
X59210251Y-71548128D01*
X59224731Y-71544514D01*
X59509637Y-71491401D01*
X59524459Y-71489553D01*
X59577224Y-71486185D01*
X59787032Y-71472793D01*
X59799622Y-71473469D01*
X59799622Y-71473426D01*
X59810469Y-71473389D01*
X59821158Y-71475235D01*
X59831831Y-71473315D01*
X59831834Y-71473315D01*
X59835868Y-71472589D01*
X59857914Y-71470631D01*
X85935449Y-71490762D01*
G37*
%TD.AperFunction*%
%TD*%
M02*
