%TF.GenerationSoftware,KiCad,Pcbnew,(6.0.5)*%
%TF.CreationDate,2022-05-28T10:37:04-07:00*%
%TF.ProjectId,stm32,73746d33-322e-46b6-9963-61645f706362,rev?*%
%TF.SameCoordinates,Original*%
%TF.FileFunction,Soldermask,Top*%
%TF.FilePolarity,Negative*%
%FSLAX46Y46*%
G04 Gerber Fmt 4.6, Leading zero omitted, Abs format (unit mm)*
G04 Created by KiCad (PCBNEW (6.0.5)) date 2022-05-28 10:37:04*
%MOMM*%
%LPD*%
G01*
G04 APERTURE LIST*
G04 Aperture macros list*
%AMRoundRect*
0 Rectangle with rounded corners*
0 $1 Rounding radius*
0 $2 $3 $4 $5 $6 $7 $8 $9 X,Y pos of 4 corners*
0 Add a 4 corners polygon primitive as box body*
4,1,4,$2,$3,$4,$5,$6,$7,$8,$9,$2,$3,0*
0 Add four circle primitives for the rounded corners*
1,1,$1+$1,$2,$3*
1,1,$1+$1,$4,$5*
1,1,$1+$1,$6,$7*
1,1,$1+$1,$8,$9*
0 Add four rect primitives between the rounded corners*
20,1,$1+$1,$2,$3,$4,$5,0*
20,1,$1+$1,$4,$5,$6,$7,0*
20,1,$1+$1,$6,$7,$8,$9,0*
20,1,$1+$1,$8,$9,$2,$3,0*%
G04 Aperture macros list end*
%ADD10RoundRect,0.218750X-0.218750X-0.256250X0.218750X-0.256250X0.218750X0.256250X-0.218750X0.256250X0*%
%ADD11R,1.700000X1.700000*%
%ADD12O,1.700000X1.700000*%
%ADD13RoundRect,0.140000X0.140000X0.170000X-0.140000X0.170000X-0.140000X-0.170000X0.140000X-0.170000X0*%
%ADD14RoundRect,0.140000X0.170000X-0.140000X0.170000X0.140000X-0.170000X0.140000X-0.170000X-0.140000X0*%
%ADD15RoundRect,0.135000X0.185000X-0.135000X0.185000X0.135000X-0.185000X0.135000X-0.185000X-0.135000X0*%
%ADD16RoundRect,0.250000X0.475000X-0.250000X0.475000X0.250000X-0.475000X0.250000X-0.475000X-0.250000X0*%
%ADD17R,2.400000X0.740000*%
%ADD18RoundRect,0.140000X-0.170000X0.140000X-0.170000X-0.140000X0.170000X-0.140000X0.170000X0.140000X0*%
%ADD19RoundRect,0.218750X-0.256250X0.218750X-0.256250X-0.218750X0.256250X-0.218750X0.256250X0.218750X0*%
%ADD20RoundRect,0.135000X-0.185000X0.135000X-0.185000X-0.135000X0.185000X-0.135000X0.185000X0.135000X0*%
%ADD21RoundRect,0.135000X0.135000X0.185000X-0.135000X0.185000X-0.135000X-0.185000X0.135000X-0.185000X0*%
%ADD22R,0.800000X1.000000*%
%ADD23C,0.900000*%
%ADD24R,1.500000X0.700000*%
%ADD25RoundRect,0.140000X-0.140000X-0.170000X0.140000X-0.170000X0.140000X0.170000X-0.140000X0.170000X0*%
%ADD26RoundRect,0.250000X-0.250000X-0.475000X0.250000X-0.475000X0.250000X0.475000X-0.250000X0.475000X0*%
%ADD27C,2.200000*%
%ADD28RoundRect,0.225000X-0.225000X-0.250000X0.225000X-0.250000X0.225000X0.250000X-0.225000X0.250000X0*%
%ADD29R,1.500000X2.000000*%
%ADD30R,3.800000X2.000000*%
%ADD31RoundRect,0.075000X-0.662500X-0.075000X0.662500X-0.075000X0.662500X0.075000X-0.662500X0.075000X0*%
%ADD32RoundRect,0.075000X-0.075000X-0.662500X0.075000X-0.662500X0.075000X0.662500X-0.075000X0.662500X0*%
%ADD33R,1.200000X1.400000*%
%ADD34C,0.600000*%
%ADD35R,1.160000X0.600000*%
%ADD36R,1.160000X0.300000*%
%ADD37O,1.700000X0.900000*%
%ADD38O,2.000000X0.900000*%
G04 APERTURE END LIST*
D10*
%TO.C,D2*%
X62062500Y-82600000D03*
X63637500Y-82600000D03*
%TD*%
D11*
%TO.C,J5*%
X61625000Y-86280000D03*
D12*
X61625000Y-88820000D03*
X61625000Y-91360000D03*
X61625000Y-93900000D03*
X61625000Y-96440000D03*
%TD*%
D13*
%TO.C,C5*%
X82180000Y-93450000D03*
X81220000Y-93450000D03*
%TD*%
D14*
%TO.C,C4*%
X73250000Y-84030000D03*
X73250000Y-83070000D03*
%TD*%
D15*
%TO.C,R2*%
X75050000Y-77860000D03*
X75050000Y-76840000D03*
%TD*%
D16*
%TO.C,C2*%
X92250000Y-97500000D03*
X92250000Y-95600000D03*
%TD*%
D17*
%TO.C,J3*%
X91200000Y-78990000D03*
X87300000Y-78990000D03*
X91200000Y-77720000D03*
X87300000Y-77720000D03*
X91200000Y-76450000D03*
X87300000Y-76450000D03*
X91200000Y-75180000D03*
X87300000Y-75180000D03*
X91200000Y-73910000D03*
X87300000Y-73910000D03*
%TD*%
D18*
%TO.C,C6*%
X85000000Y-84540000D03*
X85000000Y-85500000D03*
%TD*%
D11*
%TO.C,J2*%
X83050000Y-74550000D03*
D12*
X80510000Y-74550000D03*
X77970000Y-74550000D03*
X75430000Y-74550000D03*
%TD*%
D19*
%TO.C,FB1*%
X74300000Y-91525000D03*
X74300000Y-93100000D03*
%TD*%
D20*
%TO.C,R3*%
X90750000Y-85090000D03*
X90750000Y-86110000D03*
%TD*%
D21*
%TO.C,R5*%
X75010000Y-98100000D03*
X73990000Y-98100000D03*
%TD*%
D11*
%TO.C,J4*%
X73170000Y-101500000D03*
D12*
X75710000Y-101500000D03*
X78250000Y-101500000D03*
X80790000Y-101500000D03*
%TD*%
D21*
%TO.C,R4*%
X92850000Y-85250000D03*
X91830000Y-85250000D03*
%TD*%
D14*
%TO.C,C8*%
X72550000Y-89010000D03*
X72550000Y-88050000D03*
%TD*%
D22*
%TO.C,SW1*%
X69600000Y-80750000D03*
D23*
X68490000Y-78600000D03*
X68490000Y-75600000D03*
D22*
X69600000Y-73450000D03*
X67390000Y-80750000D03*
X67390000Y-73450000D03*
D24*
X70250000Y-74850000D03*
X70250000Y-77850000D03*
X70250000Y-79350000D03*
%TD*%
D15*
%TO.C,R8*%
X60650000Y-82610000D03*
X60650000Y-81590000D03*
%TD*%
D21*
%TO.C,R6*%
X78260000Y-98100000D03*
X77240000Y-98100000D03*
%TD*%
%TO.C,R7*%
X92810000Y-88250000D03*
X91790000Y-88250000D03*
%TD*%
D25*
%TO.C,C7*%
X76000000Y-81600000D03*
X76960000Y-81600000D03*
%TD*%
D26*
%TO.C,C1*%
X86400000Y-91350000D03*
X88300000Y-91350000D03*
%TD*%
D27*
%TO.C,H3*%
X98000000Y-74000000D03*
%TD*%
%TO.C,H2*%
X61000000Y-101000000D03*
%TD*%
D14*
%TO.C,C12*%
X70550000Y-85750000D03*
X70550000Y-84790000D03*
%TD*%
D28*
%TO.C,C3*%
X75725000Y-80000000D03*
X77275000Y-80000000D03*
%TD*%
D27*
%TO.C,H4*%
X98000000Y-101000000D03*
%TD*%
D29*
%TO.C,U1*%
X89750000Y-93750000D03*
X87450000Y-93750000D03*
D30*
X87450000Y-100050000D03*
D29*
X85150000Y-93750000D03*
%TD*%
D31*
%TO.C,U2*%
X74837500Y-84750000D03*
X74837500Y-85250000D03*
X74837500Y-85750000D03*
X74837500Y-86250000D03*
X74837500Y-86750000D03*
X74837500Y-87250000D03*
X74837500Y-87750000D03*
X74837500Y-88250000D03*
X74837500Y-88750000D03*
X74837500Y-89250000D03*
X74837500Y-89750000D03*
X74837500Y-90250000D03*
D32*
X76250000Y-91662500D03*
X76750000Y-91662500D03*
X77250000Y-91662500D03*
X77750000Y-91662500D03*
X78250000Y-91662500D03*
X78750000Y-91662500D03*
X79250000Y-91662500D03*
X79750000Y-91662500D03*
X80250000Y-91662500D03*
X80750000Y-91662500D03*
X81250000Y-91662500D03*
X81750000Y-91662500D03*
D31*
X83162500Y-90250000D03*
X83162500Y-89750000D03*
X83162500Y-89250000D03*
X83162500Y-88750000D03*
X83162500Y-88250000D03*
X83162500Y-87750000D03*
X83162500Y-87250000D03*
X83162500Y-86750000D03*
X83162500Y-86250000D03*
X83162500Y-85750000D03*
X83162500Y-85250000D03*
X83162500Y-84750000D03*
D32*
X81750000Y-83337500D03*
X81250000Y-83337500D03*
X80750000Y-83337500D03*
X80250000Y-83337500D03*
X79750000Y-83337500D03*
X79250000Y-83337500D03*
X78750000Y-83337500D03*
X78250000Y-83337500D03*
X77750000Y-83337500D03*
X77250000Y-83337500D03*
X76750000Y-83337500D03*
X76250000Y-83337500D03*
%TD*%
D13*
%TO.C,C10*%
X72980000Y-93100000D03*
X72020000Y-93100000D03*
%TD*%
D19*
%TO.C,D1*%
X96050000Y-95912500D03*
X96050000Y-97487500D03*
%TD*%
D14*
%TO.C,C13*%
X70550000Y-87750000D03*
X70550000Y-86790000D03*
%TD*%
D25*
%TO.C,C11*%
X76270000Y-93400000D03*
X77230000Y-93400000D03*
%TD*%
D13*
%TO.C,C9*%
X72580000Y-91480000D03*
X71620000Y-91480000D03*
%TD*%
D21*
%TO.C,R1*%
X96060000Y-94400000D03*
X95040000Y-94400000D03*
%TD*%
D33*
%TO.C,Y1*%
X67250000Y-85150000D03*
X67250000Y-87350000D03*
X68950000Y-87350000D03*
X68950000Y-85150000D03*
%TD*%
D34*
%TO.C,J1*%
X95575000Y-84110000D03*
X95575000Y-89890000D03*
D35*
X94515000Y-90200000D03*
X94515000Y-89400000D03*
D36*
X94515000Y-88250000D03*
X94515000Y-87250000D03*
X94515000Y-86750000D03*
X94515000Y-85750000D03*
D35*
X94515000Y-84600000D03*
X94515000Y-83800000D03*
X94515000Y-83800000D03*
X94515000Y-84600000D03*
D36*
X94515000Y-85250000D03*
X94515000Y-86250000D03*
X94515000Y-87750000D03*
X94515000Y-88750000D03*
D35*
X94515000Y-89400000D03*
X94515000Y-90200000D03*
D37*
X99265000Y-91320000D03*
D38*
X95095000Y-82680000D03*
D37*
X99265000Y-82680000D03*
D38*
X95095000Y-91320000D03*
%TD*%
D27*
%TO.C,H1*%
X61000000Y-74000000D03*
%TD*%
M02*
