%TF.GenerationSoftware,KiCad,Pcbnew,(6.0.5)*%
%TF.CreationDate,2022-05-28T10:37:04-07:00*%
%TF.ProjectId,stm32,73746d33-322e-46b6-9963-61645f706362,rev?*%
%TF.SameCoordinates,Original*%
%TF.FileFunction,Copper,L1,Top*%
%TF.FilePolarity,Positive*%
%FSLAX46Y46*%
G04 Gerber Fmt 4.6, Leading zero omitted, Abs format (unit mm)*
G04 Created by KiCad (PCBNEW (6.0.5)) date 2022-05-28 10:37:04*
%MOMM*%
%LPD*%
G01*
G04 APERTURE LIST*
G04 Aperture macros list*
%AMRoundRect*
0 Rectangle with rounded corners*
0 $1 Rounding radius*
0 $2 $3 $4 $5 $6 $7 $8 $9 X,Y pos of 4 corners*
0 Add a 4 corners polygon primitive as box body*
4,1,4,$2,$3,$4,$5,$6,$7,$8,$9,$2,$3,0*
0 Add four circle primitives for the rounded corners*
1,1,$1+$1,$2,$3*
1,1,$1+$1,$4,$5*
1,1,$1+$1,$6,$7*
1,1,$1+$1,$8,$9*
0 Add four rect primitives between the rounded corners*
20,1,$1+$1,$2,$3,$4,$5,0*
20,1,$1+$1,$4,$5,$6,$7,0*
20,1,$1+$1,$6,$7,$8,$9,0*
20,1,$1+$1,$8,$9,$2,$3,0*%
G04 Aperture macros list end*
%TA.AperFunction,SMDPad,CuDef*%
%ADD10RoundRect,0.218750X-0.218750X-0.256250X0.218750X-0.256250X0.218750X0.256250X-0.218750X0.256250X0*%
%TD*%
%TA.AperFunction,ComponentPad*%
%ADD11R,1.700000X1.700000*%
%TD*%
%TA.AperFunction,ComponentPad*%
%ADD12O,1.700000X1.700000*%
%TD*%
%TA.AperFunction,SMDPad,CuDef*%
%ADD13RoundRect,0.140000X0.140000X0.170000X-0.140000X0.170000X-0.140000X-0.170000X0.140000X-0.170000X0*%
%TD*%
%TA.AperFunction,SMDPad,CuDef*%
%ADD14RoundRect,0.140000X0.170000X-0.140000X0.170000X0.140000X-0.170000X0.140000X-0.170000X-0.140000X0*%
%TD*%
%TA.AperFunction,SMDPad,CuDef*%
%ADD15RoundRect,0.135000X0.185000X-0.135000X0.185000X0.135000X-0.185000X0.135000X-0.185000X-0.135000X0*%
%TD*%
%TA.AperFunction,SMDPad,CuDef*%
%ADD16RoundRect,0.250000X0.475000X-0.250000X0.475000X0.250000X-0.475000X0.250000X-0.475000X-0.250000X0*%
%TD*%
%TA.AperFunction,SMDPad,CuDef*%
%ADD17R,2.400000X0.740000*%
%TD*%
%TA.AperFunction,SMDPad,CuDef*%
%ADD18RoundRect,0.140000X-0.170000X0.140000X-0.170000X-0.140000X0.170000X-0.140000X0.170000X0.140000X0*%
%TD*%
%TA.AperFunction,SMDPad,CuDef*%
%ADD19RoundRect,0.218750X-0.256250X0.218750X-0.256250X-0.218750X0.256250X-0.218750X0.256250X0.218750X0*%
%TD*%
%TA.AperFunction,SMDPad,CuDef*%
%ADD20RoundRect,0.135000X-0.185000X0.135000X-0.185000X-0.135000X0.185000X-0.135000X0.185000X0.135000X0*%
%TD*%
%TA.AperFunction,SMDPad,CuDef*%
%ADD21RoundRect,0.135000X0.135000X0.185000X-0.135000X0.185000X-0.135000X-0.185000X0.135000X-0.185000X0*%
%TD*%
%TA.AperFunction,SMDPad,CuDef*%
%ADD22R,0.800000X1.000000*%
%TD*%
%TA.AperFunction,SMDPad,CuDef*%
%ADD23R,1.500000X0.700000*%
%TD*%
%TA.AperFunction,SMDPad,CuDef*%
%ADD24RoundRect,0.140000X-0.140000X-0.170000X0.140000X-0.170000X0.140000X0.170000X-0.140000X0.170000X0*%
%TD*%
%TA.AperFunction,SMDPad,CuDef*%
%ADD25RoundRect,0.250000X-0.250000X-0.475000X0.250000X-0.475000X0.250000X0.475000X-0.250000X0.475000X0*%
%TD*%
%TA.AperFunction,SMDPad,CuDef*%
%ADD26RoundRect,0.225000X-0.225000X-0.250000X0.225000X-0.250000X0.225000X0.250000X-0.225000X0.250000X0*%
%TD*%
%TA.AperFunction,SMDPad,CuDef*%
%ADD27R,1.500000X2.000000*%
%TD*%
%TA.AperFunction,SMDPad,CuDef*%
%ADD28R,3.800000X2.000000*%
%TD*%
%TA.AperFunction,SMDPad,CuDef*%
%ADD29RoundRect,0.075000X-0.662500X-0.075000X0.662500X-0.075000X0.662500X0.075000X-0.662500X0.075000X0*%
%TD*%
%TA.AperFunction,SMDPad,CuDef*%
%ADD30RoundRect,0.075000X-0.075000X-0.662500X0.075000X-0.662500X0.075000X0.662500X-0.075000X0.662500X0*%
%TD*%
%TA.AperFunction,SMDPad,CuDef*%
%ADD31R,1.200000X1.400000*%
%TD*%
%TA.AperFunction,SMDPad,CuDef*%
%ADD32R,1.160000X0.600000*%
%TD*%
%TA.AperFunction,SMDPad,CuDef*%
%ADD33R,1.160000X0.300000*%
%TD*%
%TA.AperFunction,ComponentPad*%
%ADD34O,1.700000X0.900000*%
%TD*%
%TA.AperFunction,ComponentPad*%
%ADD35O,2.000000X0.900000*%
%TD*%
%TA.AperFunction,ViaPad*%
%ADD36C,0.700000*%
%TD*%
%TA.AperFunction,Conductor*%
%ADD37C,0.500000*%
%TD*%
%TA.AperFunction,Conductor*%
%ADD38C,0.300000*%
%TD*%
%TA.AperFunction,Conductor*%
%ADD39C,0.200000*%
%TD*%
G04 APERTURE END LIST*
D10*
%TO.P,D2,1,K*%
%TO.N,Net-(D2-Pad1)*%
X62062500Y-82600000D03*
%TO.P,D2,2,A*%
%TO.N,/USER_LED*%
X63637500Y-82600000D03*
%TD*%
D11*
%TO.P,J5,1,Pin_1*%
%TO.N,+3V3*%
X61625000Y-86280000D03*
D12*
%TO.P,J5,2,Pin_2*%
%TO.N,/USER_IO_1*%
X61625000Y-88820000D03*
%TO.P,J5,3,Pin_3*%
%TO.N,/USER_IO_2*%
X61625000Y-91360000D03*
%TO.P,J5,4,Pin_4*%
%TO.N,/USER_IO_3*%
X61625000Y-93900000D03*
%TO.P,J5,5,Pin_5*%
%TO.N,GND*%
X61625000Y-96440000D03*
%TD*%
D13*
%TO.P,C5,1*%
%TO.N,+3V3*%
X82180000Y-93450000D03*
%TO.P,C5,2*%
%TO.N,GND*%
X81220000Y-93450000D03*
%TD*%
D14*
%TO.P,C4,1*%
%TO.N,+3V3*%
X73250000Y-84030000D03*
%TO.P,C4,2*%
%TO.N,GND*%
X73250000Y-83070000D03*
%TD*%
D15*
%TO.P,R2,1*%
%TO.N,/SW_BOOT0*%
X75050000Y-77860000D03*
%TO.P,R2,2*%
%TO.N,/BOOT0*%
X75050000Y-76840000D03*
%TD*%
D16*
%TO.P,C2,1*%
%TO.N,+3V3*%
X92250000Y-97500000D03*
%TO.P,C2,2*%
%TO.N,GND*%
X92250000Y-95600000D03*
%TD*%
D17*
%TO.P,J3,1,VTref*%
%TO.N,+3V3*%
X91200000Y-78990000D03*
%TO.P,J3,2,SWDIO/TMS*%
%TO.N,/SWCLK*%
X87300000Y-78990000D03*
%TO.P,J3,3,GND*%
%TO.N,GND*%
X91200000Y-77720000D03*
%TO.P,J3,4,SWDCLK/TCK*%
%TO.N,/SWDIO*%
X87300000Y-77720000D03*
%TO.P,J3,5,GND*%
%TO.N,GND*%
X91200000Y-76450000D03*
%TO.P,J3,6,SWO/TDO*%
%TO.N,unconnected-(J3-Pad6)*%
X87300000Y-76450000D03*
%TO.P,J3,7,KEY*%
%TO.N,unconnected-(J3-Pad7)*%
X91200000Y-75180000D03*
%TO.P,J3,8,NC/TDI*%
%TO.N,unconnected-(J3-Pad8)*%
X87300000Y-75180000D03*
%TO.P,J3,9,GNDDetect*%
%TO.N,GND*%
X91200000Y-73910000D03*
%TO.P,J3,10,~{RESET}*%
%TO.N,/JTAG_RST*%
X87300000Y-73910000D03*
%TD*%
D18*
%TO.P,C6,1*%
%TO.N,+3V3*%
X85000000Y-84540000D03*
%TO.P,C6,2*%
%TO.N,GND*%
X85000000Y-85500000D03*
%TD*%
D11*
%TO.P,J2,1,Pin_1*%
%TO.N,+3V3*%
X83050000Y-74550000D03*
D12*
%TO.P,J2,2,Pin_2*%
%TO.N,/USART1_TX*%
X80510000Y-74550000D03*
%TO.P,J2,3,Pin_3*%
%TO.N,/USART1_RX*%
X77970000Y-74550000D03*
%TO.P,J2,4,Pin_4*%
%TO.N,GND*%
X75430000Y-74550000D03*
%TD*%
D19*
%TO.P,FB1,1*%
%TO.N,+3.3VA*%
X74300000Y-91525000D03*
%TO.P,FB1,2*%
%TO.N,+3V3*%
X74300000Y-93100000D03*
%TD*%
D20*
%TO.P,R3,1*%
%TO.N,+3V3*%
X90750000Y-85090000D03*
%TO.P,R3,2*%
%TO.N,/USB_D+*%
X90750000Y-86110000D03*
%TD*%
D21*
%TO.P,R5,1*%
%TO.N,+3V3*%
X75010000Y-98100000D03*
%TO.P,R5,2*%
%TO.N,/I2C2_SCL*%
X73990000Y-98100000D03*
%TD*%
D11*
%TO.P,J4,1,Pin_1*%
%TO.N,+3V3*%
X73170000Y-101500000D03*
D12*
%TO.P,J4,2,Pin_2*%
%TO.N,/I2C2_SCL*%
X75710000Y-101500000D03*
%TO.P,J4,3,Pin_3*%
%TO.N,/I2C2_SDA*%
X78250000Y-101500000D03*
%TO.P,J4,4,Pin_4*%
%TO.N,GND*%
X80790000Y-101500000D03*
%TD*%
D21*
%TO.P,R4,1*%
%TO.N,Net-(J1-PadB5)*%
X92850000Y-85250000D03*
%TO.P,R4,2*%
%TO.N,GND*%
X91830000Y-85250000D03*
%TD*%
D14*
%TO.P,C8,1*%
%TO.N,+3.3VA*%
X72550000Y-89010000D03*
%TO.P,C8,2*%
%TO.N,GND*%
X72550000Y-88050000D03*
%TD*%
D22*
%TO.P,SW1,*%
%TO.N,*%
X69600000Y-80750000D03*
X69600000Y-73450000D03*
X67390000Y-80750000D03*
X67390000Y-73450000D03*
D23*
%TO.P,SW1,1,A*%
%TO.N,GND*%
X70250000Y-74850000D03*
%TO.P,SW1,2,B*%
%TO.N,/SW_BOOT0*%
X70250000Y-77850000D03*
%TO.P,SW1,3,C*%
%TO.N,+3V3*%
X70250000Y-79350000D03*
%TD*%
D15*
%TO.P,R8,1*%
%TO.N,Net-(D2-Pad1)*%
X60650000Y-82610000D03*
%TO.P,R8,2*%
%TO.N,GND*%
X60650000Y-81590000D03*
%TD*%
D21*
%TO.P,R6,1*%
%TO.N,+3V3*%
X78260000Y-98100000D03*
%TO.P,R6,2*%
%TO.N,/I2C2_SDA*%
X77240000Y-98100000D03*
%TD*%
%TO.P,R7,1*%
%TO.N,Net-(J1-PadA5)*%
X92810000Y-88250000D03*
%TO.P,R7,2*%
%TO.N,GND*%
X91790000Y-88250000D03*
%TD*%
D24*
%TO.P,C7,1*%
%TO.N,+3V3*%
X76000000Y-81600000D03*
%TO.P,C7,2*%
%TO.N,GND*%
X76960000Y-81600000D03*
%TD*%
D25*
%TO.P,C1,1*%
%TO.N,VBUS*%
X86400000Y-91350000D03*
%TO.P,C1,2*%
%TO.N,GND*%
X88300000Y-91350000D03*
%TD*%
D14*
%TO.P,C12,1*%
%TO.N,/HSE_IN*%
X70550000Y-85750000D03*
%TO.P,C12,2*%
%TO.N,GND*%
X70550000Y-84790000D03*
%TD*%
D26*
%TO.P,C3,1*%
%TO.N,+3V3*%
X75725000Y-80000000D03*
%TO.P,C3,2*%
%TO.N,GND*%
X77275000Y-80000000D03*
%TD*%
D27*
%TO.P,U1,1,GND*%
%TO.N,GND*%
X89750000Y-93750000D03*
%TO.P,U1,2,VO*%
%TO.N,+3V3*%
X87450000Y-93750000D03*
D28*
X87450000Y-100050000D03*
D27*
%TO.P,U1,3,VI*%
%TO.N,VBUS*%
X85150000Y-93750000D03*
%TD*%
D29*
%TO.P,U2,1,VBAT*%
%TO.N,+3V3*%
X74837500Y-84750000D03*
%TO.P,U2,2,PC13*%
%TO.N,/USER_LED*%
X74837500Y-85250000D03*
%TO.P,U2,3,PC14*%
%TO.N,unconnected-(U2-Pad3)*%
X74837500Y-85750000D03*
%TO.P,U2,4,PC15*%
%TO.N,unconnected-(U2-Pad4)*%
X74837500Y-86250000D03*
%TO.P,U2,5,PD0*%
%TO.N,/HSE_IN*%
X74837500Y-86750000D03*
%TO.P,U2,6,PD1*%
%TO.N,/HSE_OUT*%
X74837500Y-87250000D03*
%TO.P,U2,7,NRST*%
%TO.N,/JTAG_RST*%
X74837500Y-87750000D03*
%TO.P,U2,8,VSSA*%
%TO.N,GND*%
X74837500Y-88250000D03*
%TO.P,U2,9,VDDA*%
%TO.N,+3.3VA*%
X74837500Y-88750000D03*
%TO.P,U2,10,PA0*%
%TO.N,/USER_IO_1*%
X74837500Y-89250000D03*
%TO.P,U2,11,PA1*%
%TO.N,/USER_IO_2*%
X74837500Y-89750000D03*
%TO.P,U2,12,PA2*%
%TO.N,unconnected-(U2-Pad12)*%
X74837500Y-90250000D03*
D30*
%TO.P,U2,13,PA3*%
%TO.N,unconnected-(U2-Pad13)*%
X76250000Y-91662500D03*
%TO.P,U2,14,PA4*%
%TO.N,unconnected-(U2-Pad14)*%
X76750000Y-91662500D03*
%TO.P,U2,15,PA5*%
%TO.N,unconnected-(U2-Pad15)*%
X77250000Y-91662500D03*
%TO.P,U2,16,PA6*%
%TO.N,unconnected-(U2-Pad16)*%
X77750000Y-91662500D03*
%TO.P,U2,17,PA7*%
%TO.N,/USER_IO_3*%
X78250000Y-91662500D03*
%TO.P,U2,18,PB0*%
%TO.N,unconnected-(U2-Pad18)*%
X78750000Y-91662500D03*
%TO.P,U2,19,PB1*%
%TO.N,unconnected-(U2-Pad19)*%
X79250000Y-91662500D03*
%TO.P,U2,20,PB2*%
%TO.N,unconnected-(U2-Pad20)*%
X79750000Y-91662500D03*
%TO.P,U2,21,PB10*%
%TO.N,/I2C2_SCL*%
X80250000Y-91662500D03*
%TO.P,U2,22,PB11*%
%TO.N,/I2C2_SDA*%
X80750000Y-91662500D03*
%TO.P,U2,23,VSS*%
%TO.N,GND*%
X81250000Y-91662500D03*
%TO.P,U2,24,VDD*%
%TO.N,+3V3*%
X81750000Y-91662500D03*
D29*
%TO.P,U2,25,PB12*%
%TO.N,unconnected-(U2-Pad25)*%
X83162500Y-90250000D03*
%TO.P,U2,26,PB13*%
%TO.N,unconnected-(U2-Pad26)*%
X83162500Y-89750000D03*
%TO.P,U2,27,PB14*%
%TO.N,unconnected-(U2-Pad27)*%
X83162500Y-89250000D03*
%TO.P,U2,28,PB15*%
%TO.N,unconnected-(U2-Pad28)*%
X83162500Y-88750000D03*
%TO.P,U2,29,PA8*%
%TO.N,unconnected-(U2-Pad29)*%
X83162500Y-88250000D03*
%TO.P,U2,30,PA9*%
%TO.N,unconnected-(U2-Pad30)*%
X83162500Y-87750000D03*
%TO.P,U2,31,PA10*%
%TO.N,unconnected-(U2-Pad31)*%
X83162500Y-87250000D03*
%TO.P,U2,32,PA11*%
%TO.N,/USB_D-*%
X83162500Y-86750000D03*
%TO.P,U2,33,PA12*%
%TO.N,/USB_D+*%
X83162500Y-86250000D03*
%TO.P,U2,34,PA13*%
%TO.N,/SWDIO*%
X83162500Y-85750000D03*
%TO.P,U2,35,VSS*%
%TO.N,GND*%
X83162500Y-85250000D03*
%TO.P,U2,36,VDD*%
%TO.N,+3V3*%
X83162500Y-84750000D03*
D30*
%TO.P,U2,37,PA14*%
%TO.N,/SWCLK*%
X81750000Y-83337500D03*
%TO.P,U2,38,PA15*%
%TO.N,unconnected-(U2-Pad38)*%
X81250000Y-83337500D03*
%TO.P,U2,39,PB3*%
%TO.N,unconnected-(U2-Pad39)*%
X80750000Y-83337500D03*
%TO.P,U2,40,PB4*%
%TO.N,unconnected-(U2-Pad40)*%
X80250000Y-83337500D03*
%TO.P,U2,41,PB5*%
%TO.N,unconnected-(U2-Pad41)*%
X79750000Y-83337500D03*
%TO.P,U2,42,PB6*%
%TO.N,/USART1_TX*%
X79250000Y-83337500D03*
%TO.P,U2,43,PB7*%
%TO.N,/USART1_RX*%
X78750000Y-83337500D03*
%TO.P,U2,44,BOOT0*%
%TO.N,/BOOT0*%
X78250000Y-83337500D03*
%TO.P,U2,45,PB8*%
%TO.N,unconnected-(U2-Pad45)*%
X77750000Y-83337500D03*
%TO.P,U2,46,PB9*%
%TO.N,unconnected-(U2-Pad46)*%
X77250000Y-83337500D03*
%TO.P,U2,47,VSS*%
%TO.N,GND*%
X76750000Y-83337500D03*
%TO.P,U2,48,VDD*%
%TO.N,+3V3*%
X76250000Y-83337500D03*
%TD*%
D13*
%TO.P,C10,1*%
%TO.N,+3V3*%
X72980000Y-93100000D03*
%TO.P,C10,2*%
%TO.N,GND*%
X72020000Y-93100000D03*
%TD*%
D19*
%TO.P,D1,1,K*%
%TO.N,/PWR_LED_K*%
X96050000Y-95912500D03*
%TO.P,D1,2,A*%
%TO.N,+3V3*%
X96050000Y-97487500D03*
%TD*%
D14*
%TO.P,C13,1*%
%TO.N,/HSE_OUT*%
X70550000Y-87750000D03*
%TO.P,C13,2*%
%TO.N,GND*%
X70550000Y-86790000D03*
%TD*%
D24*
%TO.P,C11,1*%
%TO.N,/JTAG_RST*%
X76270000Y-93400000D03*
%TO.P,C11,2*%
%TO.N,GND*%
X77230000Y-93400000D03*
%TD*%
D13*
%TO.P,C9,1*%
%TO.N,+3.3VA*%
X72580000Y-91480000D03*
%TO.P,C9,2*%
%TO.N,GND*%
X71620000Y-91480000D03*
%TD*%
D21*
%TO.P,R1,1*%
%TO.N,/PWR_LED_K*%
X96060000Y-94400000D03*
%TO.P,R1,2*%
%TO.N,GND*%
X95040000Y-94400000D03*
%TD*%
D31*
%TO.P,Y1,1,1*%
%TO.N,/HSE_IN*%
X67250000Y-85150000D03*
%TO.P,Y1,2,2*%
%TO.N,GND*%
X67250000Y-87350000D03*
%TO.P,Y1,3,3*%
%TO.N,/HSE_OUT*%
X68950000Y-87350000D03*
%TO.P,Y1,4,4*%
%TO.N,GND*%
X68950000Y-85150000D03*
%TD*%
D32*
%TO.P,J1,A1,GND*%
%TO.N,GND*%
X94515000Y-90200000D03*
%TO.P,J1,A4,VBUS*%
%TO.N,VBUS*%
X94515000Y-89400000D03*
D33*
%TO.P,J1,A5,CC1*%
%TO.N,Net-(J1-PadA5)*%
X94515000Y-88250000D03*
%TO.P,J1,A6,D+*%
%TO.N,/USB_D+*%
X94515000Y-87250000D03*
%TO.P,J1,A7,D-*%
%TO.N,/USB_D-*%
X94515000Y-86750000D03*
%TO.P,J1,A8,SBU1*%
%TO.N,unconnected-(J1-PadA8)*%
X94515000Y-85750000D03*
D32*
%TO.P,J1,A9,VBUS*%
%TO.N,VBUS*%
X94515000Y-84600000D03*
%TO.P,J1,A12,GND*%
%TO.N,GND*%
X94515000Y-83800000D03*
%TO.P,J1,B1,GND*%
X94515000Y-83800000D03*
%TO.P,J1,B4,VBUS*%
%TO.N,VBUS*%
X94515000Y-84600000D03*
D33*
%TO.P,J1,B5,CC2*%
%TO.N,Net-(J1-PadB5)*%
X94515000Y-85250000D03*
%TO.P,J1,B6,D+*%
%TO.N,/USB_D+*%
X94515000Y-86250000D03*
%TO.P,J1,B7,D-*%
%TO.N,/USB_D-*%
X94515000Y-87750000D03*
%TO.P,J1,B8,SBU2*%
%TO.N,unconnected-(J1-PadB8)*%
X94515000Y-88750000D03*
D32*
%TO.P,J1,B9,VBUS*%
%TO.N,VBUS*%
X94515000Y-89400000D03*
%TO.P,J1,B12,GND*%
%TO.N,GND*%
X94515000Y-90200000D03*
D34*
%TO.P,J1,S1,SHIELD*%
X99265000Y-91320000D03*
D35*
X95095000Y-82680000D03*
D34*
X99265000Y-82680000D03*
D35*
X95095000Y-91320000D03*
%TD*%
D36*
%TO.N,GND*%
X92250000Y-94400000D03*
X71500000Y-86800000D03*
X85900000Y-85500000D03*
X93000000Y-77725000D03*
X93000000Y-73900000D03*
X93000000Y-76450000D03*
X89450000Y-95550000D03*
X78050000Y-93400000D03*
X68950000Y-83750000D03*
X92800000Y-91150000D03*
X70550000Y-84000000D03*
X89600000Y-91800000D03*
X60650000Y-80750000D03*
X71600000Y-90550011D03*
X76750000Y-84600000D03*
X72300000Y-83100000D03*
X76150000Y-88550000D03*
X65900000Y-87350000D03*
X94150000Y-94400000D03*
X90200000Y-95550000D03*
X71750000Y-74850000D03*
X81250000Y-90200000D03*
X72020000Y-94000000D03*
X90900000Y-88250000D03*
X92900000Y-83800000D03*
X89600000Y-91050000D03*
X91850000Y-84400000D03*
%TO.N,+3V3*%
X65000000Y-81900500D03*
X77949500Y-96650000D03*
X73290500Y-96659077D03*
X74800000Y-96650000D03*
X65000000Y-83299500D03*
X76550500Y-96650000D03*
%TO.N,/JTAG_RST*%
X81350000Y-84700000D03*
X81350000Y-81350000D03*
%TO.N,/USER_IO_1*%
X76930987Y-88996278D03*
X63750000Y-89475000D03*
%TO.N,/USER_IO_2*%
X73400000Y-89900000D03*
X63750000Y-91350000D03*
%TO.N,/USER_IO_3*%
X78550000Y-90050000D03*
X63750000Y-93150000D03*
%TD*%
D37*
%TO.N,+3V3*%
X74600000Y-80000000D02*
X74400000Y-80200000D01*
X75725000Y-80000000D02*
X74600000Y-80000000D01*
X74400000Y-83850000D02*
X74837500Y-84287500D01*
X73550000Y-79350000D02*
X74400000Y-80200000D01*
X74400000Y-80200000D02*
X74400000Y-83850000D01*
X72700000Y-79350000D02*
X73550000Y-79350000D01*
D38*
%TO.N,VBUS*%
X96800000Y-86150000D02*
X95450000Y-84800000D01*
X95450000Y-84800000D02*
X95275727Y-84800000D01*
X94665489Y-89249511D02*
X95250489Y-89249511D01*
X95250489Y-89249511D02*
X96800000Y-87700000D01*
X96800000Y-87700000D02*
X96800000Y-86150000D01*
X94515000Y-89400000D02*
X94665489Y-89249511D01*
X95275727Y-84800000D02*
X95075727Y-84600000D01*
X95075727Y-84600000D02*
X94515000Y-84600000D01*
D37*
%TO.N,GND*%
X77230000Y-93400000D02*
X78050000Y-93400000D01*
X70250000Y-74850000D02*
X71745000Y-74850000D01*
X92995000Y-77720000D02*
X91200000Y-77720000D01*
D38*
X73250000Y-88050000D02*
X72550000Y-88050000D01*
D37*
X71490000Y-86790000D02*
X71500000Y-86800000D01*
D38*
X91830000Y-85250000D02*
X91830000Y-84420000D01*
D37*
X76950000Y-81000000D02*
X76950000Y-81590000D01*
X76950000Y-81590000D02*
X76960000Y-81600000D01*
D38*
X91830000Y-84420000D02*
X91850000Y-84400000D01*
D37*
X92990000Y-73910000D02*
X91200000Y-73910000D01*
X68950000Y-85150000D02*
X68950000Y-83750000D01*
D38*
X76750000Y-82499639D02*
X76999639Y-82250000D01*
D37*
X70550000Y-84790000D02*
X70550000Y-84000000D01*
D38*
X84050000Y-85250000D02*
X84300000Y-85500000D01*
D37*
X91200000Y-76450000D02*
X93000000Y-76450000D01*
D38*
X76750000Y-83337500D02*
X76750000Y-82499639D01*
D37*
X94515000Y-90200000D02*
X93750000Y-90200000D01*
X71620000Y-90570011D02*
X71600000Y-90550011D01*
X94515000Y-83800000D02*
X92900000Y-83800000D01*
D38*
X81250000Y-93420000D02*
X81220000Y-93450000D01*
D37*
X60650000Y-81590000D02*
X60650000Y-80750000D01*
D38*
X76999639Y-82250000D02*
X77000000Y-82250000D01*
X81250000Y-91662500D02*
X81250000Y-93420000D01*
D37*
X95040000Y-94400000D02*
X94150000Y-94400000D01*
D38*
X73450000Y-88250000D02*
X73250000Y-88050000D01*
X75850000Y-88250000D02*
X76150000Y-88550000D01*
X83162500Y-85250000D02*
X84050000Y-85250000D01*
X84300000Y-85500000D02*
X85000000Y-85500000D01*
X81250000Y-91662500D02*
X81250000Y-90200000D01*
D37*
X77275000Y-80000000D02*
X77275000Y-80675000D01*
X73250000Y-83070000D02*
X72330000Y-83070000D01*
D38*
X85000000Y-85500000D02*
X85900000Y-85500000D01*
X77000000Y-81640000D02*
X76960000Y-81600000D01*
X74837500Y-88250000D02*
X75850000Y-88250000D01*
X91740000Y-88250000D02*
X90900000Y-88250000D01*
D37*
X70550000Y-86790000D02*
X71490000Y-86790000D01*
X67250000Y-87350000D02*
X65900000Y-87350000D01*
X72330000Y-83070000D02*
X72300000Y-83100000D01*
X93000000Y-73900000D02*
X92990000Y-73910000D01*
X77275000Y-80675000D02*
X76950000Y-81000000D01*
D38*
X76750000Y-83337500D02*
X76750000Y-84600000D01*
X74837500Y-88250000D02*
X73450000Y-88250000D01*
D37*
X71620000Y-91480000D02*
X71620000Y-90570011D01*
X93750000Y-90200000D02*
X92800000Y-91150000D01*
D38*
X77000000Y-82250000D02*
X77000000Y-81640000D01*
D37*
X72020000Y-93100000D02*
X72020000Y-94000000D01*
X93000000Y-77725000D02*
X92995000Y-77720000D01*
%TO.N,+3V3*%
X73290500Y-96659077D02*
X73281423Y-96650000D01*
D38*
X76000000Y-82250000D02*
X76000000Y-81600000D01*
D37*
X94750000Y-73250000D02*
X94750000Y-78850000D01*
X94150000Y-97500000D02*
X94150000Y-101850000D01*
X83050000Y-74550000D02*
X85250000Y-72350000D01*
X75725000Y-80000000D02*
X75725000Y-80775000D01*
X76000000Y-81050000D02*
X76000000Y-81600000D01*
X94150000Y-101850000D02*
X93300000Y-102700000D01*
X75010000Y-97240000D02*
X75500000Y-96750000D01*
X76550500Y-96650000D02*
X75500000Y-96650000D01*
X83200000Y-96650000D02*
X83200000Y-95650000D01*
X72980000Y-94170680D02*
X70500680Y-96650000D01*
X75725000Y-80775000D02*
X76000000Y-81050000D01*
D38*
X81750000Y-91662500D02*
X81750000Y-92500000D01*
D37*
X78260000Y-98100000D02*
X78260000Y-97440000D01*
X70250000Y-79350000D02*
X72700000Y-79350000D01*
X93300000Y-102700000D02*
X84000000Y-102700000D01*
X97965480Y-80434520D02*
X89665480Y-80434520D01*
X97965480Y-95572020D02*
X97965480Y-80434520D01*
D38*
X82200000Y-92950000D02*
X82200000Y-93430000D01*
D37*
X97965480Y-79765480D02*
X97190000Y-78990000D01*
X88460000Y-84540000D02*
X85000000Y-84540000D01*
X75500000Y-96750000D02*
X75500000Y-96650000D01*
X65000000Y-81900500D02*
X71099500Y-81900500D01*
X89550000Y-83450000D02*
X89550000Y-83890000D01*
X89550000Y-83450000D02*
X88460000Y-84540000D01*
X72980000Y-93100000D02*
X74300000Y-93100000D01*
X97190000Y-78990000D02*
X91200000Y-78990000D01*
X97965480Y-80434520D02*
X97965480Y-79765480D01*
X72700000Y-79350000D02*
X72700000Y-80300000D01*
X72700000Y-80300000D02*
X71099500Y-81900500D01*
X83200000Y-96650000D02*
X80050000Y-96650000D01*
X89665480Y-80434520D02*
X89550000Y-80550000D01*
D38*
X83162500Y-84750000D02*
X84100000Y-84750000D01*
D37*
X74837500Y-84287500D02*
X74837500Y-84650480D01*
X73170000Y-101500000D02*
X73150000Y-101500000D01*
X96050000Y-97487500D02*
X97965480Y-95572020D01*
X82180000Y-94630000D02*
X82180000Y-93450000D01*
X89550000Y-80550000D02*
X89550000Y-83450000D01*
X65000000Y-84500000D02*
X65000000Y-83299500D01*
X83200000Y-101900000D02*
X83200000Y-96650000D01*
X89550000Y-83890000D02*
X90750000Y-85090000D01*
X63820000Y-86280000D02*
X61625000Y-86280000D01*
X79050000Y-96650000D02*
X77949500Y-96650000D01*
X85650000Y-72350000D02*
X93850000Y-72350000D01*
X70500680Y-96650000D02*
X70400000Y-96650000D01*
X65550000Y-96650000D02*
X70400000Y-96650000D01*
X94150000Y-97500000D02*
X95937500Y-97500000D01*
X65000000Y-85100000D02*
X63820000Y-86280000D01*
D38*
X76250000Y-83337500D02*
X76250000Y-82500000D01*
D37*
X84000000Y-102700000D02*
X83200000Y-101900000D01*
D38*
X82200000Y-93430000D02*
X82180000Y-93450000D01*
D37*
X65000000Y-96100000D02*
X65000000Y-85100000D01*
X73250000Y-84030000D02*
X74580000Y-84030000D01*
X73150000Y-101500000D02*
X71500000Y-99850000D01*
X65000000Y-96100000D02*
X65550000Y-96650000D01*
X83200000Y-95650000D02*
X82180000Y-94630000D01*
X71500000Y-99850000D02*
X71500000Y-96650000D01*
D38*
X84100000Y-84750000D02*
X84310000Y-84540000D01*
X76250000Y-82500000D02*
X76000000Y-82250000D01*
D37*
X93850000Y-72350000D02*
X94750000Y-73250000D01*
X92250000Y-97500000D02*
X94150000Y-97500000D01*
X75010000Y-97240000D02*
X75010000Y-98100000D01*
X65000000Y-85100000D02*
X65000000Y-84500000D01*
X72980000Y-93100000D02*
X72980000Y-94170680D01*
X70400000Y-96650000D02*
X71500000Y-96650000D01*
D38*
X81750000Y-92500000D02*
X82200000Y-92950000D01*
D37*
X73281423Y-96650000D02*
X71500000Y-96650000D01*
X80050000Y-96650000D02*
X79050000Y-96650000D01*
X95937500Y-97500000D02*
X96050000Y-97387500D01*
X78260000Y-97440000D02*
X79050000Y-96650000D01*
X75500000Y-96650000D02*
X74800000Y-96650000D01*
X74580000Y-84030000D02*
X74837500Y-84287500D01*
X85250000Y-72350000D02*
X85650000Y-72350000D01*
D38*
X84310000Y-84540000D02*
X85000000Y-84540000D01*
D37*
%TO.N,+3.3VA*%
X74275000Y-91500000D02*
X74300000Y-91525000D01*
X72580000Y-91480000D02*
X73875000Y-91480000D01*
D38*
X73450000Y-88750000D02*
X73190000Y-89010000D01*
X73190000Y-89010000D02*
X72550000Y-89010000D01*
D37*
X72580000Y-91480000D02*
X72580000Y-89040000D01*
D38*
X74837500Y-88750000D02*
X73450000Y-88750000D01*
%TO.N,/JTAG_RST*%
X78300000Y-87750000D02*
X81350000Y-84700000D01*
X77650000Y-89800000D02*
X76950000Y-90500000D01*
X77100000Y-87750000D02*
X77650000Y-88300000D01*
X76950000Y-90500000D02*
X75950000Y-90500000D01*
X81350000Y-81350000D02*
X81700000Y-81000000D01*
X76650000Y-87750000D02*
X77100000Y-87750000D01*
X75950000Y-90500000D02*
X75450000Y-91000000D01*
X75550000Y-93400000D02*
X76270000Y-93400000D01*
X77650000Y-88300000D02*
X77650000Y-89800000D01*
X82050000Y-76150000D02*
X85250000Y-76150000D01*
X85500000Y-74250000D02*
X85840000Y-73910000D01*
X75450000Y-91000000D02*
X75450000Y-93300000D01*
X85840000Y-73910000D02*
X87300000Y-73910000D01*
X81700000Y-76500000D02*
X82050000Y-76150000D01*
X81700000Y-81000000D02*
X81700000Y-76500000D01*
X76650000Y-87750000D02*
X78300000Y-87750000D01*
X85250000Y-76150000D02*
X85500000Y-75900000D01*
X74837500Y-87750000D02*
X76650000Y-87750000D01*
X75450000Y-93300000D02*
X75550000Y-93400000D01*
X85500000Y-75900000D02*
X85500000Y-74250000D01*
%TO.N,/HSE_IN*%
X67250000Y-85500000D02*
X67250000Y-85150000D01*
X70100000Y-86200000D02*
X67950000Y-86200000D01*
X72999639Y-86750000D02*
X74837500Y-86750000D01*
X71999639Y-85750000D02*
X70550000Y-85750000D01*
X72999639Y-86750000D02*
X71999639Y-85750000D01*
X67950000Y-86200000D02*
X67250000Y-85500000D01*
X70550000Y-85750000D02*
X70100000Y-86200000D01*
%TO.N,/HSE_OUT*%
X74837500Y-87250000D02*
X72050000Y-87250000D01*
X70550000Y-87750000D02*
X69350000Y-87750000D01*
X72050000Y-87250000D02*
X71550000Y-87750000D01*
X71550000Y-87750000D02*
X70550000Y-87750000D01*
D37*
%TO.N,/PWR_LED_K*%
X96050000Y-94410000D02*
X96060000Y-94400000D01*
X96050000Y-95912500D02*
X96050000Y-94410000D01*
D39*
%TO.N,/USB_D+*%
X93644999Y-86250000D02*
X94515000Y-86250000D01*
D38*
X95444022Y-86250000D02*
X94515000Y-86250000D01*
X95750000Y-86555978D02*
X95444022Y-86250000D01*
X95750000Y-86900000D02*
X95750000Y-86555978D01*
D39*
X83187499Y-86274999D02*
X93619999Y-86275000D01*
D38*
X95400000Y-87250000D02*
X95750000Y-86900000D01*
D39*
X83162500Y-86250000D02*
X83187499Y-86274999D01*
D38*
X94515000Y-87250000D02*
X95400000Y-87250000D01*
D39*
X93619999Y-86275000D02*
X93644999Y-86250000D01*
%TO.N,/USB_D-*%
X93700000Y-87750000D02*
X94515000Y-87750000D01*
X83162500Y-86750000D02*
X83187499Y-86725001D01*
X92675000Y-86725000D02*
X93700000Y-87750000D01*
X92675000Y-86725000D02*
X93619999Y-86725000D01*
X83187499Y-86725001D02*
X92675000Y-86725000D01*
X93644999Y-86750000D02*
X94515000Y-86750000D01*
D38*
%TO.N,/USART1_TX*%
X81100000Y-80500000D02*
X81100000Y-76450000D01*
X79250000Y-82350000D02*
X81100000Y-80500000D01*
X79250000Y-83337500D02*
X79250000Y-82350000D01*
X80510000Y-75860000D02*
X81100000Y-76450000D01*
X80510000Y-74550000D02*
X80510000Y-75860000D01*
%TO.N,/USART1_RX*%
X78000000Y-76050000D02*
X77970000Y-76020000D01*
X78750000Y-83337500D02*
X78750480Y-83337500D01*
X78750480Y-82099520D02*
X80600480Y-80249520D01*
X80600480Y-76700000D02*
X79950480Y-76050000D01*
X78750480Y-83337500D02*
X78750480Y-82099520D01*
X77970000Y-76020000D02*
X77970000Y-74550000D01*
X80600480Y-80249520D02*
X80600480Y-76700000D01*
X79950480Y-76050000D02*
X78000000Y-76050000D01*
%TO.N,/SWCLK*%
X87712500Y-83337500D02*
X88100480Y-82949520D01*
X88100480Y-82949520D02*
X88100480Y-79790480D01*
X88100480Y-79790480D02*
X87300000Y-78990000D01*
X87712500Y-83337500D02*
X81750000Y-83337500D01*
%TO.N,/SWDIO*%
X82525361Y-83900000D02*
X88200000Y-83900000D01*
X89200000Y-79200000D02*
X89200000Y-78000000D01*
X82324639Y-85750000D02*
X82075480Y-85500841D01*
X82075480Y-85500841D02*
X82075480Y-84349881D01*
X88200000Y-83900000D02*
X88600000Y-83500000D01*
X88599999Y-83100000D02*
X88599999Y-79800001D01*
X82075480Y-84349881D02*
X82525361Y-83900000D01*
X83162500Y-85750000D02*
X82324639Y-85750000D01*
X88600000Y-83500000D02*
X88599999Y-83100000D01*
X88870000Y-77720000D02*
X87300000Y-77720000D01*
X88599999Y-79800001D02*
X89200000Y-79200000D01*
X88920000Y-77720000D02*
X88870000Y-77720000D01*
X89200000Y-78000000D02*
X88920000Y-77720000D01*
%TO.N,/I2C2_SCL*%
X79350000Y-94700000D02*
X75750000Y-94700000D01*
X79600361Y-94449639D02*
X79350000Y-94700000D01*
X73990000Y-98100000D02*
X73990000Y-99780000D01*
X80250000Y-92500361D02*
X79600361Y-93150000D01*
X73990000Y-99780000D02*
X75710000Y-101500000D01*
X73990000Y-96460000D02*
X73990000Y-98100000D01*
X80250000Y-91662500D02*
X80250000Y-92500361D01*
X75750000Y-94700000D02*
X73990000Y-96460000D01*
X79600361Y-93150000D02*
X79600361Y-94449639D01*
%TO.N,/I2C2_SDA*%
X80750000Y-92917715D02*
X80590480Y-93077235D01*
X77250000Y-98090000D02*
X77240000Y-98100000D01*
X77240000Y-98100000D02*
X77240000Y-100490000D01*
X77250000Y-96101241D02*
X77250000Y-98090000D01*
X77240000Y-100490000D02*
X78250000Y-101500000D01*
X78051241Y-95300000D02*
X77250000Y-96101241D01*
X80590480Y-93077235D02*
X80590480Y-94709520D01*
X80750000Y-91662500D02*
X80750000Y-92917715D01*
X80000000Y-95300000D02*
X78051241Y-95300000D01*
X80590480Y-94709520D02*
X80000000Y-95300000D01*
%TO.N,/SW_BOOT0*%
X70250000Y-77850000D02*
X75040000Y-77850000D01*
X75040000Y-77850000D02*
X75050000Y-77860000D01*
%TO.N,/BOOT0*%
X79971786Y-80171786D02*
X79971786Y-77271786D01*
X75050000Y-76840000D02*
X79540000Y-76840000D01*
X78250000Y-81893573D02*
X79971786Y-80171786D01*
X78250000Y-83337500D02*
X78250000Y-81893573D01*
X79971786Y-77271786D02*
X79540000Y-76840000D01*
%TO.N,Net-(J1-PadB5)*%
X92850000Y-85250000D02*
X94515000Y-85250000D01*
%TO.N,Net-(J1-PadA5)*%
X92760000Y-88250000D02*
X94515000Y-88250000D01*
D37*
%TO.N,Net-(D2-Pad1)*%
X62062500Y-82600000D02*
X60660000Y-82600000D01*
X60660000Y-82600000D02*
X60650000Y-82610000D01*
D38*
%TO.N,/USER_LED*%
X72500000Y-84700000D02*
X71600489Y-83800489D01*
X74837500Y-85250000D02*
X73850000Y-85250000D01*
X63637500Y-82600000D02*
X71300978Y-82600000D01*
X71600489Y-82899511D02*
X71300978Y-82600000D01*
X73850000Y-85250000D02*
X73300000Y-84700000D01*
X71600489Y-83800489D02*
X71600489Y-82899511D01*
X73300000Y-84700000D02*
X72500000Y-84700000D01*
%TO.N,/USER_IO_1*%
X74837500Y-89250000D02*
X76677265Y-89250000D01*
X63750000Y-89475000D02*
X62460000Y-89475000D01*
X62460000Y-89475000D02*
X61625000Y-88640000D01*
X76677265Y-89250000D02*
X76930987Y-88996278D01*
%TO.N,/USER_IO_2*%
X73550000Y-89750000D02*
X73400000Y-89900000D01*
X74837500Y-89750000D02*
X73550000Y-89750000D01*
X63750000Y-91350000D02*
X63740000Y-91360000D01*
X63740000Y-91360000D02*
X61625000Y-91360000D01*
%TO.N,/USER_IO_3*%
X78250000Y-90350000D02*
X78550000Y-90050000D01*
X62195000Y-93150000D02*
X61625000Y-93720000D01*
X78250000Y-91662500D02*
X78250000Y-90350000D01*
X63750000Y-93150000D02*
X62195000Y-93150000D01*
%TD*%
%TA.AperFunction,Conductor*%
%TO.N,GND*%
G36*
X90073542Y-90369685D02*
G01*
X90083965Y-90377172D01*
X90503462Y-90712770D01*
X90543514Y-90770021D01*
X90550000Y-90809598D01*
X90550000Y-93450000D01*
X91000000Y-94000000D01*
X92886187Y-94000000D01*
X92953226Y-94019685D01*
X92987090Y-94051926D01*
X93176903Y-94317664D01*
X93200000Y-94389738D01*
X93200000Y-95991922D01*
X93180315Y-96058961D01*
X93155387Y-96087178D01*
X92934487Y-96271261D01*
X92870386Y-96299055D01*
X92855106Y-96300000D01*
X91126636Y-96300000D01*
X91059597Y-96280315D01*
X91015727Y-96231454D01*
X90907974Y-96015947D01*
X90907973Y-96015946D01*
X90900000Y-96000000D01*
X89263813Y-96000000D01*
X89196774Y-95980315D01*
X89162910Y-95948074D01*
X88973097Y-95682336D01*
X88950000Y-95610262D01*
X88950000Y-92300000D01*
X87901362Y-92300000D01*
X87834323Y-92280315D01*
X87813681Y-92263681D01*
X87636319Y-92086319D01*
X87602834Y-92024996D01*
X87600000Y-91998638D01*
X87600000Y-90621960D01*
X87619685Y-90554921D01*
X87662479Y-90514298D01*
X87921409Y-90366338D01*
X87982930Y-90350000D01*
X90006503Y-90350000D01*
X90073542Y-90369685D01*
G37*
%TD.AperFunction*%
%TD*%
%TA.AperFunction,Conductor*%
%TO.N,+3V3*%
G36*
X88277665Y-92619685D02*
G01*
X88323420Y-92672489D01*
X88328261Y-92684782D01*
X88361441Y-92784323D01*
X88393637Y-92880911D01*
X88400000Y-92920123D01*
X88400000Y-96150000D01*
X89150000Y-96750000D01*
X92986187Y-96750000D01*
X93053226Y-96769685D01*
X93087090Y-96801926D01*
X93251032Y-97031444D01*
X93276903Y-97067664D01*
X93300000Y-97139738D01*
X93300000Y-100163241D01*
X93279967Y-100230820D01*
X92686674Y-101143579D01*
X92633634Y-101189059D01*
X92582707Y-101200000D01*
X85559598Y-101200000D01*
X85492559Y-101180315D01*
X85462770Y-101153462D01*
X85327172Y-100983965D01*
X85300664Y-100919319D01*
X85300000Y-100906503D01*
X85300000Y-97098483D01*
X85319685Y-97031444D01*
X85332884Y-97014376D01*
X86124950Y-96156304D01*
X86500000Y-95750000D01*
X86500000Y-92851362D01*
X86519685Y-92784323D01*
X86536319Y-92763681D01*
X86663681Y-92636319D01*
X86725004Y-92602834D01*
X86751362Y-92600000D01*
X88210626Y-92600000D01*
X88277665Y-92619685D01*
G37*
%TD.AperFunction*%
%TD*%
%TA.AperFunction,Conductor*%
%TO.N,VBUS*%
G36*
X93637127Y-89019685D02*
G01*
X93672280Y-89053766D01*
X93678414Y-89062691D01*
X93683061Y-89073153D01*
X93762287Y-89152241D01*
X93772758Y-89156870D01*
X93772759Y-89156871D01*
X93856147Y-89193737D01*
X93856149Y-89193738D01*
X93864673Y-89197506D01*
X93890354Y-89200500D01*
X95076000Y-89200500D01*
X95143039Y-89220185D01*
X95188794Y-89272989D01*
X95200000Y-89324500D01*
X95200000Y-89359683D01*
X95180315Y-89426722D01*
X95158417Y-89450524D01*
X95158914Y-89451021D01*
X95153162Y-89456773D01*
X95146718Y-89461718D01*
X95078220Y-89550987D01*
X95021792Y-89592189D01*
X94979844Y-89599500D01*
X93890354Y-89599500D01*
X93886700Y-89599935D01*
X93886698Y-89599935D01*
X93881734Y-89600526D01*
X93864154Y-89602618D01*
X93818702Y-89622807D01*
X93785458Y-89637573D01*
X93729932Y-89648140D01*
X93706156Y-89647144D01*
X93706155Y-89647144D01*
X93697706Y-89646790D01*
X93689475Y-89648721D01*
X93689471Y-89648721D01*
X93655253Y-89656747D01*
X93643768Y-89658876D01*
X93625912Y-89661322D01*
X93608940Y-89663647D01*
X93608939Y-89663647D01*
X93600568Y-89664794D01*
X93592810Y-89668151D01*
X93592811Y-89668151D01*
X93586611Y-89670834D01*
X93565675Y-89677758D01*
X93559097Y-89679301D01*
X93550864Y-89681232D01*
X93512654Y-89702238D01*
X93502165Y-89707376D01*
X93469909Y-89721335D01*
X93469908Y-89721336D01*
X93462145Y-89724695D01*
X93455573Y-89730017D01*
X93452189Y-89732066D01*
X93387954Y-89750000D01*
X87750000Y-89750000D01*
X87150000Y-90350000D01*
X87150000Y-91910262D01*
X87126903Y-91982336D01*
X86937090Y-92248074D01*
X86882106Y-92291184D01*
X86836187Y-92300000D01*
X86350000Y-92300000D01*
X86343939Y-92307274D01*
X86343936Y-92307276D01*
X86111413Y-92586304D01*
X86100000Y-92600000D01*
X86100000Y-94698638D01*
X86080315Y-94765677D01*
X86063681Y-94786319D01*
X85936319Y-94913681D01*
X85874996Y-94947166D01*
X85848638Y-94950000D01*
X84508078Y-94950000D01*
X84441039Y-94930315D01*
X84412822Y-94905387D01*
X84228739Y-94684487D01*
X84200945Y-94620386D01*
X84200000Y-94605106D01*
X84200000Y-92698693D01*
X84219685Y-92631654D01*
X84233134Y-92614317D01*
X84234705Y-92612625D01*
X84850000Y-91950000D01*
X84850000Y-90288166D01*
X84871461Y-90218440D01*
X85663094Y-89054274D01*
X85717069Y-89009906D01*
X85765633Y-89000000D01*
X93570088Y-89000000D01*
X93637127Y-89019685D01*
G37*
%TD.AperFunction*%
%TD*%
M02*
