%TF.GenerationSoftware,KiCad,Pcbnew,(6.0.5)*%
%TF.CreationDate,2022-05-28T10:37:04-07:00*%
%TF.ProjectId,stm32,73746d33-322e-46b6-9963-61645f706362,rev?*%
%TF.SameCoordinates,Original*%
%TF.FileFunction,Legend,Bot*%
%TF.FilePolarity,Positive*%
%FSLAX46Y46*%
G04 Gerber Fmt 4.6, Leading zero omitted, Abs format (unit mm)*
G04 Created by KiCad (PCBNEW (6.0.5)) date 2022-05-28 10:37:04*
%MOMM*%
%LPD*%
G01*
G04 APERTURE LIST*
%ADD10C,0.150000*%
%ADD11R,1.700000X1.700000*%
%ADD12O,1.700000X1.700000*%
%ADD13C,0.900000*%
%ADD14C,2.200000*%
%ADD15C,0.600000*%
%ADD16O,1.700000X0.900000*%
%ADD17O,2.000000X0.900000*%
G04 APERTURE END LIST*
D10*
X83101428Y-78834761D02*
X82958571Y-78882380D01*
X82720476Y-78882380D01*
X82625238Y-78834761D01*
X82577619Y-78787142D01*
X82530000Y-78691904D01*
X82530000Y-78596666D01*
X82577619Y-78501428D01*
X82625238Y-78453809D01*
X82720476Y-78406190D01*
X82910952Y-78358571D01*
X83006190Y-78310952D01*
X83053809Y-78263333D01*
X83101428Y-78168095D01*
X83101428Y-78072857D01*
X83053809Y-77977619D01*
X83006190Y-77930000D01*
X82910952Y-77882380D01*
X82672857Y-77882380D01*
X82530000Y-77930000D01*
X82244285Y-77882380D02*
X81672857Y-77882380D01*
X81958571Y-78882380D02*
X81958571Y-77882380D01*
X81339523Y-78882380D02*
X81339523Y-77882380D01*
X81006190Y-78596666D01*
X80672857Y-77882380D01*
X80672857Y-78882380D01*
X80291904Y-77882380D02*
X79672857Y-77882380D01*
X80006190Y-78263333D01*
X79863333Y-78263333D01*
X79768095Y-78310952D01*
X79720476Y-78358571D01*
X79672857Y-78453809D01*
X79672857Y-78691904D01*
X79720476Y-78787142D01*
X79768095Y-78834761D01*
X79863333Y-78882380D01*
X80149047Y-78882380D01*
X80244285Y-78834761D01*
X80291904Y-78787142D01*
X79291904Y-77977619D02*
X79244285Y-77930000D01*
X79149047Y-77882380D01*
X78910952Y-77882380D01*
X78815714Y-77930000D01*
X78768095Y-77977619D01*
X78720476Y-78072857D01*
X78720476Y-78168095D01*
X78768095Y-78310952D01*
X79339523Y-78882380D01*
X78720476Y-78882380D01*
X77530000Y-78882380D02*
X77530000Y-77882380D01*
X77196666Y-78596666D01*
X76863333Y-77882380D01*
X76863333Y-78882380D01*
X76387142Y-78882380D02*
X76387142Y-78215714D01*
X76387142Y-77882380D02*
X76434761Y-77930000D01*
X76387142Y-77977619D01*
X76339523Y-77930000D01*
X76387142Y-77882380D01*
X76387142Y-77977619D01*
X75482380Y-78834761D02*
X75577619Y-78882380D01*
X75768095Y-78882380D01*
X75863333Y-78834761D01*
X75910952Y-78787142D01*
X75958571Y-78691904D01*
X75958571Y-78406190D01*
X75910952Y-78310952D01*
X75863333Y-78263333D01*
X75768095Y-78215714D01*
X75577619Y-78215714D01*
X75482380Y-78263333D01*
X75053809Y-78882380D02*
X75053809Y-78215714D01*
X75053809Y-78406190D02*
X75006190Y-78310952D01*
X74958571Y-78263333D01*
X74863333Y-78215714D01*
X74768095Y-78215714D01*
X74291904Y-78882380D02*
X74387142Y-78834761D01*
X74434761Y-78787142D01*
X74482380Y-78691904D01*
X74482380Y-78406190D01*
X74434761Y-78310952D01*
X74387142Y-78263333D01*
X74291904Y-78215714D01*
X74149047Y-78215714D01*
X74053809Y-78263333D01*
X74006190Y-78310952D01*
X73958571Y-78406190D01*
X73958571Y-78691904D01*
X74006190Y-78787142D01*
X74053809Y-78834761D01*
X74149047Y-78882380D01*
X74291904Y-78882380D01*
X91222619Y-99552380D02*
X91222619Y-98552380D01*
X90794047Y-99552380D02*
X90794047Y-99028571D01*
X90841666Y-98933333D01*
X90936904Y-98885714D01*
X91079761Y-98885714D01*
X91175000Y-98933333D01*
X91222619Y-98980952D01*
X90460714Y-98885714D02*
X90079761Y-98885714D01*
X90317857Y-98552380D02*
X90317857Y-99409523D01*
X90270238Y-99504761D01*
X90175000Y-99552380D01*
X90079761Y-99552380D01*
X89889285Y-98885714D02*
X89508333Y-98885714D01*
X89746428Y-98552380D02*
X89746428Y-99409523D01*
X89698809Y-99504761D01*
X89603571Y-99552380D01*
X89508333Y-99552380D01*
X89175000Y-98885714D02*
X89175000Y-99885714D01*
X89175000Y-98933333D02*
X89079761Y-98885714D01*
X88889285Y-98885714D01*
X88794047Y-98933333D01*
X88746428Y-98980952D01*
X88698809Y-99076190D01*
X88698809Y-99361904D01*
X88746428Y-99457142D01*
X88794047Y-99504761D01*
X88889285Y-99552380D01*
X89079761Y-99552380D01*
X89175000Y-99504761D01*
X88317857Y-99504761D02*
X88222619Y-99552380D01*
X88032142Y-99552380D01*
X87936904Y-99504761D01*
X87889285Y-99409523D01*
X87889285Y-99361904D01*
X87936904Y-99266666D01*
X88032142Y-99219047D01*
X88175000Y-99219047D01*
X88270238Y-99171428D01*
X88317857Y-99076190D01*
X88317857Y-99028571D01*
X88270238Y-98933333D01*
X88175000Y-98885714D01*
X88032142Y-98885714D01*
X87936904Y-98933333D01*
X87460714Y-99457142D02*
X87413095Y-99504761D01*
X87460714Y-99552380D01*
X87508333Y-99504761D01*
X87460714Y-99457142D01*
X87460714Y-99552380D01*
X87460714Y-98933333D02*
X87413095Y-98980952D01*
X87460714Y-99028571D01*
X87508333Y-98980952D01*
X87460714Y-98933333D01*
X87460714Y-99028571D01*
X86270238Y-98504761D02*
X87127380Y-99790476D01*
X85222619Y-98504761D02*
X86079761Y-99790476D01*
X84460714Y-98885714D02*
X84460714Y-99695238D01*
X84508333Y-99790476D01*
X84555952Y-99838095D01*
X84651190Y-99885714D01*
X84794047Y-99885714D01*
X84889285Y-99838095D01*
X84460714Y-99504761D02*
X84555952Y-99552380D01*
X84746428Y-99552380D01*
X84841666Y-99504761D01*
X84889285Y-99457142D01*
X84936904Y-99361904D01*
X84936904Y-99076190D01*
X84889285Y-98980952D01*
X84841666Y-98933333D01*
X84746428Y-98885714D01*
X84555952Y-98885714D01*
X84460714Y-98933333D01*
X83984523Y-99552380D02*
X83984523Y-98885714D01*
X83984523Y-98552380D02*
X84032142Y-98600000D01*
X83984523Y-98647619D01*
X83936904Y-98600000D01*
X83984523Y-98552380D01*
X83984523Y-98647619D01*
X83651190Y-98885714D02*
X83270238Y-98885714D01*
X83508333Y-98552380D02*
X83508333Y-99409523D01*
X83460714Y-99504761D01*
X83365476Y-99552380D01*
X83270238Y-99552380D01*
X82936904Y-99552380D02*
X82936904Y-98552380D01*
X82508333Y-99552380D02*
X82508333Y-99028571D01*
X82555952Y-98933333D01*
X82651190Y-98885714D01*
X82794047Y-98885714D01*
X82889285Y-98933333D01*
X82936904Y-98980952D01*
X81603571Y-98885714D02*
X81603571Y-99552380D01*
X82032142Y-98885714D02*
X82032142Y-99409523D01*
X81984523Y-99504761D01*
X81889285Y-99552380D01*
X81746428Y-99552380D01*
X81651190Y-99504761D01*
X81603571Y-99457142D01*
X81127380Y-99552380D02*
X81127380Y-98552380D01*
X81127380Y-98933333D02*
X81032142Y-98885714D01*
X80841666Y-98885714D01*
X80746428Y-98933333D01*
X80698809Y-98980952D01*
X80651190Y-99076190D01*
X80651190Y-99361904D01*
X80698809Y-99457142D01*
X80746428Y-99504761D01*
X80841666Y-99552380D01*
X81032142Y-99552380D01*
X81127380Y-99504761D01*
X80222619Y-99457142D02*
X80175000Y-99504761D01*
X80222619Y-99552380D01*
X80270238Y-99504761D01*
X80222619Y-99457142D01*
X80222619Y-99552380D01*
X79317857Y-99504761D02*
X79413095Y-99552380D01*
X79603571Y-99552380D01*
X79698809Y-99504761D01*
X79746428Y-99457142D01*
X79794047Y-99361904D01*
X79794047Y-99076190D01*
X79746428Y-98980952D01*
X79698809Y-98933333D01*
X79603571Y-98885714D01*
X79413095Y-98885714D01*
X79317857Y-98933333D01*
X78746428Y-99552380D02*
X78841666Y-99504761D01*
X78889285Y-99457142D01*
X78936904Y-99361904D01*
X78936904Y-99076190D01*
X78889285Y-98980952D01*
X78841666Y-98933333D01*
X78746428Y-98885714D01*
X78603571Y-98885714D01*
X78508333Y-98933333D01*
X78460714Y-98980952D01*
X78413095Y-99076190D01*
X78413095Y-99361904D01*
X78460714Y-99457142D01*
X78508333Y-99504761D01*
X78603571Y-99552380D01*
X78746428Y-99552380D01*
X77984523Y-99552380D02*
X77984523Y-98885714D01*
X77984523Y-98980952D02*
X77936904Y-98933333D01*
X77841666Y-98885714D01*
X77698809Y-98885714D01*
X77603571Y-98933333D01*
X77555952Y-99028571D01*
X77555952Y-99552380D01*
X77555952Y-99028571D02*
X77508333Y-98933333D01*
X77413095Y-98885714D01*
X77270238Y-98885714D01*
X77175000Y-98933333D01*
X77127380Y-99028571D01*
X77127380Y-99552380D01*
X75936904Y-98504761D02*
X76794047Y-99790476D01*
X75175000Y-99552380D02*
X75175000Y-98552380D01*
X75175000Y-99504761D02*
X75270238Y-99552380D01*
X75460714Y-99552380D01*
X75555952Y-99504761D01*
X75603571Y-99457142D01*
X75651190Y-99361904D01*
X75651190Y-99076190D01*
X75603571Y-98980952D01*
X75555952Y-98933333D01*
X75460714Y-98885714D01*
X75270238Y-98885714D01*
X75175000Y-98933333D01*
X74698809Y-99552380D02*
X74698809Y-98885714D01*
X74698809Y-98552380D02*
X74746428Y-98600000D01*
X74698809Y-98647619D01*
X74651190Y-98600000D01*
X74698809Y-98552380D01*
X74698809Y-98647619D01*
X74317857Y-98885714D02*
X74079761Y-99552380D01*
X73841666Y-98885714D01*
X73032142Y-99552380D02*
X73032142Y-99028571D01*
X73079761Y-98933333D01*
X73175000Y-98885714D01*
X73365476Y-98885714D01*
X73460714Y-98933333D01*
X73032142Y-99504761D02*
X73127380Y-99552380D01*
X73365476Y-99552380D01*
X73460714Y-99504761D01*
X73508333Y-99409523D01*
X73508333Y-99314285D01*
X73460714Y-99219047D01*
X73365476Y-99171428D01*
X73127380Y-99171428D01*
X73032142Y-99123809D01*
X72555952Y-99171428D02*
X71794047Y-99171428D01*
X70936904Y-99504761D02*
X71032142Y-99552380D01*
X71222619Y-99552380D01*
X71317857Y-99504761D01*
X71365476Y-99409523D01*
X71365476Y-99028571D01*
X71317857Y-98933333D01*
X71222619Y-98885714D01*
X71032142Y-98885714D01*
X70936904Y-98933333D01*
X70889285Y-99028571D01*
X70889285Y-99123809D01*
X71365476Y-99219047D01*
X70460714Y-98885714D02*
X70460714Y-99552380D01*
X70460714Y-98980952D02*
X70413095Y-98933333D01*
X70317857Y-98885714D01*
X70175000Y-98885714D01*
X70079761Y-98933333D01*
X70032142Y-99028571D01*
X70032142Y-99552380D01*
X69127380Y-98885714D02*
X69127380Y-99695238D01*
X69175000Y-99790476D01*
X69222619Y-99838095D01*
X69317857Y-99885714D01*
X69460714Y-99885714D01*
X69555952Y-99838095D01*
X69127380Y-99504761D02*
X69222619Y-99552380D01*
X69413095Y-99552380D01*
X69508333Y-99504761D01*
X69555952Y-99457142D01*
X69603571Y-99361904D01*
X69603571Y-99076190D01*
X69555952Y-98980952D01*
X69508333Y-98933333D01*
X69413095Y-98885714D01*
X69222619Y-98885714D01*
X69127380Y-98933333D01*
X99627380Y-86647380D02*
X99627380Y-85980714D01*
X99627380Y-86171190D02*
X99579761Y-86075952D01*
X99532142Y-86028333D01*
X99436904Y-85980714D01*
X99341666Y-85980714D01*
X98627380Y-86599761D02*
X98722619Y-86647380D01*
X98913095Y-86647380D01*
X99008333Y-86599761D01*
X99055952Y-86504523D01*
X99055952Y-86123571D01*
X99008333Y-86028333D01*
X98913095Y-85980714D01*
X98722619Y-85980714D01*
X98627380Y-86028333D01*
X98579761Y-86123571D01*
X98579761Y-86218809D01*
X99055952Y-86314047D01*
X98246428Y-85980714D02*
X98008333Y-86647380D01*
X97770238Y-85980714D01*
X96436904Y-85647380D02*
X96341666Y-85647380D01*
X96246428Y-85695000D01*
X96198809Y-85742619D01*
X96151190Y-85837857D01*
X96103571Y-86028333D01*
X96103571Y-86266428D01*
X96151190Y-86456904D01*
X96198809Y-86552142D01*
X96246428Y-86599761D01*
X96341666Y-86647380D01*
X96436904Y-86647380D01*
X96532142Y-86599761D01*
X96579761Y-86552142D01*
X96627380Y-86456904D01*
X96675000Y-86266428D01*
X96675000Y-86028333D01*
X96627380Y-85837857D01*
X96579761Y-85742619D01*
X96532142Y-85695000D01*
X96436904Y-85647380D01*
X95675000Y-86552142D02*
X95627380Y-86599761D01*
X95675000Y-86647380D01*
X95722619Y-86599761D01*
X95675000Y-86552142D01*
X95675000Y-86647380D01*
X94675000Y-86647380D02*
X95246428Y-86647380D01*
X94960714Y-86647380D02*
X94960714Y-85647380D01*
X95055952Y-85790238D01*
X95151190Y-85885476D01*
X95246428Y-85933095D01*
X98889285Y-87352619D02*
X98841666Y-87305000D01*
X98746428Y-87257380D01*
X98508333Y-87257380D01*
X98413095Y-87305000D01*
X98365476Y-87352619D01*
X98317857Y-87447857D01*
X98317857Y-87543095D01*
X98365476Y-87685952D01*
X98936904Y-88257380D01*
X98317857Y-88257380D01*
X97698809Y-87257380D02*
X97603571Y-87257380D01*
X97508333Y-87305000D01*
X97460714Y-87352619D01*
X97413095Y-87447857D01*
X97365476Y-87638333D01*
X97365476Y-87876428D01*
X97413095Y-88066904D01*
X97460714Y-88162142D01*
X97508333Y-88209761D01*
X97603571Y-88257380D01*
X97698809Y-88257380D01*
X97794047Y-88209761D01*
X97841666Y-88162142D01*
X97889285Y-88066904D01*
X97936904Y-87876428D01*
X97936904Y-87638333D01*
X97889285Y-87447857D01*
X97841666Y-87352619D01*
X97794047Y-87305000D01*
X97698809Y-87257380D01*
X96984523Y-87352619D02*
X96936904Y-87305000D01*
X96841666Y-87257380D01*
X96603571Y-87257380D01*
X96508333Y-87305000D01*
X96460714Y-87352619D01*
X96413095Y-87447857D01*
X96413095Y-87543095D01*
X96460714Y-87685952D01*
X97032142Y-88257380D01*
X96413095Y-88257380D01*
X96032142Y-87352619D02*
X95984523Y-87305000D01*
X95889285Y-87257380D01*
X95651190Y-87257380D01*
X95555952Y-87305000D01*
X95508333Y-87352619D01*
X95460714Y-87447857D01*
X95460714Y-87543095D01*
X95508333Y-87685952D01*
X96079761Y-88257380D01*
X95460714Y-88257380D01*
%LPC*%
D11*
%TO.C,J5*%
X61625000Y-86280000D03*
D12*
X61625000Y-88820000D03*
X61625000Y-91360000D03*
X61625000Y-93900000D03*
X61625000Y-96440000D03*
%TD*%
D11*
%TO.C,J2*%
X83050000Y-74550000D03*
D12*
X80510000Y-74550000D03*
X77970000Y-74550000D03*
X75430000Y-74550000D03*
%TD*%
D11*
%TO.C,J4*%
X73170000Y-101500000D03*
D12*
X75710000Y-101500000D03*
X78250000Y-101500000D03*
X80790000Y-101500000D03*
%TD*%
D13*
%TO.C,SW1*%
X68490000Y-78600000D03*
X68490000Y-75600000D03*
%TD*%
D14*
%TO.C,H3*%
X98000000Y-74000000D03*
%TD*%
%TO.C,H2*%
X61000000Y-101000000D03*
%TD*%
%TO.C,H4*%
X98000000Y-101000000D03*
%TD*%
D15*
%TO.C,J1*%
X95575000Y-84110000D03*
X95575000Y-89890000D03*
D16*
X99265000Y-91320000D03*
D17*
X95095000Y-82680000D03*
D16*
X99265000Y-82680000D03*
D17*
X95095000Y-91320000D03*
%TD*%
D14*
%TO.C,H1*%
X61000000Y-74000000D03*
%TD*%
M02*
