M48
; DRILL file {KiCad (6.0.5)} date Sat May 28 10:37:04 2022
; FORMAT={-:-/ absolute / inch / decimal}
; #@! TF.CreationDate,2022-05-28T10:37:04-07:00
; #@! TF.GenerationSoftware,Kicad,Pcbnew,(6.0.5)
; #@! TF.FileFunction,Plated,1,2,PTH
FMAT,2
INCH
; #@! TA.AperFunction,Plated,PTH,ViaDrill
T1C0.0118
; #@! TA.AperFunction,Plated,PTH,ComponentDrill
T2C0.0236
; #@! TA.AperFunction,Plated,PTH,ComponentDrill
T3C0.0394
%
G90
G05
T1
X2.3878Y-3.1791
X2.5098Y-3.5226
X2.5098Y-3.5965
X2.5098Y-3.6673
X2.5591Y-3.2244
X2.5591Y-3.2795
X2.5945Y-3.439
X2.7146Y-3.2972
X2.7776Y-3.3071
X2.815Y-3.4173
X2.8189Y-3.565
X2.8248Y-2.9469
X2.8354Y-3.7008
X2.8465Y-3.2717
X2.8855Y-3.8055
X2.8898Y-3.5394
X2.9449Y-3.8051
X2.998Y-3.4862
X3.0138Y-3.8051
X3.0217Y-3.3307
X3.0288Y-3.5038
X3.0689Y-3.8051
X3.0728Y-3.6772
X3.0925Y-3.5453
X3.1988Y-3.5512
X3.2028Y-3.2028
X3.2028Y-3.3346
X3.3819Y-3.3661
X3.5217Y-3.7618
X3.5276Y-3.5846
X3.5276Y-3.6142
X3.5512Y-3.7618
X3.5787Y-3.4744
X3.6161Y-3.3228
X3.6319Y-3.7165
X3.6535Y-3.5886
X3.6575Y-3.2992
X3.6614Y-2.9094
X3.6614Y-3.0098
X3.6614Y-3.06
X3.7067Y-3.7165
T3
X2.4262Y-3.3969
X2.4262Y-3.4969
X2.4262Y-3.5969
X2.4262Y-3.6969
X2.4262Y-3.7969
X2.8807Y-3.9961
X2.9697Y-2.935
X2.9807Y-3.9961
X3.0697Y-2.935
X3.0807Y-3.9961
X3.1697Y-2.935
X3.1807Y-3.9961
X3.2697Y-2.935
T2
G00X3.7656Y-3.2551
M15
G01X3.7222Y-3.2551
M16
G05
G00X3.7656Y-3.5953
M15
G01X3.7222Y-3.5953
M16
G05
G00X3.9238Y-3.2551
M15
G01X3.8923Y-3.2551
M16
G05
G00X3.9238Y-3.5953
M15
G01X3.8923Y-3.5953
M16
G05
T0
M30
